<svg width="24" height="43" viewBox="0 0 24 43" fill="none" xmlns="http://www.w3.org/2000/svg">
<path d="M0.0412801 40.5772C0.0338864 42.8718 2.04498 43.6087 3.52125 41.849L20.793 20.6315L0.738754 13.2944L0.0412801 40.5772Z" fill="#E8C34D"/>
<path d="M14.9693 25.7233L13.599 29.467L14.6045 28.2322L15.4573 25.9008L16.2632 26.1965L16.6107 25.7701L15.6372 25.4128L17.111 21.3807L19.477 22.2458L19.8245 21.8194L17.2909 20.8927L17.7888 19.5323L17.3008 19.3549L16.8029 20.7153L12.7734 19.2415L13.2712 17.881L12.7832 17.7036L12.2854 19.064L8.25334 17.5902L8.75118 16.2298L8.26319 16.0523L7.76535 17.4128L3.73332 15.939L4.23116 14.5785L3.74317 14.4011L3.24533 15.7615L0.699427 14.8299L0.684641 15.377L3.06541 16.247L1.5916 20.2791L0.568805 19.9044L0.554019 20.4516L1.41169 20.7646L0.480081 23.308L0.438184 24.9346L1.89721 20.942L5.92924 22.4158L4.45544 26.4479L0.438184 24.979L0.423397 25.5261L4.27799 26.9359L2.80417 30.9679L0.310025 30.056L0.295238 30.6032L2.62426 31.4559L1.15044 35.4879L0.179403 35.133L0.164616 35.6802L0.970528 35.9759L0.0956082 38.369L0.0537109 39.9956L1.45852 36.1558L5.49055 37.6296L4.29524 40.9001L5.30078 39.6654L5.98101 37.8071L6.62179 38.0412L6.96929 37.6149L6.15846 37.3191L7.63226 33.2871L9.83313 34.093L10.1806 33.6666L7.80971 32.7991L9.28353 28.767L13.0469 30.1423L13.3944 29.7159L9.46345 28.2791L10.9373 24.247L14.9693 25.7233ZM12.5934 19.7295L16.623 21.2033L15.1492 25.2353L11.1196 23.7615L12.5934 19.7295ZM6.11163 21.9279L2.07959 20.4541L3.5534 16.422L7.58544 17.8958L6.11163 21.9279ZM8.07343 18.0757L12.1055 19.5496L10.6317 23.5816L6.59961 22.1078L8.07343 18.0757ZM5.67047 37.1392L1.63843 35.6654L3.11224 31.6333L7.14428 33.1072L5.67047 37.1392ZM7.32419 32.6192L3.29216 31.1454L4.76597 27.1133L8.79801 28.5871L7.32419 32.6192ZM4.94588 26.6253L6.4197 22.5933L10.4517 24.0671L8.97793 28.0991L4.94588 26.6253Z" fill="#B57C2A"/>
<path d="M3.51879 41.849L3.75293 41.5607L0.0486788 40.2051L0.0388184 40.5748C0.0388184 40.6389 0.0462142 40.6956 0.0486788 40.7572L3.3931 41.9796C3.43747 41.9377 3.47936 41.8983 3.51879 41.849Z" fill="#B57C2A"/>
<path d="M23.499 18.1472C22.6487 20.4688 20.0782 21.6617 17.7565 20.8139C15.4349 19.9636 14.2421 17.393 15.0899 15.0714C15.9401 12.7498 18.5107 11.5569 20.8323 12.4048C23.1539 13.255 24.3468 15.8256 23.499 18.1472Z" fill="#7EAAF9"/>
<path d="M22.3211 12.5428C20.5491 17.3856 15.1886 19.8724 10.3482 18.1028C5.50779 16.3308 3.01858 10.9704 4.78814 6.12995C6.56017 1.28953 11.9206 -1.19969 16.761 0.569876C21.6039 2.33944 24.0931 7.70235 22.3211 12.5428Z" fill="#7EAAF9"/>
<path d="M8.68209 12.7251C7.83182 15.0467 5.26127 16.2396 2.93964 15.3918C0.618018 14.5415 -0.574837 11.971 0.272976 9.6518C1.12325 7.33017 3.6938 6.13732 6.01542 6.98513C8.33705 7.83541 9.52991 10.4035 8.68209 12.7251Z" fill="#7EAAF9"/>
<path d="M19.196 26.7608C19.2329 27.4657 18.6907 28.0671 17.9859 28.104C17.281 28.141 16.6796 27.5988 16.6427 26.8939L16.0955 16.4515C16.0586 15.7467 16.6008 15.1453 17.3056 15.1084C18.0105 15.0714 18.6119 15.6136 18.6488 16.3185L19.196 26.7608Z" fill="#7EAAF9"/>
</svg>
