<svg width="18" height="37" viewBox="0 0 18 37" fill="none" xmlns="http://www.w3.org/2000/svg">
<path d="M12.2347 35.164C12.2988 35.7728 11.8527 36.3224 11.2415 36.3864C10.6328 36.4505 10.0832 36.0044 10.0216 35.3957L8.56499 21.5399C8.50091 20.9286 8.94454 20.3815 9.55328 20.3174C10.1645 20.2534 10.7141 20.697 10.7782 21.3082L12.2347 35.164Z" fill="#1A1A1A"/>
<path d="M17.5903 21.3525C17.7406 22.7869 16.7006 24.071 15.2687 24.2213L4.77947 25.3254C3.34509 25.4758 2.06105 24.4357 1.91071 23.0038L0.505903 4.65259C0.355564 3.22068 1.39561 1.93663 2.82753 1.7863L12.2816 0.793073C13.7135 0.642735 14.9976 1.68278 15.1504 3.1147L17.5903 21.3525Z" fill="#959ED8"/>
<path d="M2.95318 2.99149C2.19162 3.07282 1.63463 3.75797 1.7135 4.52199L3.12077 22.9077C3.19717 23.6372 3.88479 24.1917 4.6488 24.1129L15.138 23.0087C15.902 22.9274 16.4566 22.2423 16.3752 21.4782L13.9378 3.26999C13.854 2.47147 13.1664 1.91694 12.4048 1.9958L2.95318 2.99149Z" fill="#BAC0F9"/>
</svg>
