<svg width="28" height="43" viewBox="0 0 28 43" fill="none" xmlns="http://www.w3.org/2000/svg">
<path d="M26.9502 40.7542C27.2435 41.2472 27.0808 41.8904 26.5854 42.1837C26.0925 42.477 25.4517 42.3119 25.1584 41.8189L18.4893 30.6051C18.196 30.1098 18.3562 29.4714 18.8516 29.1782C19.347 28.8849 19.9878 29.0451 20.2811 29.5404L26.9502 40.7542Z" fill="#1A1A1A"/>
<path d="M22.8959 30.5115L18.0949 33.3655C17.0129 34.0087 15.6599 33.6292 15.0733 32.5127L0.778804 5.37039C0.192236 4.2564 0.593961 2.83188 1.67591 2.18863L3.33949 1.20034C4.42144 0.557082 5.86568 0.88487 6.56315 1.93231L23.5859 27.4505C24.2884 28.4979 23.9778 29.8682 22.8959 30.5115Z" fill="#C0B0AD"/>
<path d="M23.591 27.4505L18.339 19.5762L10.6643 24.1406L15.0759 32.5152C15.6625 33.6292 17.0155 34.0112 18.0975 33.3679L22.8984 30.5139C23.9779 29.8682 24.2885 28.4979 23.591 27.4505Z" fill="#EB65C4"/>
<path d="M10.6642 24.1406L18.3389 19.5762L11.8201 9.8042L5.19043 13.7475L10.6642 24.1406Z" fill="#F6D047"/>
<path d="M0.781341 5.37288L5.19292 13.7475L11.8226 9.80418L6.57062 1.92987C5.87068 0.882429 4.42891 0.554641 3.34696 1.19789L1.68337 2.18619C0.596497 2.83437 0.194773 4.25889 0.781341 5.37288Z" fill="#EB655F"/>
</svg>
