<svg width="29" height="41" viewBox="0 0 29 41" fill="none" xmlns="http://www.w3.org/2000/svg">
<path d="M2.73742 40.1141C2.42442 40.5947 1.77624 40.7327 1.29318 40.4197C0.812593 40.1067 0.674579 39.461 0.98758 38.9804L8.08801 28.0352C8.40101 27.5522 9.04673 27.4141 9.52732 27.7271C10.0104 28.0401 10.1484 28.6859 9.83539 29.1689L2.73742 40.1141Z" fill="#1A1A1A"/>
<path d="M10.1261 31.9441L5.44097 28.9053C4.38613 28.2201 4.12735 26.8375 4.86672 25.8197L22.8729 0.984162C23.6123 -0.0361708 25.0664 -0.307274 26.1237 0.380342L27.7478 1.43518C28.8051 2.12033 29.1501 3.55964 28.5192 4.65144L13.1773 31.2146C12.5488 32.3015 11.181 32.6293 10.1261 31.9441Z" fill="#C0B0AD"/>
<path d="M13.1797 31.2121L17.9141 23.0149L10.4243 18.1548L4.86916 25.8171C4.12979 26.8375 4.38857 28.2176 5.44341 28.9028L10.1286 31.9416C11.1809 32.6292 12.5488 32.3014 13.1797 31.2121Z" fill="#68EA68"/>
<path d="M10.4219 18.1548L17.9117 23.0149L23.7872 12.8461L17.3177 8.64648L10.4219 18.1548Z" fill="#DA4AF4"/>
<path d="M22.8728 0.984107L17.3176 8.64646L23.7871 12.8436L28.5216 4.64646C29.1525 3.55712 28.805 2.11781 27.7502 1.4302L26.126 0.375358C25.0687 -0.304864 23.6121 -0.0362252 22.8728 0.984107Z" fill="#60D0EA"/>
</svg>
