<svg width="24" height="44" viewBox="0 0 24 44" fill="none" xmlns="http://www.w3.org/2000/svg">
<path d="M19.798 42.3402C21.252 44.1147 23.2705 43.4049 23.2927 41.1104L23.1227 13.7512L2.98218 20.8467L19.798 42.3402Z" fill="#E8C34D"/>
<path d="M21.8657 21.384L23.1892 25.1425L23.1793 23.5503L22.3537 21.209L23.1621 20.9231L23.1596 20.3735L22.1812 20.7186L20.7542 16.6693L23.13 15.8313L23.1276 15.2817L20.5817 16.1788L20.1011 14.811L19.6106 14.9835L20.0912 16.3513L16.0444 17.7783L15.5638 16.4105L15.0734 16.583L15.5539 17.9508L11.5047 19.3778L11.0241 18.01L10.5336 18.1825L11.0142 19.5503L6.96491 20.9773L6.48432 19.6095L5.99387 19.782L6.47446 21.1499L3.9187 22.0519L4.25635 22.4832L6.64698 21.6403L8.07397 25.6896L7.04624 26.0519L7.38389 26.4832L8.24649 26.18L9.14606 28.7358L10.1491 30.0174L8.73694 26.0075L12.7862 24.5805L14.2132 28.6298L10.1812 30.0519L10.5188 30.4832L14.3882 29.1203L15.8152 33.1696L13.3087 34.0519L13.6464 34.4832L15.9852 33.6576L17.4122 37.7068L16.4363 38.0494L16.7739 38.4807L17.5848 38.1948L18.4326 40.5978L19.4332 41.8794L18.0752 38.0223L22.1245 36.5953L23.2828 39.8806L23.273 38.2909L22.6149 36.4253L23.2607 36.1985L23.2557 35.6489L22.4424 35.9348L21.0154 31.8855L23.2262 31.1067L23.2237 30.5571L20.8429 31.3951L19.4159 27.3458L23.1941 26.0149L23.1916 25.4653L19.2434 26.8553L17.8164 22.806L21.8657 21.384ZM16.2194 18.2712L20.2662 16.8442L21.6932 20.8935L17.6464 22.3205L16.2194 18.2712ZM12.6186 24.0901L8.56935 25.5171L7.14236 21.4678L11.1917 20.0408L12.6186 24.0901ZM11.6821 19.8707L15.7314 18.4438L17.1584 22.493L13.1091 23.92L11.6821 19.8707ZM21.952 36.1073L17.9027 37.5343L16.4757 33.485L20.525 32.058L21.952 36.1073ZM20.3549 31.5676L16.3056 32.9946L14.8787 28.9453L18.9279 27.5183L20.3549 31.5676ZM14.7061 28.4573L13.2791 24.408L17.3284 22.981L18.7554 27.0303L14.7061 28.4573Z" fill="#B57C2A"/>
<path d="M23.2904 41.1104L23.2879 40.7383L19.5688 42.0494L19.7981 42.3403C19.8375 42.3895 19.8794 42.429 19.9213 42.4758L23.2805 41.2928C23.283 41.2312 23.2904 41.1745 23.2904 41.1104Z" fill="#B57C2A"/>
<path d="M23.628 10.111C24.4487 12.4425 23.2238 14.9983 20.8948 15.819C18.5633 16.6397 16.0075 15.4173 15.1843 13.0858C14.3636 10.7543 15.5861 8.19852 17.9176 7.37536C20.2515 6.55712 22.8073 7.77954 23.628 10.111Z" fill="#D283D6"/>
<path d="M19.1546 6.53742C20.8675 11.4 18.3142 16.7309 13.4516 18.4438C8.58903 20.1566 3.25816 17.6034 1.54528 12.7408C-0.167595 7.87815 2.3857 2.54728 7.2483 0.834406C12.1109 -0.878471 17.4418 1.67482 19.1546 6.53742Z" fill="#D283D6"/>
<path d="M8.74687 15.3557C9.56757 17.6871 8.34514 20.2429 6.01119 21.0636C3.67971 21.8843 1.12395 20.6619 0.303244 18.3304C-0.517458 15.9989 0.704969 13.4432 3.03645 12.6225C5.3704 11.7993 7.92616 13.0242 8.74687 15.3557Z" fill="#D283D6"/>
</svg>
