<svg width="135" height="19" viewBox="0 0 135 19" fill="none" xmlns="http://www.w3.org/2000/svg">
<path d="M12.4962 1.3792C10.5099 1.82588 6.55794 2.88095 4.71848 3.74862C2.49258 4.796 -0.944162 6.78292 0.807702 7.96122C1.48268 8.41559 4.71848 8.39762 5.53258 8.41816C7.05516 8.45667 9.786 8.30264 11.306 8.34115C11.8547 8.35655 12.4396 8.37965 12.893 8.69284C14.2481 9.62983 13.6942 12.5204 15.3353 12.6693C16.948 12.8156 17.0923 9.87113 18.6638 9.4835C20.256 9.09074 21.1448 13.2263 22.7395 13.6191C23.9143 13.9066 24.0482 9.2807 25.9547 9.24733C27.8585 9.21396 27.655 11.7759 28.8195 11.7554C29.984 11.7348 30.3781 9.4604 32.3696 9.47837C35.3426 9.50661 40.3174 10.1663 43.1796 10.9673C45.6322 11.6527 48.2987 12.8823 50.5787 11.7502C51.6246 11.2317 52.4027 10.2742 53.4486 9.75048C54.5667 9.19085 56.7823 10.7491 58.0318 10.7542C60.2216 10.7645 61.4995 9.20882 63.6893 9.21909C64.676 9.22423 65.8559 9.33461 66.3248 10.2023C66.5181 10.5617 67.023 12.3253 67.2471 12.6667C67.9968 13.8065 69.2412 11.5911 70.4597 10.9724C72.6084 9.88397 75.1486 10.0175 77.5522 10.1766C79.1727 10.2844 80.9426 10.4564 82.0942 11.5962C82.8336 12.3278 83.6631 13.5164 84.5906 13.0441C85.1934 12.736 85.3326 11.8427 85.9612 11.5911C86.8036 11.2522 87.5018 12.3022 87.8032 13.1544C88.321 14.6177 88.8389 16.0809 89.3567 17.5442C89.586 18.1911 90.0188 18.9689 90.6989 18.879C91.3378 18.7918 91.5774 18.0114 91.6753 17.3773C91.951 15.6086 91.0879 12.0968 92.5023 12.0711C93.9167 12.0455 94.1717 14.7537 95.6685 14.6485C97.4797 14.5201 95.9519 9.57848 97.338 9.55538C98.724 9.53228 97.405 13.3521 99.1362 13.3213C100.867 13.2905 101.39 9.97382 103.732 8.75188C104.199 8.50801 108.609 7.71478 108.903 7.28094C109.856 5.88188 106.118 3.75119 104.691 2.83474C102.156 1.20721 99.1027 -0.443432 96.2765 0.601374C94.6973 1.1841 93.4684 2.54723 91.8351 2.96566C88.1123 3.92319 84.454 -0.381821 80.7803 0.750265C79.9997 0.991571 79.3067 1.46392 78.5261 1.70265C75.7308 2.55236 72.866 0.213743 69.9574 0.49869C68.5121 0.63988 67.2136 1.41771 65.7993 1.74886C62.4166 2.53953 58.9799 0.70149 55.5045 0.668118C49.9217 0.614209 44.697 5.18876 39.274 3.85644C37.1666 3.33789 35.2602 1.94653 33.0909 1.96193C31.2953 1.97477 29.6619 2.95539 27.9075 3.34302C22.7987 4.46228 17.6462 0.457617 12.4962 1.3792Z" fill="white"/>
<path d="M115.622 3.84869C112.932 4.92943 112.991 6.75977 113.777 7.40924C114.439 7.95603 115.395 7.91496 116.25 7.84565C117.582 7.73783 120.105 7.76607 121.362 7.92523C122.199 8.03048 122.786 8.90072 122.936 9.72733C123.083 10.5539 122.542 12.8617 123.801 13.0183C125.051 13.1749 124.956 10.7542 124.981 10.1175C125.007 9.48345 124.981 7.84565 125.767 7.84565C126.553 7.84565 126.543 9.79407 126.519 10.3101C126.476 11.2958 127.656 11.5294 127.748 10.2536C127.782 9.79407 127.261 8.23841 128.05 8.23841C128.835 8.23841 128.197 9.95323 128.671 10.192C129.464 10.5899 129.467 9.32173 129.701 8.94436C130.567 7.55043 133.117 8.97003 133.939 7.54787C134.408 6.73923 133.867 5.68929 133.133 5.10913C132.398 4.52897 131.476 4.20551 130.788 3.57144C129.918 2.77308 129.487 1.54858 128.516 0.873432C127.246 -0.00964701 124.332 -0.230417 122.859 0.244495C119.947 1.18405 118.059 2.87063 115.622 3.84869Z" fill="white"/>
</svg>
