<svg width="222" height="67" viewBox="0 0 222 67" fill="none" xmlns="http://www.w3.org/2000/svg">
<path d="M34.7668 54.0115C33.5379 54.0115 32.3863 54.3504 31.4047 54.9408L30.5314 54.8201L18.5363 54.8022L17.4465 54.9613C16.4572 54.3606 15.2953 54.0115 14.051 54.0115C10.4519 54.0115 7.53302 56.9175 7.53302 60.5037C7.53302 64.0925 10.4519 66.9984 14.051 66.9984C16.045 66.9984 17.8278 66.1051 19.0258 64.7009L19.1443 64.8908H29.9595C31.1523 66.1846 32.8629 66.9984 34.7642 66.9984C38.3632 66.9984 41.2822 64.0925 41.2822 60.5037C41.2873 56.9175 38.3684 54.0115 34.7668 54.0115ZM20.0923 58.0547C20.0846 58.0393 20.0795 58.0213 20.0717 58.0059H20.0923V58.0547Z" fill="#1A1A1A"/>
<path d="M203.786 54.0115C202.557 54.0115 201.405 54.3504 200.424 54.9408L199.55 54.8201L187.555 54.8022L186.465 54.9613C185.476 54.3606 184.314 54.0115 183.072 54.0115C179.473 54.0115 176.554 56.9175 176.554 60.5037C176.554 64.0925 179.473 66.9984 183.072 66.9984C185.066 66.9984 186.849 66.1051 188.045 64.7009L188.163 64.8908H198.978C200.171 66.1872 201.882 66.9984 203.783 66.9984C207.382 66.9984 210.301 64.0899 210.301 60.5037C210.304 56.9175 207.385 54.0115 203.786 54.0115ZM189.109 58.0572C189.101 58.0393 189.096 58.0213 189.088 58.0059H189.109V58.0572Z" fill="#1A1A1A"/>
<path d="M220.034 51.1184L219.091 52.2197H212.102V51.8218H9.01952V52.2197H2.30319L1.36027 51.1184H0V56.2295H1.36027L2.30319 55.1308H9.01952V55.1718H101.51L102.994 57.4848H118.735L120.09 55.1718H212.102V55.1333H219.091L220.034 56.2295H221.394V51.1184H220.034Z" fill="#1A1A1A"/>
<path d="M146.614 51.4422L181.298 51.4422V0.39048L146.614 0.39048V51.4422Z" fill="#A06287"/>
<path d="M178.25 5.20605H149.663V46.626H178.25V5.20605Z" stroke="#4F3159" stroke-width="1.19673" stroke-miterlimit="10"/>
<path d="M149.663 12.8047H178.25" stroke="#4F3159" stroke-width="1.19673" stroke-miterlimit="10"/>
<path d="M149.663 21.5995H178.25" stroke="#4F3159" stroke-width="1.19673" stroke-miterlimit="10"/>
<path d="M149.663 30.3918H178.25" stroke="#4F3159" stroke-width="1.19673" stroke-miterlimit="10"/>
<path d="M149.663 39.1866H178.25" stroke="#4F3159" stroke-width="1.19673" stroke-miterlimit="10"/>
<path d="M158.049 5.20605V46.626" stroke="white" stroke-width="1.19673" stroke-miterlimit="10"/>
<path d="M169.861 5.20605V46.626" stroke="white" stroke-width="1.19673" stroke-miterlimit="10"/>
<path d="M169.861 25.4501H158.049V27.7502H169.861V25.4501Z" fill="white"/>
<path d="M159.497 32.3479H152.654V34.648H159.497V32.3479Z" fill="white"/>
<path d="M175.258 32.3479H168.416V34.648H175.258V32.3479Z" fill="white"/>
<path d="M146.613 0.390198H44.7653V51.4419H146.613V0.390198Z" fill="#C0759E"/>
<path d="M142.486 5.20605H48.895V46.626H142.486V5.20605Z" stroke="#4F3159" stroke-width="1.19673" stroke-miterlimit="10"/>
<path d="M53.4807 46.626V5.20605" stroke="#4F3159" stroke-width="1.19673" stroke-miterlimit="10"/>
<path d="M58.4349 46.626V5.20605" stroke="#4F3159" stroke-width="1.19673" stroke-miterlimit="10"/>
<path d="M63.3865 46.626V5.20605" stroke="#4F3159" stroke-width="1.19673" stroke-miterlimit="10"/>
<path d="M68.3381 46.626V5.20605" stroke="#4F3159" stroke-width="1.19673" stroke-miterlimit="10"/>
<path d="M73.2897 46.626V5.20605" stroke="#4F3159" stroke-width="1.19673" stroke-miterlimit="10"/>
<path d="M78.2413 46.626V5.20605" stroke="#4F3159" stroke-width="1.19673" stroke-miterlimit="10"/>
<path d="M83.1929 46.626V5.20605" stroke="#4F3159" stroke-width="1.19673" stroke-miterlimit="10"/>
<path d="M88.1471 46.626V5.20605" stroke="#4F3159" stroke-width="1.19673" stroke-miterlimit="10"/>
<path d="M93.0987 46.626V5.20605" stroke="#4F3159" stroke-width="1.19673" stroke-miterlimit="10"/>
<path d="M98.0503 46.626V5.20605" stroke="#4F3159" stroke-width="1.19673" stroke-miterlimit="10"/>
<path d="M103.002 46.626V5.20605" stroke="#4F3159" stroke-width="1.19673" stroke-miterlimit="10"/>
<path d="M107.953 46.626V5.20605" stroke="#4F3159" stroke-width="1.19673" stroke-miterlimit="10"/>
<path d="M112.908 46.626V5.20605" stroke="#4F3159" stroke-width="1.19673" stroke-miterlimit="10"/>
<path d="M117.859 46.626V5.20605" stroke="#4F3159" stroke-width="1.19673" stroke-miterlimit="10"/>
<path d="M122.811 46.626V5.20605" stroke="#4F3159" stroke-width="1.19673" stroke-miterlimit="10"/>
<path d="M127.762 46.626V5.20605" stroke="#4F3159" stroke-width="1.19673" stroke-miterlimit="10"/>
<path d="M132.714 46.626V5.20605" stroke="#4F3159" stroke-width="1.19673" stroke-miterlimit="10"/>
<path d="M137.668 46.626V5.20605" stroke="#4F3159" stroke-width="1.19673" stroke-miterlimit="10"/>
</svg>
