<svg width="27" height="73" viewBox="0 0 27 73" fill="none" xmlns="http://www.w3.org/2000/svg">
<path d="M3.95444 61.5321C1.66356 54.8215 0.396942 45.8494 0.396942 36.2871C0.396942 26.7247 1.66356 17.723 3.95444 10.9574C6.37388 3.81317 9.73537 -0.0688881 13.4046 0.000925468C17.0527 0.070739 20.351 4.0353 22.703 11.1394C24.9137 17.814 26.1277 26.6274 26.1277 35.9803C26.1277 45.3332 24.9137 54.1762 22.703 60.9037C20.351 68.0649 17.0506 72.1077 13.4046 72.2643C9.73537 72.423 6.37388 68.6192 3.95444 61.5321ZM7.5014 11.829C5.32012 18.3132 4.11461 26.9913 4.11461 36.2447C4.11461 45.4982 5.32012 54.1466 7.5014 60.5801C9.50987 66.4994 12.119 69.8251 14.6543 69.7214C17.1813 69.6177 19.7545 66.1101 21.7209 60.1125C23.8431 53.6431 25.0065 45.0836 25.0065 35.9951C25.0065 26.9066 23.841 18.3767 21.7209 11.956C19.7545 6.00489 17.1813 2.55864 14.6543 2.51633C12.119 2.4719 9.50987 5.86103 7.5014 11.829Z" fill="#86A8F2"/>
</svg>
