<svg width="124" height="137" viewBox="0 0 124 137" fill="none" xmlns="http://www.w3.org/2000/svg">
<path d="M119.488 111.163H4.08838V33.1895L61.7894 4.43652L119.488 33.1895V111.163Z" fill="#D2D5E1"/>
<path d="M43.0695 104.695L40.7295 107.144V108.157H47.8718L48.4612 107.144L49.8892 104.695H43.0695Z" fill="#8AABC4"/>
<path d="M81.5368 104.695H74.7192L76.1472 107.144L76.7345 108.157H83.8768V107.144L81.5368 104.695Z" fill="#8AABC4"/>
<path d="M25.366 123.69L20.8706 128.397V130.344H34.5835L35.7179 128.397L38.4627 123.69H25.366Z" fill="#8AABC4"/>
<path d="M35.0621 112.725L31.7456 116.198V117.636H41.8596L42.6959 116.198L44.7178 112.725H35.0621Z" fill="#8AABC4"/>
<path d="M89.5467 112.725H79.8887L81.9106 116.198L82.7469 117.636H92.8631V116.198L89.5467 112.725Z" fill="#8AABC4"/>
<path d="M99.2401 123.69H86.1455L88.8881 128.397L90.0203 130.344H103.738V128.397L99.2401 123.69Z" fill="#8AABC4"/>
<path d="M16.4731 41.9582H6.57045C5.20027 41.9582 4.09033 40.8513 4.09033 39.4849V38.1273C4.09033 36.7609 5.20027 35.654 6.57045 35.654H16.4731C17.8433 35.654 18.9532 36.7609 18.9532 38.1273V39.4849C18.9532 40.8513 17.8433 41.9582 16.4731 41.9582Z" fill="#BCBFC9"/>
<path d="M30.3642 35.6517H20.4616C19.0914 35.6517 17.9814 34.5448 17.9814 33.1784V31.8208C17.9814 30.4544 19.0914 29.3475 20.4616 29.3475H30.3642C31.7344 29.3475 32.8444 30.4544 32.8444 31.8208V33.1784C32.8444 34.5426 31.7344 35.6517 30.3642 35.6517Z" fill="#BCBFC9"/>
<path d="M30.3642 50.4829H20.4616C19.0914 50.4829 17.9814 49.3759 17.9814 48.0095V46.6519C17.9814 45.2855 19.0914 44.1786 20.4616 44.1786H30.3642C31.7344 44.1786 32.8444 45.2855 32.8444 46.6519V48.0095C32.8444 49.3759 31.7344 50.4829 30.3642 50.4829Z" fill="#BCBFC9"/>
<path d="M45.2295 41.9582H35.3268C33.9566 41.9582 32.8467 40.8513 32.8467 39.4849V38.1273C32.8467 36.7609 33.9566 35.654 35.3268 35.654H45.2295C46.5996 35.654 47.7096 36.7609 47.7096 38.1273V39.4849C47.7096 40.8513 46.5996 41.9582 45.2295 41.9582Z" fill="#BCBFC9"/>
<path d="M59.1201 35.6517H49.2174C47.8472 35.6517 46.7373 34.5448 46.7373 33.1784V31.8208C46.7373 30.4544 47.8472 29.3475 49.2174 29.3475H59.1201C60.4903 29.3475 61.6002 30.4544 61.6002 31.8208V33.1784C61.6002 34.5426 60.4903 35.6517 59.1201 35.6517Z" fill="#BCBFC9"/>
<path d="M73.9853 41.9582H64.0827C62.7125 41.9582 61.6025 40.8513 61.6025 39.4849V38.1273C61.6025 36.7609 62.7125 35.654 64.0827 35.654H73.9853C75.3555 35.654 76.4654 36.7609 76.4654 38.1273V39.4849C76.4654 40.8513 75.3555 41.9582 73.9853 41.9582Z" fill="#BCBFC9"/>
<path d="M87.8759 35.6517H77.9733C76.6031 35.6517 75.4932 34.5448 75.4932 33.1784V31.8208C75.4932 30.4544 76.6031 29.3475 77.9733 29.3475H87.8759C89.2461 29.3475 90.3561 30.4544 90.3561 31.8208V33.1784C90.3561 34.5426 89.2461 35.6517 87.8759 35.6517Z" fill="#BCBFC9"/>
<path d="M116.632 35.6517H106.73C105.359 35.6517 104.25 34.5448 104.25 33.1784V31.8208C104.25 30.4544 105.359 29.3475 106.73 29.3475H116.632C118.002 29.3475 119.112 30.4544 119.112 31.8208V33.1784C119.112 34.5426 118.002 35.6517 116.632 35.6517Z" fill="#BCBFC9"/>
<path d="M73.9853 10.743H64.0827C62.7125 10.743 61.6025 9.63608 61.6025 8.26963V6.91207C61.6025 5.54563 62.7125 4.43872 64.0827 4.43872H69.4966L76.4677 8.27185C76.4654 9.63608 75.3555 10.743 73.9853 10.743Z" fill="#BCBFC9"/>
<path d="M59.1289 19.9532H49.2262C47.856 19.9532 46.7461 18.8463 46.7461 17.4799V16.1223C46.7461 14.7559 47.856 13.649 49.2262 13.649H59.1289C60.4991 13.649 61.609 14.7559 61.609 16.1223V17.4799C61.609 18.8441 60.4991 19.9532 59.1289 19.9532Z" fill="#BCBFC9"/>
<path d="M87.8852 19.9532H77.9826C76.6124 19.9532 75.5024 18.8463 75.5024 17.4799V16.1223C75.5024 14.7559 76.6124 13.649 77.9826 13.649H87.8852C89.2554 13.649 90.3653 14.7559 90.3653 16.1223V17.4799C90.3653 18.8441 89.2554 19.9532 87.8852 19.9532Z" fill="#BCBFC9"/>
<path d="M87.8759 50.4829H77.9733C76.6031 50.4829 75.4932 49.3759 75.4932 48.0095V46.6519C75.4932 45.2855 76.6031 44.1786 77.9733 44.1786H87.8759C89.2461 44.1786 90.3561 45.2855 90.3561 46.6519V48.0095C90.3561 49.3759 89.2461 50.4829 87.8759 50.4829Z" fill="#BCBFC9"/>
<path d="M102.741 41.9582H92.8385C91.4683 41.9582 90.3584 40.8513 90.3584 39.4849V38.1273C90.3584 36.7609 91.4683 35.654 92.8385 35.654H102.741C104.111 35.654 105.221 36.7609 105.221 38.1273V39.4849C105.221 40.8513 104.111 41.9582 102.741 41.9582Z" fill="#BCBFC9"/>
<path d="M116.632 50.4829H106.73C105.359 50.4829 104.25 49.3759 104.25 48.0095V46.6519C104.25 45.2855 105.359 44.1786 106.73 44.1786H116.632C118.002 44.1786 119.112 45.2855 119.112 46.6519V48.0095C119.112 49.3759 118.002 50.4829 116.632 50.4829Z" fill="#BCBFC9"/>
<path d="M16.4731 73.6413H6.57045C5.20027 73.6413 4.09033 72.5344 4.09033 71.168V69.8104C4.09033 68.444 5.20027 67.3371 6.57045 67.3371H16.4731C17.8433 67.3371 18.9532 68.444 18.9532 69.8104V71.168C18.9532 72.5322 17.8433 73.6413 16.4731 73.6413Z" fill="#BCBFC9"/>
<path d="M30.3642 65.1144H20.4616C19.0914 65.1144 17.9814 64.0075 17.9814 62.641V61.2835C17.9814 59.917 19.0914 58.8101 20.4616 58.8101H30.3642C31.7344 58.8101 32.8444 59.917 32.8444 61.2835V62.641C32.8444 64.0075 31.7344 65.1144 30.3642 65.1144Z" fill="#BCBFC9"/>
<path d="M30.3642 82.1661H20.4616C19.0914 82.1661 17.9814 81.0592 17.9814 79.6928V78.3352C17.9814 76.9687 19.0914 75.8618 20.4616 75.8618H30.3642C31.7344 75.8618 32.8444 76.9687 32.8444 78.3352V79.6928C32.8444 81.0592 31.7344 82.1661 30.3642 82.1661Z" fill="#BCBFC9"/>
<path d="M102.741 73.6413H92.8385C91.4683 73.6413 90.3584 72.5344 90.3584 71.168V69.8104C90.3584 68.444 91.4683 67.3371 92.8385 67.3371H102.741C104.111 67.3371 105.221 68.444 105.221 69.8104V71.168C105.221 72.5322 104.111 73.6413 102.741 73.6413Z" fill="#BCBFC9"/>
<path d="M116.632 65.1144H106.73C105.359 65.1144 104.25 64.0075 104.25 62.641V61.2835C104.25 59.917 105.359 58.8101 106.73 58.8101H116.632C118.002 58.8101 119.112 59.917 119.112 61.2835V62.641C119.112 64.0075 118.002 65.1144 116.632 65.1144Z" fill="#BCBFC9"/>
<path d="M116.632 82.1661H106.73C105.359 82.1661 104.25 81.0592 104.25 79.6928V78.3352C104.25 76.9687 105.359 75.8618 106.73 75.8618H116.632C118.002 75.8618 119.112 76.9687 119.112 78.3352V79.6928C119.112 81.0592 118.002 82.1661 116.632 82.1661Z" fill="#BCBFC9"/>
<path d="M16.4731 107.541H6.57045C5.20027 107.541 4.09033 106.434 4.09033 105.067V103.71C4.09033 102.343 5.20027 101.236 6.57045 101.236H16.4731C17.8433 101.236 18.9532 102.343 18.9532 103.71V105.067C18.9532 106.434 17.8433 107.541 16.4731 107.541Z" fill="#BCBFC9"/>
<path d="M30.3642 99.0159H20.4616C19.0914 99.0159 17.9814 97.909 17.9814 96.5425V95.185C17.9814 93.8185 19.0914 92.7116 20.4616 92.7116H30.3642C31.7344 92.7116 32.8444 93.8185 32.8444 95.185V96.5425C32.8444 97.909 31.7344 99.0159 30.3642 99.0159Z" fill="#BCBFC9"/>
<path d="M102.741 107.541H92.8385C91.4683 107.541 90.3584 106.434 90.3584 105.067V103.71C90.3584 102.343 91.4683 101.236 92.8385 101.236H102.741C104.111 101.236 105.221 102.343 105.221 103.71V105.067C105.221 106.434 104.111 107.541 102.741 107.541Z" fill="#BCBFC9"/>
<path d="M116.632 99.0159H106.73C105.359 99.0159 104.25 97.909 104.25 96.5425V95.185C104.25 93.8185 105.359 92.7116 106.73 92.7116H116.632C118.002 92.7116 119.112 93.8185 119.112 95.185V96.5425C119.112 97.909 118.002 99.0159 116.632 99.0159Z" fill="#BCBFC9"/>
<path d="M45.2295 27.8146H35.3268C33.9566 27.8146 32.8467 26.7077 32.8467 25.3413V23.9837C32.8467 22.6173 33.9566 21.5104 35.3268 21.5104H45.2295C46.5996 21.5104 47.7096 22.6173 47.7096 23.9837V25.3413C47.7096 26.7077 46.5996 27.8146 45.2295 27.8146Z" fill="#BCBFC9"/>
<path d="M16.4731 58.3199H6.57045C5.20027 58.3199 4.09033 57.213 4.09033 55.8466V54.489C4.09033 53.1226 5.20027 52.0157 6.57045 52.0157H16.4731C17.8433 52.0157 18.9532 53.1226 18.9532 54.489V55.8466C18.9532 57.213 17.8433 58.3199 16.4731 58.3199Z" fill="#BCBFC9"/>
<path d="M16.4731 91.0436H6.57045C5.20027 91.0436 4.09033 89.9367 4.09033 88.5703V87.2127C4.09033 85.8463 5.20027 84.7394 6.57045 84.7394H16.4731C17.8433 84.7394 18.9532 85.8463 18.9532 87.2127V88.5703C18.9532 89.9367 17.8433 91.0436 16.4731 91.0436Z" fill="#BCBFC9"/>
<path d="M73.9853 27.8146H64.0827C62.7125 27.8146 61.6025 26.7077 61.6025 25.3413V23.9837C61.6025 22.6173 62.7125 21.5104 64.0827 21.5104H73.9853C75.3555 21.5104 76.4654 22.6173 76.4654 23.9837V25.3413C76.4654 26.7077 75.3555 27.8146 73.9853 27.8146Z" fill="#BCBFC9"/>
<path d="M102.741 27.8146H92.8385C91.4683 27.8146 90.3584 26.7077 90.3584 25.3413V23.9837C90.3584 22.6173 91.4683 21.5104 92.8385 21.5104H102.741C104.111 21.5104 105.221 22.6173 105.221 23.9837V25.3413C105.221 26.7077 104.111 27.8146 102.741 27.8146Z" fill="#BCBFC9"/>
<path d="M102.741 58.32H92.8385C91.4683 58.32 90.3584 57.213 90.3584 55.8466V54.489C90.3584 53.1226 91.4683 52.0157 92.8385 52.0157H102.741C104.111 52.0157 105.221 53.1226 105.221 54.489V55.8466C105.221 57.213 104.111 58.32 102.741 58.32Z" fill="#BCBFC9"/>
<path d="M102.741 91.0436H92.8385C91.4683 91.0436 90.3584 89.9367 90.3584 88.5703V87.2127C90.3584 85.8463 91.4683 84.7394 92.8385 84.7394H102.741C104.111 84.7394 105.221 85.8463 105.221 87.2127V88.5703C105.221 89.9367 104.111 91.0436 102.741 91.0436Z" fill="#BCBFC9"/>
<path d="M62.1897 49.2784C44.8355 49.2784 30.7178 64.2694 30.7178 82.7097V111.163H93.6593V82.7097C93.6593 64.2694 79.5438 49.2784 62.1897 49.2784ZM56.2507 88.7322H53.2101V82.7097C53.2101 76.6317 57.2361 71.6916 62.1897 71.6916C67.1432 71.6916 71.1826 76.6317 71.1826 82.7097V88.7322H68.242H56.2507Z" fill="#1A1A1A"/>
<path d="M93.6595 111.163H30.7202L53.2103 88.7321H71.1828L93.6595 111.163Z" fill="#19386D"/>
<path d="M100.192 130.349C100.094 130.011 99.9541 129.688 99.7695 129.366C99.685 129.2 99.5582 129.029 99.447 128.876L99.08 128.399L95.4076 123.685L90.7076 117.634L89.5955 116.203L86.8929 112.722L85.6829 111.165L83.3451 108.16L82.5577 107.148L80.6559 104.69L68.2442 88.7321H65.6685L65.9776 89.2645L66.4003 89.9965L66.5671 90.276L67.2989 91.5271L67.875 92.5364L68.1152 92.9446H68.1308L69.214 94.8234L70.0148 96.201L70.3373 96.7467V96.7644L71.5184 98.7719L72.5883 100.609L73.0243 101.367L74.9394 104.65L74.9683 104.69L76.403 107.148L76.9813 108.146V108.16L78.7408 111.165L79.7239 112.849L81.7369 116.303L82.5533 117.72L86.0299 123.685L88.788 128.399L89.9269 130.351L91.9822 133.887C93.2344 136.034 95.9926 136.766 98.1457 135.515C99.9786 134.448 100.782 132.298 100.192 130.349Z" fill="#1F86B2"/>
<path d="M56.2508 88.7321L43.8524 104.69L41.9373 107.148L41.1632 108.16L38.8277 111.165L37.6177 112.722L34.9151 116.203L33.8052 117.634L29.1052 123.685L25.444 128.399L25.0636 128.889C24.9502 129.029 24.8256 129.2 24.7255 129.379C24.5587 129.688 24.403 130.012 24.3051 130.349C23.7268 132.285 24.5298 134.448 26.3582 135.513C28.5135 136.764 31.2695 136.032 32.524 133.885L34.5926 130.349L35.7181 128.397L38.4629 123.683L41.9395 117.718L42.7692 116.301L44.7822 112.847L45.7698 111.163L47.5159 108.157L48.1076 107.146L49.5423 104.688L49.5689 104.648L51.4841 101.365L51.92 100.606L52.9899 98.7697L54.1577 96.7622L54.4958 96.201L55.2988 94.8235L56.3954 92.9446L56.62 92.5364L57.2117 91.5271L57.9302 90.3049L58.1126 89.9988L58.5352 89.2667L58.8444 88.7344H56.2508V88.7321Z" fill="#1F86B2"/>
<path d="M87.2822 123.685H37.2127L34.5146 128.394V130.344H89.9781V128.394L87.2822 123.685Z" fill="#8AABC4"/>
<path d="M66.1489 89.2667H58.3437L57.9233 90.001V90.3071H66.5693V90.001L66.1489 89.2667Z" fill="#8AABC4"/>
<path d="M80.6026 112.84H43.8947L41.915 116.292V117.722H82.5801V116.292L80.6026 112.84Z" fill="#8AABC4"/>
<path d="M75.547 104.648H48.9486L47.5161 107.15V108.186H76.9772V107.15L75.547 104.648Z" fill="#8AABC4"/>
<path d="M71.9988 98.7697H52.4937L51.4438 100.604V101.363H73.0487V100.604L71.9988 98.7697Z" fill="#8AABC4"/>
<path d="M69.5565 94.8235H54.9383L54.1509 96.1988V96.7689H70.3439V96.1988L69.5565 94.8235Z" fill="#8AABC4"/>
<path d="M67.5525 91.5293H56.9403L56.3687 92.5298V92.9401H68.1242V92.5298L67.5525 91.5293Z" fill="#8AABC4"/>
<path d="M62.1921 37.5461C40.3648 37.5461 22.6748 55.1945 22.6748 76.9622V111.157H30.7246V82.7141C30.7246 64.2716 44.8401 49.2718 62.1921 49.2718C79.544 49.2718 93.6617 64.2738 93.6617 82.7141V111.157H101.709V76.96C101.709 55.1945 84.0193 37.5461 62.1921 37.5461Z" fill="#8AABC4"/>
<path d="M61.7894 4.4365L4.0883 33.1894L0 35.5208V31.0843L61.7894 0L123.75 30.6495V35.086L119.488 33.1894L61.7894 4.4365Z" fill="#1F86B2"/>
<rect x="24.75" y="23.375" width="74.25" height="12.375" fill="white"/>
<path d="M28.2459 31.4026C28.1681 31.4086 28.0604 31.3877 27.9227 31.3398C27.791 31.2919 27.6982 31.241 27.6444 31.1871C27.6025 31.1273 27.5606 31.0525 27.5187 30.9627C27.4827 30.8669 27.4528 30.7771 27.4289 30.6933C27.4049 30.6035 27.396 30.5407 27.4019 30.5048L27.5097 29.7595C27.5276 29.6937 27.5426 29.6278 27.5546 29.562C27.5725 29.4961 27.5905 29.4333 27.6085 29.3734C27.6025 29.3614 27.6144 29.3076 27.6444 29.2118C27.6743 29.11 27.7072 28.9993 27.7431 28.8796C27.785 28.7539 27.8239 28.6431 27.8599 28.5474C27.8958 28.4456 27.9137 28.3917 27.9137 28.3857C27.9377 28.284 27.9706 28.1882 28.0125 28.0984C28.0544 28.0026 28.0933 27.9129 28.1292 27.8291C28.1771 27.6974 28.222 27.5747 28.2639 27.4609C28.3118 27.3472 28.3537 27.2484 28.3896 27.1646C28.4255 27.0808 28.4525 27.015 28.4704 26.9671C28.4944 26.9192 28.5063 26.8982 28.5063 26.9042L29.0092 25.7549C28.9613 25.707 28.9134 25.6502 28.8655 25.5843C28.8176 25.5185 28.7937 25.4377 28.7937 25.3419C28.7877 25.2761 28.8026 25.2222 28.8386 25.1803C28.8805 25.1384 28.9254 25.1055 28.9732 25.0815C29.057 25.0755 29.1349 25.0695 29.2067 25.0636C29.2845 25.0576 29.3713 25.0606 29.4671 25.0725C29.503 25.0666 29.5389 25.0636 29.5748 25.0636C29.6167 25.0636 29.6556 25.0606 29.6915 25.0546C29.7215 25.0606 29.7544 25.0666 29.7903 25.0725C29.8262 25.0725 29.8711 25.0636 29.925 25.0456C29.9849 25.0336 30.0627 25.0247 30.1584 25.0187C30.2602 25.0127 30.362 25.0067 30.4637 25.0007C30.5655 24.9887 30.6553 24.9828 30.7331 24.9828C30.8169 24.9768 30.8708 24.9738 30.8947 24.9738C30.9665 24.9678 31.0384 24.9618 31.1102 24.9558C31.182 24.9498 31.2539 24.9438 31.3257 24.9379C31.4035 24.9319 31.4783 24.9259 31.5502 24.9199C31.622 24.9139 31.6938 24.9079 31.7657 24.9019C31.9512 24.86 32.0739 24.878 32.1338 24.9558C32.1996 25.0276 32.2505 25.0935 32.2864 25.1534C32.2984 25.1833 32.3194 25.2312 32.3493 25.297C32.3852 25.3569 32.4032 25.4167 32.4032 25.4766C32.4091 25.5305 32.3672 25.5664 32.2775 25.5843C32.2655 25.6262 32.2236 25.6592 32.1518 25.6831C32.0859 25.7011 32.0051 25.6921 31.9093 25.6562C31.8974 25.6502 31.8136 25.6532 31.6579 25.6651C31.5083 25.6711 31.3227 25.6831 31.1012 25.7011C30.8797 25.719 30.6583 25.74 30.4368 25.7639C30.2213 25.7819 30.0387 25.7998 29.8891 25.8178C29.8711 25.8597 29.8502 25.9016 29.8262 25.9435C29.8083 25.9854 29.7903 26.0273 29.7724 26.0692C29.7305 26.159 29.6886 26.2488 29.6467 26.3386C29.6107 26.4224 29.5718 26.5092 29.5299 26.5989C29.488 26.6887 29.4461 26.7785 29.4042 26.8683C29.3683 26.9521 29.3324 27.0359 29.2965 27.1197C29.2785 27.1497 29.2606 27.1826 29.2426 27.2185C29.2246 27.2544 29.2067 27.2873 29.1887 27.3173C29.2426 27.3113 29.2935 27.3053 29.3414 27.2993C29.3952 27.2933 29.4491 27.2873 29.503 27.2813C29.5868 27.2694 29.6826 27.2754 29.7903 27.2993C29.8981 27.3173 30.0058 27.3442 30.1136 27.3801C30.2213 27.41 30.3201 27.446 30.4099 27.4879C30.4996 27.5238 30.5685 27.5567 30.6164 27.5866C30.754 27.6704 30.8768 27.7602 30.9845 27.856C31.0982 27.9458 31.194 28.0625 31.2718 28.2062C31.3257 28.3259 31.3766 28.4576 31.4245 28.6012C31.4724 28.7389 31.4903 28.8886 31.4783 29.0502C31.4783 29.0741 31.4694 29.137 31.4514 29.2387C31.4394 29.3345 31.4185 29.4363 31.3886 29.544C31.3646 29.6458 31.3347 29.7266 31.2988 29.7864C31.2389 29.8942 31.1671 30.0019 31.0833 30.1097C31.0055 30.2174 30.9217 30.3222 30.8319 30.4239C30.7241 30.5556 30.6014 30.6664 30.4637 30.7562C30.3261 30.84 30.1914 30.9118 30.0597 30.9717C29.94 31.0315 29.8472 31.0764 29.7813 31.1063C29.7155 31.1363 29.6556 31.1602 29.6018 31.1782C29.5539 31.1901 29.485 31.2051 29.3952 31.2231C29.3593 31.229 29.3234 31.238 29.2875 31.25C29.2576 31.256 29.2246 31.262 29.1887 31.268C29.1528 31.2739 29.1169 31.2829 29.081 31.2949C28.9852 31.3488 28.8894 31.3787 28.7937 31.3847C28.6979 31.3967 28.6081 31.4026 28.5243 31.4026C28.4764 31.4026 28.4285 31.3996 28.3806 31.3937C28.3387 31.3937 28.2938 31.3967 28.2459 31.4026ZM28.1472 30.6394C28.243 30.6335 28.3357 30.6335 28.4255 30.6394C28.5153 30.6394 28.6021 30.6275 28.6859 30.6035C28.9852 30.5197 29.2576 30.4329 29.503 30.3431C29.7544 30.2533 29.9789 30.0977 30.1764 29.8762C30.3201 29.7086 30.4278 29.556 30.4996 29.4183C30.5715 29.2806 30.6253 29.119 30.6613 28.9335C30.6792 28.8676 30.6792 28.7988 30.6613 28.7269C30.6433 28.6551 30.6224 28.5593 30.5984 28.4396C30.5625 28.3558 30.5296 28.3019 30.4996 28.278C30.4697 28.2481 30.4338 28.2271 30.3919 28.2151C30.35 28.2032 30.2961 28.1792 30.2303 28.1433C30.1704 28.0954 30.0836 28.0595 29.9699 28.0356C29.8562 28.0116 29.7484 27.9937 29.6467 27.9817C29.5928 27.9697 29.5359 27.9607 29.4761 27.9548C29.4222 27.9488 29.3683 27.9428 29.3144 27.9368C29.2606 27.9248 29.2037 27.9158 29.1438 27.9099C29.09 27.8979 29.0361 27.8889 28.9822 27.8829C28.9762 27.9069 28.9493 27.9697 28.9014 28.0715C28.8595 28.1732 28.8116 28.29 28.7577 28.4217C28.7099 28.5474 28.668 28.6611 28.632 28.7629C28.5722 28.9364 28.5153 29.113 28.4614 29.2926C28.4076 29.4662 28.3597 29.6398 28.3178 29.8134C28.2998 29.9032 28.2789 30.0019 28.2549 30.1097C28.237 30.2114 28.216 30.3102 28.1921 30.406C28.1741 30.4958 28.1592 30.5736 28.1472 30.6394ZM32.1726 31.0614C32.1486 31.0136 32.0948 30.9657 32.011 30.9178C31.9332 30.8699 31.8942 30.834 31.8942 30.81C31.8942 30.7861 31.8793 30.7502 31.8493 30.7023C31.8254 30.6484 31.8015 30.6095 31.7775 30.5856C31.7476 30.5496 31.7566 30.4629 31.8045 30.3252C31.8523 30.1815 31.9242 30.0079 32.0199 29.8044C32.1157 29.6009 32.2205 29.3944 32.3342 29.1849C32.3821 29.137 32.43 29.0741 32.4779 28.9963C32.5258 28.9185 32.5617 28.8676 32.5856 28.8437C32.5856 28.8197 32.5946 28.7988 32.6126 28.7808C32.6305 28.7569 32.6515 28.7449 32.6754 28.7449L32.7472 28.6012C32.7592 28.5773 32.7951 28.5294 32.855 28.4576C32.9208 28.3857 32.9986 28.3079 33.0884 28.2241C33.1782 28.1343 33.268 28.0505 33.3578 27.9727C33.4536 27.8949 33.5314 27.838 33.5912 27.8021C33.717 27.7183 33.8457 27.6794 33.9773 27.6854C34.115 27.6914 34.2317 27.7333 34.3275 27.8111C34.3455 27.8291 34.3844 27.865 34.4442 27.9188C34.5101 27.9727 34.5819 28.0326 34.6597 28.0984C34.7435 28.1643 34.8154 28.2241 34.8752 28.278L35.2074 28.5743L35.0548 29.0232C34.977 29.2627 34.956 29.4722 34.992 29.6518C35.0279 29.8313 35.0847 29.987 35.1625 30.1187C35.1925 30.1845 35.2314 30.2354 35.2793 30.2713C35.3331 30.3072 35.402 30.3312 35.4858 30.3431C35.5337 30.3491 35.5786 30.3671 35.6205 30.397C35.6624 30.4269 35.6833 30.4748 35.6833 30.5407C35.6833 30.6843 35.6564 30.7891 35.6025 30.8549C35.5546 30.9148 35.5008 30.9507 35.4409 30.9627C35.2434 30.9866 35.0548 30.9657 34.8752 30.8998C34.6956 30.834 34.534 30.6634 34.3904 30.388C34.3664 30.3521 34.3335 30.2863 34.2916 30.1905C34.2557 30.0887 34.2347 30.0229 34.2287 29.993C34.2048 30.0229 34.1719 30.0618 34.13 30.1097C34.0941 30.1516 34.0581 30.1905 34.0222 30.2264C33.5972 30.6574 33.2321 30.9387 32.9268 31.0704C32.6275 31.1961 32.3761 31.1931 32.1726 31.0614ZM32.6664 30.3162C32.7083 30.3222 32.7742 30.3012 32.864 30.2533C32.9537 30.1995 33.0735 30.1127 33.2231 29.993C33.4266 29.8194 33.5942 29.6757 33.7259 29.562C33.8576 29.4482 33.9863 29.3016 34.112 29.122L34.3096 28.7988C34.2497 28.6611 34.1958 28.5713 34.1479 28.5294C34.1001 28.4875 34.0522 28.4666 34.0043 28.4666C33.9265 28.4666 33.8337 28.5174 33.7259 28.6192C33.6182 28.715 33.4955 28.8586 33.3578 29.0502C33.2261 29.2357 33.0765 29.4692 32.9089 29.7505C32.831 29.8822 32.7712 30.0109 32.7293 30.1366C32.6874 30.2563 32.6664 30.3162 32.6664 30.3162ZM38.1641 31.3039C38.1222 31.3278 38.0653 31.3188 37.9935 31.2769C37.9276 31.235 37.8618 31.1722 37.796 31.0884C37.7541 31.0165 37.7211 30.9447 37.6972 30.8729C37.6792 30.7951 37.6702 30.6813 37.6702 30.5317C37.6762 30.412 37.6762 30.3312 37.6702 30.2893C37.6702 30.2414 37.6433 30.2384 37.5894 30.2803C37.5416 30.3162 37.4428 30.406 37.2931 30.5496C37.1435 30.6993 36.9998 30.828 36.8622 30.9357C36.7305 31.0375 36.6227 31.0854 36.5389 31.0794C36.497 31.0794 36.4401 31.0525 36.3683 30.9986C36.2965 30.9447 36.2276 30.8789 36.1618 30.8011C36.096 30.7173 36.0481 30.6394 36.0181 30.5676C35.9822 30.4239 35.9792 30.2384 36.0092 30.0109C36.0451 29.7835 36.1019 29.547 36.1798 29.3016C36.2576 29.0502 36.3444 28.8167 36.4401 28.6012C36.5419 28.3798 36.6407 28.2032 36.7364 28.0715C36.8382 27.9338 36.925 27.868 36.9968 27.8739C37.0986 27.8859 37.1854 27.9368 37.2572 28.0266C37.335 28.1104 37.3949 28.2032 37.4368 28.3049C37.4607 28.3468 37.4697 28.3828 37.4637 28.4127C37.4637 28.4426 37.4398 28.4785 37.3919 28.5204C37.338 28.5923 37.2722 28.697 37.1944 28.8347C37.1225 28.9664 37.0477 29.11 36.9699 29.2657C36.8981 29.4213 36.8322 29.571 36.7724 29.7146C36.7185 29.8523 36.6796 29.966 36.6556 30.0558C36.6317 30.1456 36.6317 30.1905 36.6556 30.1905C36.7394 30.1905 36.8173 30.1695 36.8891 30.1276C36.9609 30.0798 37.0507 30.0049 37.1585 29.9032C37.2842 29.7775 37.3949 29.6518 37.4907 29.5261C37.5864 29.3944 37.6852 29.2447 37.787 29.0771C37.8648 28.9574 37.9456 28.8257 38.0294 28.682C38.1192 28.5384 38.1761 28.4366 38.2 28.3768C38.2838 28.2211 38.3467 28.1044 38.3886 28.0266C38.4305 27.9488 38.4813 27.9009 38.5412 27.8829C38.5711 27.8829 38.613 27.8829 38.6669 27.8829C38.7208 27.8829 38.7477 27.8829 38.7477 27.8829C38.7836 27.8889 38.8255 27.9158 38.8734 27.9637C38.9213 27.9877 38.9692 28.0206 39.0171 28.0625C39.071 28.1044 39.0979 28.1403 39.0979 28.1703C39.0739 28.2301 39.035 28.3199 38.9812 28.4396C38.9333 28.5533 38.8974 28.6372 38.8734 28.691C38.7597 28.9484 38.6489 29.2028 38.5412 29.4542C38.4394 29.6996 38.3646 29.9511 38.3167 30.2085C38.3048 30.2923 38.3018 30.391 38.3077 30.5048C38.3197 30.6125 38.3377 30.6903 38.3616 30.7382C38.3796 30.7741 38.4005 30.816 38.4245 30.8639C38.4544 30.9058 38.4873 30.9417 38.5232 30.9717C38.5771 31.0076 38.5741 31.0525 38.5143 31.1063C38.4604 31.1602 38.3915 31.2081 38.3077 31.25C38.2299 31.2859 38.182 31.3039 38.1641 31.3039ZM38.0653 27.3352C37.8558 27.3412 37.6882 27.2843 37.5625 27.1646C37.4368 27.0449 37.3231 26.8384 37.2213 26.5451C37.2033 26.4792 37.2004 26.4194 37.2123 26.3655C37.2243 26.3056 37.2393 26.2607 37.2572 26.2308C37.2991 26.1829 37.347 26.156 37.4009 26.15C37.4607 26.138 37.5026 26.138 37.5266 26.15C37.6104 26.1799 37.6852 26.2218 37.7511 26.2757C37.8169 26.3236 37.8468 26.4074 37.8408 26.5271C37.8528 26.557 37.8618 26.587 37.8678 26.6169C37.8798 26.6409 37.8887 26.6588 37.8947 26.6708C37.9127 26.7127 37.9396 26.7366 37.9755 26.7426C38.0114 26.7426 38.0384 26.7396 38.0563 26.7336C38.1761 26.6857 38.2808 26.6379 38.3706 26.59C38.4664 26.5361 38.5532 26.4703 38.631 26.3924C38.6968 26.3266 38.7567 26.2727 38.8106 26.2308C38.8644 26.1829 38.9213 26.1291 38.9812 26.0692L38.9901 26.0602C39.05 26.0123 39.1188 26.0004 39.1967 26.0243C39.2745 26.0423 39.3164 26.0662 39.3224 26.0961C39.3523 26.1261 39.3702 26.1769 39.3762 26.2488C39.3882 26.3146 39.3942 26.3715 39.3942 26.4194L39.3852 26.4553C39.3613 26.4972 39.3373 26.5541 39.3134 26.6259C39.2894 26.6917 39.2266 26.7606 39.1248 26.8324C39.0171 26.9282 38.9093 27.006 38.8016 27.0659C38.6938 27.1257 38.5711 27.1945 38.4335 27.2724C38.3915 27.2963 38.3407 27.3143 38.2808 27.3262C38.221 27.3322 38.1491 27.3352 38.0653 27.3352ZM41.9698 31.2231C41.868 31.1871 41.7752 31.1333 41.6914 31.0614C41.6076 30.9896 41.5298 30.9148 41.458 30.837C41.4341 30.807 41.3981 30.7442 41.3502 30.6484C41.3083 30.5467 41.2575 30.4329 41.1976 30.3072C41.1437 30.1755 41.0869 30.0438 41.027 29.9121C40.9731 29.7805 40.9223 29.6637 40.8744 29.562C40.8444 29.6398 40.8175 29.7176 40.7936 29.7954C40.7756 29.8673 40.7666 29.9391 40.7666 30.0109C40.7127 30.1067 40.6649 30.2264 40.623 30.3701C40.587 30.5077 40.5601 30.6005 40.5422 30.6484C40.5242 30.7262 40.4883 30.8011 40.4344 30.8729C40.3865 30.9387 40.3297 30.9956 40.2638 31.0435C40.1381 31.0495 40.0453 31.0405 39.9855 31.0165C39.9316 30.9866 39.8628 30.9208 39.7789 30.819C39.7311 30.7173 39.7071 30.6245 39.7071 30.5407C39.7131 30.4509 39.7281 30.3701 39.752 30.2982C39.764 30.2444 39.7969 30.1396 39.8508 29.984C39.9106 29.8224 39.9765 29.6488 40.0483 29.4632C40.1201 29.2717 40.18 29.1041 40.2279 28.9604C40.2818 28.8107 40.3117 28.7239 40.3177 28.7C40.3596 28.5623 40.4254 28.4276 40.5152 28.296C40.605 28.1583 40.6649 28.0146 40.6948 27.865C40.7187 27.7572 40.7696 27.6794 40.8474 27.6315C40.9252 27.5776 41.0091 27.5567 41.0988 27.5687C41.1886 27.5747 41.2605 27.6195 41.3143 27.7033C41.3383 27.7093 41.3592 27.7183 41.3772 27.7303C41.4011 27.7363 41.4221 27.7542 41.44 27.7842C41.4999 27.85 41.5358 27.9308 41.5478 28.0266C41.5657 28.1224 41.5478 28.2151 41.4939 28.3049C41.4281 28.4247 41.3712 28.5234 41.3233 28.6012C41.2814 28.6791 41.2395 28.7539 41.1976 28.8257C41.1617 28.8975 41.1228 28.9843 41.0809 29.0861C41.1407 29.0741 41.1946 29.0651 41.2425 29.0592C41.2904 29.0472 41.3323 29.0322 41.3682 29.0143C41.4101 28.9903 41.452 28.9544 41.4939 28.9065C41.5298 28.8706 41.5927 28.8107 41.6825 28.7269C41.7723 28.6372 41.868 28.5444 41.9698 28.4486C42.0775 28.3468 42.1673 28.26 42.2392 28.1882C42.317 28.1104 42.3589 28.0685 42.3649 28.0625C42.4068 28.0086 42.4517 27.9518 42.4995 27.8919C42.5534 27.8261 42.6223 27.7812 42.7061 27.7572C42.8138 27.7632 42.9006 27.7782 42.9664 27.8021C43.0383 27.8261 43.0862 27.868 43.1101 27.9278C43.1819 27.9997 43.1999 28.1014 43.164 28.2331C43.134 28.3648 43.0802 28.4636 43.0024 28.5294C42.9006 28.6072 42.7719 28.709 42.6163 28.8347C42.4666 28.9544 42.308 29.0831 42.1404 29.2208C41.9728 29.3525 41.8052 29.4782 41.6376 29.5979C41.7034 29.7116 41.7633 29.8224 41.8171 29.9301C41.871 30.0319 41.9189 30.1187 41.9608 30.1905C42.0267 30.2863 42.0745 30.3611 42.1045 30.415C42.1344 30.4629 42.2242 30.4868 42.3738 30.4868C42.4816 30.5347 42.5504 30.5826 42.5804 30.6305C42.6103 30.6783 42.6252 30.7262 42.6252 30.7741C42.6252 30.816 42.6282 30.8609 42.6342 30.9088C42.6223 30.9687 42.5893 31.0345 42.5355 31.1063C42.4876 31.1722 42.4157 31.2201 42.32 31.25C42.2242 31.2859 42.1075 31.2769 41.9698 31.2231ZM43.5365 31.0614C43.5125 31.0136 43.4586 30.9657 43.3748 30.9178C43.297 30.8699 43.2581 30.834 43.2581 30.81C43.2581 30.7861 43.2432 30.7502 43.2132 30.7023C43.1893 30.6484 43.1653 30.6095 43.1414 30.5856C43.1115 30.5496 43.1204 30.4629 43.1683 30.3252C43.2162 30.1815 43.288 30.0079 43.3838 29.8044C43.4796 29.6009 43.5843 29.3944 43.6981 29.1849C43.746 29.137 43.7939 29.0741 43.8417 28.9963C43.8896 28.9185 43.9255 28.8676 43.9495 28.8437C43.9495 28.8197 43.9585 28.7988 43.9764 28.7808C43.9944 28.7569 44.0153 28.7449 44.0393 28.7449L44.1111 28.6012C44.1231 28.5773 44.159 28.5294 44.2189 28.4576C44.2847 28.3857 44.3625 28.3079 44.4523 28.2241C44.5421 28.1343 44.6319 28.0505 44.7217 27.9727C44.8174 27.8949 44.8953 27.838 44.9551 27.8021C45.0808 27.7183 45.2095 27.6794 45.3412 27.6854C45.4789 27.6914 45.5956 27.7333 45.6914 27.8111C45.7093 27.8291 45.7483 27.865 45.8081 27.9188C45.874 27.9727 45.9458 28.0326 46.0236 28.0984C46.1074 28.1643 46.1792 28.2241 46.2391 28.278L46.5713 28.5743L46.4187 29.0232C46.3409 29.2627 46.3199 29.4722 46.3558 29.6518C46.3917 29.8313 46.4486 29.987 46.5264 30.1187C46.5564 30.1845 46.5953 30.2354 46.6431 30.2713C46.697 30.3072 46.7659 30.3312 46.8497 30.3431C46.8975 30.3491 46.9424 30.3671 46.9843 30.397C47.0262 30.4269 47.0472 30.4748 47.0472 30.5407C47.0472 30.6843 47.0203 30.7891 46.9664 30.8549C46.9185 30.9148 46.8646 30.9507 46.8048 30.9627C46.6072 30.9866 46.4187 30.9657 46.2391 30.8998C46.0595 30.834 45.8979 30.6634 45.7542 30.388C45.7303 30.3521 45.6974 30.2863 45.6555 30.1905C45.6196 30.0887 45.5986 30.0229 45.5926 29.993C45.5687 30.0229 45.5358 30.0618 45.4939 30.1097C45.4579 30.1516 45.422 30.1905 45.3861 30.2264C44.9611 30.6574 44.596 30.9387 44.2907 31.0704C43.9914 31.1961 43.74 31.1931 43.5365 31.0614ZM44.0303 30.3162C44.0722 30.3222 44.138 30.3012 44.2278 30.2533C44.3176 30.1995 44.4373 30.1127 44.587 29.993C44.7905 29.8194 44.9581 29.6757 45.0898 29.562C45.2215 29.4482 45.3502 29.3016 45.4759 29.122L45.6734 28.7988C45.6136 28.6611 45.5597 28.5713 45.5118 28.5294C45.4639 28.4875 45.416 28.4666 45.3681 28.4666C45.2903 28.4666 45.1976 28.5174 45.0898 28.6192C44.9821 28.715 44.8593 28.8586 44.7217 29.0502C44.59 29.2357 44.4403 29.4692 44.2727 29.7505C44.1949 29.8822 44.1351 30.0109 44.0932 30.1366C44.0512 30.2563 44.0303 30.3162 44.0303 30.3162ZM47.7146 31.241C47.6547 31.2171 47.5979 31.1991 47.544 31.1871C47.4901 31.1752 47.4332 31.1602 47.3734 31.1423C47.3195 31.0884 47.2716 31.0315 47.2297 30.9717C47.1938 30.9058 47.1699 30.837 47.1579 30.7651C47.1339 30.6873 47.1339 30.6275 47.1579 30.5856C47.1878 30.5377 47.2088 30.4778 47.2207 30.406C47.2626 30.406 47.3016 30.406 47.3375 30.406C47.3794 30.406 47.4213 30.406 47.4632 30.406C47.547 30.3401 47.6308 30.2563 47.7146 30.1546C47.8044 30.0528 47.8882 29.9451 47.966 29.8313C48.0318 29.7296 48.0917 29.6278 48.1456 29.5261C48.2054 29.4243 48.2473 29.3285 48.2713 29.2387C48.2892 29.1789 48.3012 29.122 48.3072 29.0681C48.3192 29.0143 48.3371 28.9604 48.3611 28.9065C48.379 28.8646 48.394 28.8227 48.406 28.7808C48.4239 28.7389 48.4419 28.697 48.4598 28.6551C48.388 28.6431 48.3281 28.6252 48.2802 28.6012C48.2383 28.5773 48.1964 28.5474 48.1545 28.5114C48.1186 28.4695 48.0737 28.4247 48.0199 28.3768C48.0139 28.275 48.0199 28.1852 48.0378 28.1074C48.0618 28.0296 48.1156 27.9697 48.1994 27.9278C48.2234 27.9158 48.2473 27.9069 48.2713 27.9009C48.3012 27.8889 48.3311 27.8799 48.3611 27.8739C48.4508 27.832 48.5646 27.8141 48.7023 27.8201C48.8399 27.8201 48.9716 27.832 49.0973 27.856C49.1332 27.862 49.1692 27.868 49.2051 27.8739C49.241 27.8799 49.2739 27.8889 49.3038 27.9009C49.3577 27.9129 49.4086 27.9338 49.4565 27.9637C49.5104 27.9937 49.5642 28.0176 49.6181 28.0356C49.666 28.0475 49.7139 28.0655 49.7618 28.0894C49.8096 28.1134 49.8545 28.1403 49.8964 28.1703C50.0162 28.2481 50.1119 28.3498 50.1838 28.4755C50.2616 28.6012 50.3005 28.7329 50.3005 28.8706C50.3005 29.0681 50.2736 29.2537 50.2197 29.4273C50.1898 29.541 50.1538 29.6548 50.1119 29.7685C50.076 29.8822 50.0431 29.996 50.0132 30.1097C49.9952 30.1695 49.9773 30.2294 49.9593 30.2893C49.9413 30.3431 49.9264 30.4 49.9144 30.4599C49.8905 30.5556 49.8725 30.6544 49.8605 30.7562C49.8486 30.8519 49.8396 30.9537 49.8336 31.0614C49.7917 31.0734 49.7468 31.0884 49.6989 31.1063C49.657 31.1183 49.6121 31.1303 49.5642 31.1423C49.4864 31.1183 49.3996 31.0854 49.3038 31.0435C49.214 31.0016 49.1482 30.9417 49.1063 30.8639C49.1003 30.846 49.0943 30.828 49.0883 30.81C49.0824 30.7921 49.0764 30.7741 49.0704 30.7562C49.0644 30.7382 49.0614 30.7202 49.0614 30.7023C49.0614 30.6843 49.0614 30.6664 49.0614 30.6484C49.0554 30.5227 49.0704 30.391 49.1063 30.2533C49.1482 30.1097 49.1901 29.972 49.232 29.8403C49.2619 29.7445 49.2919 29.6548 49.3218 29.571C49.3577 29.4812 49.3846 29.3974 49.4026 29.3195C49.4146 29.2657 49.4325 29.2028 49.4565 29.131C49.4804 29.0532 49.4954 28.9783 49.5014 28.9065C49.5074 28.8467 49.5014 28.7898 49.4834 28.7359C49.4475 28.706 49.4086 28.685 49.3667 28.6731C49.3248 28.6611 49.2799 28.6491 49.232 28.6372C49.232 28.6372 49.217 28.6731 49.1871 28.7449C49.1811 28.7509 49.1751 28.7599 49.1692 28.7718C49.1692 28.7838 49.1692 28.7958 49.1692 28.8077C49.1512 28.8437 49.1332 28.8856 49.1153 28.9335C49.0973 28.9754 49.0824 29.0173 49.0704 29.0592C49.0644 29.0771 49.0584 29.0951 49.0524 29.113C49.0464 29.131 49.0405 29.146 49.0345 29.1579C49.0165 29.1998 49.0015 29.2387 48.9896 29.2747C48.9836 29.3046 48.9806 29.3225 48.9806 29.3285C48.9746 29.4123 48.9567 29.4931 48.9267 29.571C48.9028 29.6428 48.8758 29.7116 48.8459 29.7775C48.816 29.8373 48.7831 29.9002 48.7471 29.966C48.7112 30.0259 48.6783 30.0887 48.6484 30.1546C48.6424 30.1785 48.6334 30.1995 48.6214 30.2174C48.6095 30.2354 48.5975 30.2563 48.5855 30.2803C48.5436 30.3521 48.4987 30.4239 48.4508 30.4958C48.403 30.5676 48.3521 30.6364 48.2982 30.7023C48.2204 30.81 48.1336 30.9088 48.0378 30.9986C47.942 31.0884 47.8343 31.1692 47.7146 31.241ZM51.7332 31.241C51.5955 31.229 51.4878 31.2201 51.4099 31.2141C51.3321 31.2081 51.2663 31.1931 51.2124 31.1692C51.1585 31.1393 51.0957 31.0914 51.0238 31.0255C50.946 30.9477 50.8892 30.8579 50.8533 30.7562C50.8173 30.6544 50.7994 30.5377 50.7994 30.406C50.7994 30.2025 50.8323 29.975 50.8981 29.7236C50.97 29.4722 51.0538 29.2208 51.1496 28.9694C51.2513 28.718 51.3441 28.4935 51.4279 28.296C51.5177 28.0924 51.5805 27.9428 51.6165 27.847C51.6165 27.7512 51.6613 27.6944 51.7511 27.6764C51.8409 27.6525 51.9367 27.6495 52.0385 27.6674C52.1462 27.6854 52.215 27.7153 52.245 27.7572C52.2809 27.7991 52.3138 27.844 52.3437 27.8919C52.3797 27.9398 52.4006 27.9967 52.4066 28.0625C52.4186 28.1523 52.4006 28.2361 52.3527 28.3139C52.3108 28.3917 52.2689 28.4546 52.227 28.5025C52.1492 28.5982 52.0684 28.7269 51.9846 28.8886C51.9008 29.0442 51.82 29.2118 51.7422 29.3914C51.6643 29.571 51.6015 29.7445 51.5536 29.9121C51.5117 30.0738 51.4878 30.2085 51.4818 30.3162C51.4818 30.4239 51.5117 30.4868 51.5716 30.5048C51.7092 30.5407 51.8559 30.5407 52.0115 30.5048C52.1672 30.4688 52.3078 30.409 52.4335 30.3252C52.5652 30.2354 52.664 30.1336 52.7298 30.0199C52.7777 29.9361 52.7987 29.8613 52.7927 29.7954C52.7927 29.7236 52.7298 29.6847 52.6041 29.6787C52.5203 29.6727 52.4305 29.6757 52.3348 29.6877C52.239 29.6996 52.1223 29.7116 51.9846 29.7236C51.9367 29.6757 51.8828 29.6129 51.823 29.535C51.7691 29.4512 51.7182 29.4004 51.6703 29.3824C51.6943 29.2268 51.7631 29.113 51.8768 29.0412C51.9966 28.9694 52.1193 28.9275 52.245 28.9155C52.3707 28.8975 52.4575 28.8916 52.5054 28.8975C52.6251 28.9155 52.7508 28.9574 52.8825 29.0232C53.0202 29.0891 53.1369 29.1729 53.2326 29.2747C53.2865 29.3345 53.3314 29.4004 53.3673 29.4722C53.4092 29.544 53.4362 29.6218 53.4481 29.7056C53.4721 29.8613 53.4661 30.0109 53.4302 30.1546C53.3943 30.2982 53.3374 30.421 53.2596 30.5227C53.1459 30.6724 52.9753 30.804 52.7478 30.9178C52.5263 31.0315 52.2869 31.1393 52.0295 31.241C51.9696 31.241 51.9217 31.235 51.8858 31.2231C51.8499 31.2111 51.799 31.2171 51.7332 31.241ZM55.0172 31.2859C54.8436 31.3158 54.67 31.3009 54.4964 31.241C54.3288 31.1812 54.1881 31.0854 54.0744 30.9537C53.9667 30.816 53.9128 30.6514 53.9128 30.4599C53.8948 30.2803 53.9098 30.0678 53.9577 29.8224C54.0116 29.571 54.0894 29.3195 54.1911 29.0681C54.2989 28.8167 54.4216 28.6042 54.5593 28.4306C54.679 28.287 54.7987 28.1553 54.9184 28.0356C55.0381 27.9158 55.1459 27.835 55.2417 27.7931C55.3255 27.7572 55.4272 27.7303 55.547 27.7123C55.6727 27.6884 55.7595 27.6764 55.8073 27.6764C55.9031 27.7004 56.0079 27.7393 56.1216 27.7931C56.2413 27.847 56.3012 27.9099 56.3012 27.9817C56.3012 27.9817 56.3072 27.9907 56.3191 28.0086C56.3371 28.0206 56.3461 28.0266 56.3461 28.0266C56.382 28.0266 56.4209 28.0715 56.4628 28.1613C56.5107 28.2451 56.5466 28.3438 56.5705 28.4576C56.5945 28.5653 56.5885 28.6521 56.5526 28.718C56.5286 28.8317 56.4808 28.9424 56.4089 29.0502C56.3431 29.1579 56.2862 29.2118 56.2383 29.2118C56.2144 29.2118 56.1904 29.2148 56.1665 29.2208C56.1485 29.2208 56.1396 29.2357 56.1396 29.2657C56.1396 29.2956 56.1066 29.3106 56.0408 29.3106C55.9809 29.3106 55.9181 29.2986 55.8522 29.2747C55.7864 29.2507 55.7445 29.2148 55.7265 29.1669C55.7265 29.137 55.7325 29.0981 55.7445 29.0502C55.7565 29.0023 55.7744 28.9215 55.7984 28.8077C55.8343 28.6401 55.8373 28.5294 55.8073 28.4755C55.7774 28.4157 55.7026 28.4097 55.5829 28.4576C55.4332 28.5414 55.3105 28.6401 55.2147 28.7539C55.119 28.8616 55.0322 29.0143 54.9543 29.2118C54.8825 29.4093 54.8017 29.6847 54.7119 30.0379C54.676 30.1755 54.67 30.2833 54.694 30.3611C54.7239 30.4389 54.7478 30.4808 54.7658 30.4868C54.8496 30.5107 54.9394 30.5167 55.0352 30.5048C55.1369 30.4868 55.2207 30.4599 55.2866 30.4239C55.3823 30.3761 55.4661 30.3252 55.538 30.2713C55.6158 30.2114 55.6996 30.1486 55.7894 30.0827C55.8193 30.0648 55.8462 30.0319 55.8702 29.984C55.8941 29.9301 55.93 29.8912 55.9779 29.8673C56.0258 29.7954 56.0857 29.7595 56.1575 29.7595C56.2353 29.7535 56.3102 29.7505 56.382 29.7505C56.4299 29.7625 56.4808 29.7924 56.5346 29.8403C56.5885 29.8882 56.6274 29.9361 56.6514 29.984C56.6813 30.0259 56.6783 30.0558 56.6424 30.0738C56.6184 30.0738 56.6035 30.0827 56.5975 30.1007C56.5975 30.1127 56.5975 30.1187 56.5975 30.1187C56.6094 30.1426 56.5825 30.1965 56.5167 30.2803C56.4568 30.3641 56.379 30.4539 56.2832 30.5496C56.1874 30.6454 56.0947 30.7292 56.0049 30.8011C55.9211 30.8669 55.8612 30.8998 55.8253 30.8998C55.7654 30.8998 55.7355 30.9178 55.7355 30.9537C55.7355 30.9657 55.6906 30.9956 55.6008 31.0435C55.517 31.0914 55.4183 31.1393 55.3045 31.1871C55.1968 31.235 55.101 31.268 55.0172 31.2859ZM57.5156 31.2769C57.4677 31.265 57.4049 31.2201 57.3271 31.1423C57.2493 31.0585 57.1774 30.9657 57.1116 30.8639C57.0517 30.7621 57.0218 30.6783 57.0218 30.6125C57.0517 30.5467 57.0906 30.4329 57.1385 30.2713C57.1864 30.1037 57.2463 29.9121 57.3181 29.6967C57.366 29.6308 57.4019 29.553 57.4258 29.4632C57.4558 29.3734 57.4827 29.2926 57.5067 29.2208C57.5545 29.125 57.6084 29.0023 57.6683 28.8526C57.7341 28.697 57.8 28.5414 57.8658 28.3857C57.9317 28.2241 57.9885 28.0894 58.0364 27.9817C58.0663 27.9278 58.0963 27.8739 58.1262 27.8201C58.1561 27.7662 58.1831 27.7123 58.207 27.6585C58.207 27.6285 58.222 27.6016 58.2519 27.5776C58.2818 27.5477 58.3207 27.5268 58.3686 27.5148C58.3986 27.5028 58.4315 27.4938 58.4674 27.4879C58.5093 27.4819 58.5512 27.4789 58.5931 27.4789C58.6769 27.4789 58.7517 27.5328 58.8176 27.6405C58.8894 27.7423 58.9253 27.835 58.9253 27.9188C58.9253 28.0445 58.9044 28.1493 58.8625 28.2331C58.8266 28.3109 58.7846 28.3798 58.7368 28.4396C58.6889 28.4935 58.644 28.5504 58.6021 28.6102C58.5662 28.6701 58.5482 28.7479 58.5482 28.8437C58.5482 28.8676 58.5692 28.8706 58.6111 28.8526C58.653 28.8287 58.7008 28.8018 58.7547 28.7718C58.8026 28.7479 58.8714 28.7 58.9612 28.6282C59.057 28.5563 59.1558 28.4845 59.2575 28.4127C59.3593 28.3349 59.4431 28.287 59.5089 28.269C59.6406 28.1792 59.7454 28.1134 59.8232 28.0715C59.901 28.0236 59.9579 27.9997 59.9938 27.9997C60.0596 27.9997 60.1285 28.0416 60.2003 28.1254C60.2721 28.2032 60.3081 28.278 60.3081 28.3498C60.3081 28.4097 60.2841 28.4695 60.2362 28.5294C60.1943 28.5833 60.1345 28.6431 60.0567 28.709C59.9309 28.8107 59.7843 28.9125 59.6167 29.0143C59.4491 29.11 59.2964 29.1938 59.1588 29.2657C59.0271 29.3315 58.9493 29.3794 58.9253 29.4093C58.9253 29.4153 58.9463 29.4512 58.9882 29.5171C59.0361 29.5769 59.0869 29.6458 59.1408 29.7236C59.1767 29.7894 59.2096 29.8553 59.2396 29.9211C59.2755 29.981 59.3054 30.0379 59.3294 30.0917C59.4072 30.2533 59.473 30.3791 59.5269 30.4688C59.5868 30.5526 59.6556 30.6035 59.7334 30.6215C59.8112 30.6335 59.925 30.6185 60.0746 30.5766C60.1883 30.5407 60.2751 30.5616 60.335 30.6394C60.4008 30.7173 60.4338 30.7891 60.4338 30.8549C60.4338 30.8849 60.4158 30.9178 60.3799 30.9537C60.35 30.9896 60.3111 31.0285 60.2632 31.0704C60.1674 31.1482 60.0537 31.2171 59.922 31.2769C59.7963 31.3428 59.7005 31.3757 59.6346 31.3757C59.5688 31.3757 59.497 31.3577 59.4192 31.3218C59.3413 31.2859 59.2426 31.2081 59.1229 31.0884C59.0031 30.9687 58.8445 30.7801 58.647 30.5227C58.647 30.4988 58.632 30.4599 58.6021 30.406C58.5721 30.3461 58.5422 30.2863 58.5123 30.2264C58.4883 30.1785 58.4644 30.1396 58.4405 30.1097C58.4225 30.0738 58.4105 30.0528 58.4045 30.0468C58.4045 30.0768 58.3986 30.0708 58.3866 30.0289C58.3806 29.987 58.3656 29.9421 58.3417 29.8942C58.3177 29.8403 58.2818 29.8134 58.2339 29.8134C58.21 29.8134 58.1771 29.8523 58.1352 29.9301C58.0933 30.0019 58.0484 30.0917 58.0005 30.1995C57.9706 30.2713 57.9406 30.3491 57.9107 30.4329C57.8808 30.5167 57.8568 30.6005 57.8389 30.6843C57.8269 30.7621 57.8209 30.837 57.8209 30.9088C57.8209 30.9986 57.794 31.0824 57.7401 31.1602C57.6922 31.238 57.6174 31.2769 57.5156 31.2769ZM63.4719 31.2769C63.2864 31.2111 63.1337 31.0944 63.014 30.9268C62.9003 30.7532 62.8195 30.5736 62.7716 30.388C62.7476 30.412 62.7237 30.4359 62.6997 30.4599C62.6818 30.4778 62.6578 30.5018 62.6279 30.5317C62.5381 30.6275 62.4334 30.7262 62.3136 30.828C62.1939 30.9298 62.0712 31.0165 61.9455 31.0884C61.8198 31.1542 61.6941 31.1812 61.5684 31.1692C61.4726 31.1033 61.3798 31.0405 61.2901 30.9806C61.2063 30.9148 61.1404 30.825 61.0925 30.7113C61.0925 30.7053 61.0895 30.7023 61.0835 30.7023C61.0835 30.7023 61.0835 30.6993 61.0835 30.6933C61.0357 30.5556 60.9997 30.4329 60.9758 30.3252C60.9578 30.2114 60.9638 30.0618 60.9938 29.8762C61.0297 29.6907 61.0985 29.4273 61.2003 29.0861C61.2422 28.9424 61.2871 28.7988 61.3349 28.6551C61.3828 28.5055 61.4307 28.3708 61.4786 28.2511C61.5265 28.1254 61.5714 28.0206 61.6133 27.9368C61.6552 27.853 61.6941 27.7991 61.73 27.7752C61.7599 27.7752 61.7869 27.7752 61.8108 27.7752C61.8348 27.7692 61.8587 27.7662 61.8827 27.7662C61.9365 27.7662 62.0024 27.7961 62.0802 27.856C62.1281 27.8859 62.173 27.9188 62.2149 27.9548C62.2628 27.9907 62.2927 28.0236 62.3047 28.0535C62.3406 28.1194 62.3286 28.2511 62.2688 28.4486C62.2089 28.6461 62.1371 28.8616 62.0533 29.0951C61.9754 29.3225 61.9036 29.547 61.8378 29.7685C61.7779 29.984 61.7599 30.1516 61.7839 30.2713C61.8497 30.2533 61.9096 30.2324 61.9635 30.2085C62.0233 30.1785 62.0772 30.1426 62.1251 30.1007C62.2268 30.0289 62.3196 29.9451 62.4034 29.8493C62.4872 29.7535 62.5591 29.6548 62.6189 29.553C62.6848 29.4452 62.7357 29.3465 62.7716 29.2567C62.8254 29.119 62.8733 28.9993 62.9152 28.8975C62.9571 28.7898 62.9901 28.7 63.014 28.6282C63.0379 28.5504 63.0529 28.4845 63.0589 28.4306C63.0709 28.3768 63.0768 28.3289 63.0768 28.287C63.0709 28.1792 63.0828 28.1014 63.1128 28.0535C63.1487 27.9997 63.2145 27.9458 63.3103 27.8919C63.3582 27.8919 63.4061 27.8949 63.454 27.9009C63.5018 27.9009 63.5467 27.9039 63.5886 27.9099C63.6365 27.9518 63.6844 27.9997 63.7323 28.0535C63.7862 28.1014 63.8371 28.1493 63.8849 28.1972C63.9328 28.3349 63.9268 28.4995 63.867 28.691C63.8131 28.8766 63.7533 29.0711 63.6874 29.2747C63.6216 29.4842 63.5677 29.6937 63.5258 29.9032C63.4899 30.1067 63.5198 30.2863 63.6156 30.4419C63.7054 30.4 63.7892 30.3521 63.867 30.2982C63.9448 30.2384 64.0226 30.1785 64.1004 30.1187C64.1783 30.0588 64.2561 30.0049 64.3339 29.957C64.4297 30.0169 64.5045 30.1217 64.5584 30.2713C64.6122 30.421 64.6392 30.5496 64.6392 30.6574C64.6212 30.6813 64.6003 30.7023 64.5763 30.7202C64.5584 30.7382 64.5374 30.7562 64.5135 30.7741C64.4656 30.8639 64.3788 30.9567 64.2531 31.0525C64.1274 31.1423 63.9927 31.2111 63.849 31.259C63.7054 31.3069 63.5797 31.3129 63.4719 31.2769ZM67.3892 31.3039C67.3473 31.3278 67.2905 31.3188 67.2186 31.2769C67.1528 31.235 67.0869 31.1722 67.0211 31.0884C66.9792 31.0165 66.9463 30.9447 66.9223 30.8729C66.9044 30.7951 66.8954 30.6813 66.8954 30.5317C66.9014 30.412 66.9014 30.3312 66.8954 30.2893C66.8954 30.2414 66.8685 30.2384 66.8146 30.2803C66.7667 30.3162 66.6679 30.406 66.5183 30.5496C66.3686 30.6993 66.225 30.828 66.0873 30.9357C65.9556 31.0375 65.8479 31.0854 65.7641 31.0794C65.7222 31.0794 65.6653 31.0525 65.5935 30.9986C65.5216 30.9447 65.4528 30.8789 65.3869 30.8011C65.3211 30.7173 65.2732 30.6394 65.2433 30.5676C65.2074 30.4239 65.2044 30.2384 65.2343 30.0109C65.2702 29.7835 65.3271 29.547 65.4049 29.3016C65.4827 29.0502 65.5695 28.8167 65.6653 28.6012C65.767 28.3798 65.8658 28.2032 65.9616 28.0715C66.0633 27.9338 66.1501 27.868 66.222 27.8739C66.3237 27.8859 66.4105 27.9368 66.4824 28.0266C66.5602 28.1104 66.62 28.2032 66.6619 28.3049C66.6859 28.3468 66.6949 28.3828 66.6889 28.4127C66.6889 28.4426 66.6649 28.4785 66.617 28.5204C66.5632 28.5923 66.4973 28.697 66.4195 28.8347C66.3477 28.9664 66.2729 29.11 66.195 29.2657C66.1232 29.4213 66.0574 29.571 65.9975 29.7146C65.9436 29.8523 65.9047 29.966 65.8808 30.0558C65.8568 30.1456 65.8568 30.1905 65.8808 30.1905C65.9646 30.1905 66.0424 30.1695 66.1142 30.1276C66.1861 30.0798 66.2758 30.0049 66.3836 29.9032C66.5093 29.7775 66.62 29.6518 66.7158 29.5261C66.8116 29.3944 66.9104 29.2447 67.0121 29.0771C67.0899 28.9574 67.1707 28.8257 67.2545 28.682C67.3443 28.5384 67.4012 28.4366 67.4251 28.3768C67.5089 28.2211 67.5718 28.1044 67.6137 28.0266C67.6556 27.9488 67.7065 27.9009 67.7663 27.8829C67.7963 27.8829 67.8382 27.8829 67.892 27.8829C67.9459 27.8829 67.9729 27.8829 67.9729 27.8829C68.0088 27.8889 68.0507 27.9158 68.0986 27.9637C68.1464 27.9877 68.1943 28.0206 68.2422 28.0625C68.2961 28.1044 68.323 28.1403 68.323 28.1703C68.2991 28.2301 68.2602 28.3199 68.2063 28.4396C68.1584 28.5533 68.1225 28.6372 68.0986 28.691C67.9848 28.9484 67.8741 29.2028 67.7663 29.4542C67.6646 29.6996 67.5898 29.9511 67.5419 30.2085C67.5299 30.2923 67.5269 30.391 67.5329 30.5048C67.5449 30.6125 67.5628 30.6903 67.5868 30.7382C67.6047 30.7741 67.6257 30.816 67.6496 30.8639C67.6795 30.9058 67.7125 30.9417 67.7484 30.9717C67.8023 31.0076 67.7993 31.0525 67.7394 31.1063C67.6855 31.1602 67.6167 31.2081 67.5329 31.25C67.4551 31.2859 67.4072 31.3039 67.3892 31.3039ZM67.2905 27.3352C67.081 27.3412 66.9133 27.2843 66.7876 27.1646C66.6619 27.0449 66.5482 26.8384 66.4464 26.5451C66.4285 26.4792 66.4255 26.4194 66.4375 26.3655C66.4494 26.3056 66.4644 26.2607 66.4824 26.2308C66.5243 26.1829 66.5722 26.156 66.626 26.15C66.6859 26.138 66.7278 26.138 66.7517 26.15C66.8355 26.1799 66.9104 26.2218 66.9762 26.2757C67.042 26.3236 67.072 26.4074 67.066 26.5271C67.078 26.557 67.0869 26.587 67.0929 26.6169C67.1049 26.6409 67.1139 26.6588 67.1199 26.6708C67.1378 26.7127 67.1648 26.7366 67.2007 26.7426C67.2366 26.7426 67.2635 26.7396 67.2815 26.7336C67.4012 26.6857 67.506 26.6379 67.5957 26.59C67.6915 26.5361 67.7783 26.4703 67.8561 26.3924C67.922 26.3266 67.9818 26.2727 68.0357 26.2308C68.0896 26.1829 68.1464 26.1291 68.2063 26.0692L68.2153 26.0602C68.2751 26.0123 68.344 26.0004 68.4218 26.0243C68.4996 26.0423 68.5415 26.0662 68.5475 26.0961C68.5774 26.1261 68.5954 26.1769 68.6014 26.2488C68.6133 26.3146 68.6193 26.3715 68.6193 26.4194L68.6104 26.4553C68.5864 26.4972 68.5625 26.5541 68.5385 26.6259C68.5146 26.6917 68.4517 26.7606 68.35 26.8324C68.2422 26.9282 68.1345 27.006 68.0267 27.0659C67.919 27.1257 67.7963 27.1945 67.6586 27.2724C67.6167 27.2963 67.5658 27.3143 67.506 27.3262C67.4461 27.3322 67.3743 27.3352 67.2905 27.3352ZM71.5827 30.9537C71.469 30.9058 71.3762 30.834 71.3044 30.7382C71.2385 30.6364 71.2056 30.5137 71.2056 30.3701C71.2056 30.3102 71.2176 30.2085 71.2415 30.0648C71.2655 29.9211 71.2984 29.7595 71.3403 29.5799C71.3822 29.4004 71.4241 29.2327 71.466 29.0771C71.5258 28.9694 71.5647 28.8616 71.5827 28.7539C71.6066 28.6461 71.6186 28.5803 71.6186 28.5563C71.6306 28.4845 71.6515 28.3887 71.6815 28.269C71.7114 28.1493 71.7413 28.0416 71.7713 27.9458C71.8072 27.844 71.8311 27.7872 71.8431 27.7752C71.873 27.7453 71.9239 27.7273 71.9957 27.7213C72.0676 27.7153 72.1394 27.7243 72.2112 27.7482C72.2831 27.7662 72.3309 27.8051 72.3549 27.865C72.4207 27.9368 72.4566 28.0445 72.4626 28.1882C72.4746 28.3319 72.4477 28.4995 72.3818 28.691C72.328 28.8107 72.2741 28.9514 72.2202 29.113C72.1663 29.2747 72.1184 29.4243 72.0765 29.562C72.0406 29.6937 72.0197 29.7835 72.0137 29.8313L71.6905 29.8224C71.7922 29.7266 71.888 29.6278 71.9778 29.5261C72.0676 29.4183 72.1334 29.3345 72.1753 29.2747C72.2771 29.137 72.3639 29.0232 72.4357 28.9335C72.5135 28.8377 72.6123 28.7239 72.732 28.5923C72.8517 28.4546 72.9804 28.3588 73.1181 28.3049C73.2558 28.2451 73.3575 28.2151 73.4234 28.2151C73.5551 28.2391 73.6718 28.3079 73.7735 28.4217C73.8813 28.5294 73.9471 28.691 73.9711 28.9065C73.9711 28.9903 73.9621 29.0891 73.9441 29.2028C73.9322 29.3166 73.9262 29.3734 73.9262 29.3734C73.9262 29.3734 73.9741 29.3136 74.0699 29.1938C74.1716 29.0741 74.3063 28.9394 74.4739 28.7898C74.5876 28.706 74.6984 28.6581 74.8061 28.6461C74.9139 28.6282 75.0096 28.6641 75.0934 28.7539C75.2491 28.8377 75.3628 28.9843 75.4346 29.1938C75.5065 29.4033 75.5304 29.6398 75.5065 29.9032C75.4885 30.0588 75.4885 30.1845 75.5065 30.2803C75.5304 30.3701 75.5544 30.4509 75.5783 30.5227C75.6561 30.6305 75.6681 30.7262 75.6142 30.81C75.5603 30.8879 75.5125 30.9268 75.4706 30.9268C75.4107 30.9268 75.3209 30.9148 75.2012 30.8908C75.0815 30.8669 74.9707 30.825 74.869 30.7651C74.7732 30.7053 74.7253 30.6245 74.7253 30.5227V29.966C74.7253 29.8343 74.7193 29.7386 74.7074 29.6787C74.7014 29.6129 74.6864 29.571 74.6625 29.553C74.5966 29.5171 74.5158 29.544 74.42 29.6338C74.3243 29.7236 74.2195 29.8523 74.1058 30.0199C73.998 30.1815 73.8813 30.3641 73.7556 30.5676C73.6419 30.7532 73.5491 30.8669 73.4772 30.9088C73.4054 30.9447 73.3366 30.9417 73.2707 30.8998C73.139 30.8579 73.0552 30.8011 73.0193 30.7292C72.9894 30.6514 72.9864 30.5646 73.0103 30.4688C73.0403 30.3671 73.0762 30.2354 73.1181 30.0738C73.166 29.9121 73.2109 29.7565 73.2528 29.6069C73.2947 29.4512 73.3216 29.3375 73.3336 29.2657C73.3096 29.2178 73.2677 29.2028 73.2079 29.2208C73.154 29.2327 73.0971 29.2597 73.0373 29.3016C72.9655 29.3495 72.8876 29.4004 72.8038 29.4542C72.726 29.5081 72.6332 29.6218 72.5255 29.7954C72.4537 29.9092 72.3728 30.0349 72.2831 30.1725C72.1933 30.3042 72.1095 30.4239 72.0316 30.5317C71.9598 30.6394 71.9 30.7143 71.8521 30.7562C71.8102 30.8639 71.7713 30.9327 71.7353 30.9627C71.6994 30.9866 71.6486 30.9836 71.5827 30.9537ZM76.7868 31.1871C76.709 31.1871 76.6461 31.1722 76.5982 31.1423C76.5563 31.1123 76.5025 31.0704 76.4366 31.0165C76.3229 30.8968 76.2301 30.7681 76.1583 30.6305C76.0924 30.4928 76.0685 30.3731 76.0864 30.2713C76.1044 30.2234 76.1104 30.1785 76.1044 30.1366C76.1044 30.0887 76.1044 30.0648 76.1044 30.0648C76.0745 30.0349 76.0655 30.0169 76.0775 30.0109C76.0894 29.9989 76.1014 29.981 76.1134 29.957C76.1493 29.957 76.1613 29.9241 76.1493 29.8583C76.1373 29.8104 76.1553 29.7086 76.2032 29.553C76.257 29.3914 76.3289 29.2387 76.4187 29.0951C76.4546 29.0352 76.5085 28.9574 76.5803 28.8616C76.6521 28.7599 76.7299 28.6611 76.8137 28.5653C76.9035 28.4636 76.9843 28.3828 77.0562 28.3229C77.2058 28.1972 77.3435 28.0954 77.4692 28.0176C77.6009 27.9398 77.7326 27.8859 77.8643 27.856C77.996 27.8261 78.1306 27.8111 78.2683 27.8111C78.412 27.8111 78.5287 27.859 78.6185 27.9548C78.7562 28.0146 78.8519 28.0954 78.9058 28.1972C78.9657 28.2989 79.0046 28.4306 79.0225 28.5923C79.0405 28.7718 79.0225 28.9933 78.9687 29.2567C78.9148 29.5141 78.7681 29.8134 78.5287 30.1546C78.3791 30.3701 78.2324 30.5377 78.0887 30.6574C77.9451 30.7771 77.7864 30.8879 77.6129 30.9896C77.4872 31.0734 77.3525 31.1243 77.2088 31.1423C77.0651 31.1602 76.9245 31.1752 76.7868 31.1871ZM77.7026 30.0917C77.8343 29.978 77.9271 29.8523 77.981 29.7146C78.0408 29.5769 78.1037 29.4153 78.1695 29.2298C78.1935 29.1938 78.2085 29.134 78.2144 29.0502C78.2264 28.9664 78.2294 28.8856 78.2234 28.8077C78.2174 28.7239 78.1965 28.6761 78.1606 28.6641C78.1067 28.6222 78.0528 28.6132 77.9989 28.6372C77.9451 28.6551 77.8762 28.694 77.7924 28.7539C77.6129 28.9035 77.4452 29.0771 77.2896 29.2747C77.14 29.4662 77.0352 29.7026 76.9754 29.984C76.9574 30.1336 76.9724 30.2474 77.0203 30.3252C77.0741 30.397 77.1579 30.418 77.2717 30.388C77.3914 30.3521 77.535 30.2533 77.7026 30.0917ZM81.8985 31.2769C81.8506 31.2769 81.8147 31.2799 81.7908 31.2859C81.7668 31.2919 81.7309 31.2859 81.683 31.268C81.6411 31.256 81.5543 31.2261 81.4226 31.1782C81.3628 31.0764 81.3269 30.9746 81.3149 30.8729C81.3089 30.7651 81.3149 30.6574 81.3328 30.5496C81.3568 30.4359 81.3897 30.3252 81.4316 30.2174C81.4735 30.1097 81.5124 30.0079 81.5483 29.9121C81.5423 29.9181 81.5334 29.9211 81.5214 29.9211C81.5094 29.9211 81.4975 29.9241 81.4855 29.9301C81.4316 29.9421 81.3777 29.9541 81.3239 29.966C81.27 29.972 81.2131 29.981 81.1533 29.993C81.0575 30.0109 80.9647 30.0289 80.8749 30.0468C80.7851 30.0588 80.6923 30.0768 80.5966 30.1007C80.5786 30.0887 80.5577 30.0768 80.5337 30.0648C80.5158 30.0528 80.4978 30.0438 80.4798 30.0379C80.4619 30.1037 80.4469 30.1755 80.435 30.2533C80.423 30.3312 80.408 30.409 80.3901 30.4868C80.3781 30.5646 80.3601 30.6424 80.3362 30.7202C80.3182 30.7921 80.2913 30.8609 80.2554 30.9268C80.1237 30.9447 80.0279 30.9507 79.9681 30.9447C79.9082 30.9387 79.8154 30.9148 79.6897 30.8729C79.6418 30.807 79.6059 30.7412 79.582 30.6754C79.564 30.6035 79.555 30.5317 79.555 30.4599C79.555 30.3162 79.585 30.1725 79.6448 30.0289C79.7047 29.8792 79.7585 29.7386 79.8064 29.6069C79.8304 29.541 79.8483 29.4812 79.8603 29.4273C79.8783 29.3674 79.8872 29.3076 79.8872 29.2477C79.8992 29.2357 79.9202 29.1968 79.9501 29.131C79.98 29.0592 80.0159 28.9754 80.0578 28.8796C80.1117 28.7479 80.1686 28.6072 80.2284 28.4576C80.2883 28.3079 80.3392 28.1732 80.3811 28.0535C80.423 27.9278 80.4469 27.844 80.4529 27.8021C80.4589 27.6585 80.5307 27.5866 80.6684 27.5866C80.7582 27.5806 80.854 27.6106 80.9557 27.6764C81.0575 27.7423 81.1353 27.8231 81.1892 27.9188C81.243 28.0146 81.2401 28.1074 81.1802 28.1972C81.1503 28.275 81.1203 28.3528 81.0904 28.4306C81.0605 28.5085 81.0305 28.5893 81.0006 28.6731C80.9707 28.7509 80.9408 28.8287 80.9108 28.9065C80.8809 28.9843 80.851 29.0622 80.821 29.14C80.8151 29.1639 80.8091 29.1849 80.8031 29.2028C80.7971 29.2208 80.7881 29.2417 80.7761 29.2657C80.8121 29.2597 80.848 29.2537 80.8839 29.2477C80.9258 29.2357 80.9617 29.2208 80.9916 29.2028C81.0515 29.2028 81.1383 29.2028 81.252 29.2028C81.3717 29.2028 81.4795 29.2028 81.5753 29.2028C81.6351 29.2327 81.683 29.2657 81.7189 29.3016C81.7728 29.1759 81.8267 29.0502 81.8805 28.9245C81.9344 28.7928 81.9823 28.6611 82.0242 28.5294C82.0721 28.3917 82.108 28.257 82.132 28.1254C82.1499 28.0416 82.1858 27.9697 82.2397 27.9099C82.2936 27.85 82.3564 27.7991 82.4283 27.7572C82.5599 27.8051 82.6767 27.853 82.7784 27.9009C82.8862 27.9488 82.955 28.0505 82.9849 28.2062C82.961 28.26 82.946 28.3169 82.9401 28.3768C82.9341 28.4366 82.9191 28.4935 82.8952 28.5474C82.8173 28.7389 82.7365 28.9364 82.6527 29.14C82.5689 29.3375 82.4911 29.538 82.4193 29.7416C82.3534 29.9391 82.2996 30.1426 82.2577 30.3521C82.2457 30.418 82.2277 30.4838 82.2038 30.5496C82.1798 30.6155 82.1559 30.6843 82.132 30.7562C82.114 30.822 82.099 30.8879 82.0871 30.9537C82.0811 31.0195 82.0631 31.0824 82.0332 31.1423C82.0033 31.1961 81.9584 31.241 81.8985 31.2769ZM84.1103 31.1871C84.0325 31.1812 83.9427 31.1692 83.841 31.1512C83.7452 31.1333 83.6614 31.0974 83.5895 31.0435C83.5177 30.9896 83.4818 30.9118 83.4818 30.81C83.4818 30.7621 83.4848 30.7173 83.4908 30.6754C83.4968 30.6335 83.5117 30.5945 83.5357 30.5586C83.5417 30.5467 83.5476 30.5377 83.5536 30.5317C83.5596 30.5257 83.5656 30.5197 83.5716 30.5137C83.5656 30.4838 83.5596 30.4539 83.5536 30.4239C83.5536 30.394 83.5566 30.3641 83.5626 30.3342C83.5925 30.2563 83.6105 30.1845 83.6165 30.1187C83.6225 30.0468 83.6374 29.972 83.6614 29.8942C83.6674 29.8822 83.6704 29.8702 83.6704 29.8583C83.6704 29.8463 83.6734 29.8373 83.6793 29.8313C83.7153 29.7056 83.7482 29.5769 83.7781 29.4452C83.808 29.3136 83.8529 29.1908 83.9128 29.0771C84.0205 28.8616 84.1193 28.6461 84.2091 28.4306C84.3049 28.2092 84.3976 27.9877 84.4874 27.7662C84.5234 27.6764 84.5653 27.6136 84.6131 27.5776C84.661 27.5417 84.7119 27.5238 84.7658 27.5238C84.8735 27.5238 84.9813 27.5747 85.089 27.6764C85.1968 27.7722 85.2806 27.871 85.3404 27.9727C85.2806 28.0864 85.2147 28.2032 85.1429 28.3229C85.0711 28.4366 85.0022 28.5533 84.9364 28.6731C84.8705 28.7868 84.8197 28.9065 84.7837 29.0322C84.8675 29.0382 84.9484 29.0352 85.0262 29.0232C85.104 29.0113 85.1848 29.0113 85.2686 29.0232C85.3704 29.0292 85.4721 29.0232 85.5739 29.0053C85.6756 28.9813 85.7744 28.9754 85.8702 28.9873C85.8881 28.9095 85.9151 28.8107 85.951 28.691C85.9869 28.5653 86.0318 28.4366 86.0857 28.3049C86.1395 28.1732 86.1994 28.0565 86.2653 27.9548C86.3371 27.853 86.4119 27.7872 86.4897 27.7572C86.5855 27.7213 86.6603 27.7243 86.7142 27.7662C86.7681 27.8081 86.8279 27.853 86.8938 27.9009C87.0015 27.9787 87.0674 28.0416 87.0913 28.0894C87.1212 28.1373 87.1182 28.1912 87.0823 28.2511C87.0524 28.3049 87.0045 28.3857 86.9387 28.4935C86.8968 28.5593 86.8638 28.6342 86.8399 28.718C86.8219 28.7958 86.789 28.8706 86.7411 28.9424C86.7292 28.9604 86.7052 29.0143 86.6693 29.1041C86.6394 29.1938 86.6005 29.3046 86.5526 29.4363C86.5047 29.562 86.4598 29.6907 86.4179 29.8224C86.376 29.9481 86.3401 30.0618 86.3101 30.1636C86.2802 30.2593 86.2623 30.3192 86.2563 30.3431C86.2443 30.421 86.2323 30.4988 86.2204 30.5766C86.2084 30.6544 86.1994 30.7352 86.1934 30.819C86.1874 30.9148 86.1575 30.9836 86.1036 31.0255C86.0498 31.0614 85.9839 31.0794 85.9061 31.0794C85.8283 31.0794 85.7505 31.0644 85.6726 31.0345C85.5948 31.0046 85.532 30.9717 85.4841 30.9357C85.4362 30.8938 85.4003 30.846 85.3763 30.7921C85.3584 30.7382 85.3494 30.6813 85.3494 30.6215C85.3494 30.5137 85.3704 30.406 85.4123 30.2982C85.4542 30.1905 85.4871 30.1067 85.511 30.0468C85.523 29.9989 85.538 29.9541 85.5559 29.9121C85.5799 29.8643 85.5978 29.8164 85.6098 29.7685C85.4422 29.7505 85.2716 29.7475 85.098 29.7595C84.9304 29.7715 84.7598 29.7864 84.5862 29.8044C84.5503 29.8762 84.5174 29.96 84.4874 30.0558C84.4635 30.1516 84.4395 30.2533 84.4156 30.3611C84.3976 30.4688 84.3737 30.5736 84.3438 30.6754C84.3258 30.7472 84.3049 30.816 84.2809 30.8819C84.263 30.9417 84.239 30.9986 84.2091 31.0525C84.1792 31.1063 84.1462 31.1512 84.1103 31.1871ZM88.5729 31.4116C88.2437 31.4116 87.9893 31.3158 87.8097 31.1243C87.6361 30.9327 87.5493 30.6394 87.5493 30.2444C87.5493 30.0289 87.5882 29.7924 87.666 29.535C87.7498 29.2776 87.8576 29.0262 87.9893 28.7808C88.1269 28.5354 88.2766 28.3229 88.4382 28.1433C88.5998 27.9578 88.7614 27.8291 88.9231 27.7572C88.9829 27.7273 89.0458 27.7063 89.1116 27.6944C89.1835 27.6764 89.2523 27.6674 89.3181 27.6674C89.39 27.6674 89.4678 27.6734 89.5516 27.6854C89.6414 27.6914 89.7252 27.7093 89.803 27.7393C89.9407 27.7812 90.0604 27.862 90.1621 27.9817C90.2699 28.1014 90.3238 28.275 90.3238 28.5025C90.3238 28.5623 90.3178 28.6282 90.3058 28.7C90.2938 28.7658 90.2729 28.8317 90.243 28.8975C90.1651 29.0951 90.0454 29.2836 89.8838 29.4632C89.7282 29.6428 89.5636 29.7685 89.39 29.8403C89.3421 29.8643 89.2942 29.8822 89.2463 29.8942C89.2044 29.9002 89.1595 29.9032 89.1116 29.9032C88.9859 29.9032 88.8722 29.8852 88.7704 29.8493C88.6746 29.8134 88.5849 29.7655 88.5011 29.7056L88.4292 29.6428L88.3843 29.7326C88.3424 29.8463 88.3125 29.9421 88.2945 30.0199C88.2826 30.0977 88.2766 30.1546 88.2766 30.1905C88.2766 30.2623 88.2796 30.3371 88.2856 30.415C88.2915 30.4868 88.3095 30.5467 88.3394 30.5945C88.3634 30.6245 88.3933 30.6484 88.4292 30.6664C88.4711 30.6843 88.522 30.6933 88.5819 30.6933C88.6178 30.6933 88.6507 30.6933 88.6806 30.6933C88.7165 30.6873 88.7465 30.6813 88.7704 30.6754C88.8782 30.6514 88.965 30.6125 89.0308 30.5586C89.1026 30.4988 89.1775 30.4479 89.2553 30.406L89.2912 30.388L89.2822 30.3611C89.384 30.3072 89.4528 30.2743 89.4887 30.2623C89.5246 30.2444 89.5516 30.2294 89.5695 30.2174C89.5935 30.1935 89.6204 30.1815 89.6504 30.1815C89.7342 30.1695 89.815 30.1935 89.8928 30.2533C89.9766 30.3072 90.0185 30.3761 90.0185 30.4599C90.0185 30.4958 89.9915 30.5526 89.9377 30.6305C89.8898 30.7083 89.8269 30.7861 89.7491 30.8639C89.6773 30.9357 89.6025 30.9926 89.5246 31.0345C89.5067 31.0405 89.4887 31.0495 89.4708 31.0614C89.4528 31.0674 89.4349 31.0764 89.4169 31.0884H89.4259C89.372 31.1602 89.3181 31.1961 89.2643 31.1961H89.1924C89.1685 31.238 89.0907 31.2829 88.959 31.3308C88.8273 31.3847 88.6986 31.4116 88.5729 31.4116ZM89.0398 29.2477C89.0937 29.2477 89.1415 29.2387 89.1835 29.2208C89.2313 29.2028 89.2762 29.1819 89.3181 29.1579C89.4618 29.0562 89.5546 28.9245 89.5965 28.7629C89.6384 28.6012 89.6234 28.4785 89.5516 28.3947C89.5396 28.3768 89.5246 28.3648 89.5067 28.3588C89.4887 28.3468 89.4678 28.3408 89.4438 28.3408C89.378 28.3408 89.3032 28.3618 89.2194 28.4037C89.1415 28.4456 89.0637 28.5055 88.9859 28.5833C88.9081 28.6611 88.8363 28.7539 88.7704 28.8616L88.6537 29.0502C88.6657 29.0442 88.6746 29.0412 88.6806 29.0412C88.6926 29.0352 88.7016 29.0322 88.7076 29.0322C88.7614 29.0322 88.7974 29.0502 88.8153 29.0861C88.8333 29.122 88.8542 29.1579 88.8782 29.1938C88.9081 29.2298 88.962 29.2477 89.0398 29.2477ZM90.5965 31.3577C90.5187 31.3338 90.4468 31.2859 90.381 31.2141C90.3211 31.1423 90.2733 31.0914 90.2373 31.0614C90.2314 31.0435 90.2224 31.0255 90.2104 31.0076C90.2044 30.9896 90.1984 30.9717 90.1924 30.9537C90.1924 30.8938 90.1984 30.8519 90.2104 30.828C90.2284 30.804 90.2673 30.7621 90.3271 30.7023C90.369 30.6364 90.4109 30.6005 90.4528 30.5945C90.4947 30.5886 90.5336 30.5916 90.5696 30.6035C90.6893 30.5137 90.803 30.4299 90.9108 30.3521C91.0245 30.2683 91.1143 30.1785 91.1801 30.0827C91.2639 29.957 91.3447 29.8283 91.4226 29.6967C91.5064 29.565 91.5872 29.4333 91.665 29.3016C91.6949 29.2477 91.7278 29.1849 91.7637 29.113C91.7997 29.0412 91.8356 28.9694 91.8715 28.8975C91.9074 28.8197 91.9373 28.7539 91.9613 28.7C91.9014 28.688 91.8595 28.6761 91.8356 28.6641C91.8116 28.6461 91.7817 28.6252 91.7458 28.6012C91.7278 28.5354 91.7039 28.4636 91.674 28.3857C91.65 28.3079 91.6351 28.2481 91.6291 28.2062C91.6291 28.0565 91.7009 27.9637 91.8446 27.9278C92.0241 27.8859 92.1798 27.859 92.3115 27.847C92.4431 27.835 92.5718 27.8141 92.6975 27.7842C92.8173 27.7542 92.943 27.7453 93.0747 27.7572C93.2064 27.7632 93.3291 27.7901 93.4428 27.838C93.5027 27.862 93.5565 27.8949 93.6044 27.9368C93.6523 27.9787 93.6972 28.0356 93.7391 28.1074C93.8049 28.2032 93.8439 28.3079 93.8558 28.4217C93.8738 28.5354 93.8798 28.6372 93.8738 28.7269C93.8738 28.8107 93.8768 28.8646 93.8828 28.8886C93.8648 28.9544 93.8379 29.0562 93.8019 29.1938C93.766 29.3315 93.7241 29.4782 93.6762 29.6338C93.6343 29.7894 93.5924 29.9301 93.5505 30.0558C93.5146 30.1755 93.4907 30.2563 93.4787 30.2982C93.4548 30.394 93.4218 30.4928 93.3799 30.5945C93.344 30.6903 93.3201 30.7831 93.3081 30.8729C93.2842 30.9986 93.2333 31.0854 93.1555 31.1333C93.0777 31.1752 93.0088 31.2111 92.949 31.241C92.8831 31.265 92.8233 31.259 92.7694 31.2231C92.7155 31.1871 92.6646 31.1482 92.6167 31.1063C92.5748 30.9926 92.5509 30.9088 92.5449 30.8549C92.5449 30.7951 92.5629 30.7143 92.5988 30.6125C92.6167 30.5646 92.6497 30.4569 92.6975 30.2893C92.7454 30.1217 92.7993 29.9331 92.8592 29.7236C92.919 29.5141 92.9759 29.3225 93.0298 29.1489C93.0836 28.9694 93.1196 28.8437 93.1375 28.7718C93.1495 28.712 93.1585 28.6611 93.1645 28.6192C93.1704 28.5713 93.1704 28.5264 93.1645 28.4845C93.1225 28.4725 93.0627 28.4666 92.9849 28.4666C92.9071 28.4666 92.8352 28.4725 92.7694 28.4845C92.7574 28.4905 92.7424 28.4935 92.7245 28.4935C92.7125 28.4935 92.7005 28.4965 92.6886 28.5025C92.6646 28.6102 92.6347 28.718 92.5988 28.8257C92.5629 28.9275 92.518 29.0382 92.4641 29.1579C92.4162 29.2717 92.3564 29.4004 92.2845 29.544C92.2187 29.6877 92.1379 29.8493 92.0421 30.0289C91.9822 30.1486 91.9224 30.2563 91.8625 30.3521C91.8027 30.4479 91.7398 30.5377 91.674 30.6215L91.5662 30.7651C91.5303 30.8011 91.4914 30.84 91.4495 30.8819C91.4076 30.9238 91.3687 30.9627 91.3328 30.9986C91.2968 31.0285 91.2669 31.0555 91.243 31.0794L90.9646 31.2949C90.9108 31.3368 90.8539 31.3577 90.794 31.3577C90.7342 31.3577 90.6683 31.3577 90.5965 31.3577ZM94.9141 31.232C94.8123 31.1842 94.7165 31.1632 94.6268 31.1692C94.5429 31.1692 94.4532 31.1213 94.3574 31.0255C94.2616 30.9357 94.1898 30.825 94.1419 30.6933C94.094 30.5616 94.088 30.4299 94.1239 30.2982C94.1359 30.2683 94.1419 30.2444 94.1419 30.2264C94.1479 30.2025 94.1509 30.1785 94.1509 30.1546C94.1569 30.0648 94.1718 29.975 94.1958 29.8852C94.2197 29.7954 94.2496 29.7116 94.2856 29.6338C94.3095 29.5859 94.3304 29.535 94.3484 29.4812C94.3664 29.4273 94.3843 29.3794 94.4023 29.3375C94.4921 29.0741 94.6058 28.8227 94.7435 28.5833C94.8812 28.3438 95.0128 28.1014 95.1385 27.856C95.2104 27.7123 95.3151 27.6495 95.4528 27.6674C95.5905 27.6854 95.7162 27.7183 95.8299 27.7662C95.8359 27.7901 95.8419 27.8141 95.8479 27.838C95.8598 27.862 95.8748 27.8799 95.8928 27.8919C95.9227 27.9518 95.9437 28.0026 95.9556 28.0445C95.9676 28.0864 95.9676 28.1433 95.9556 28.2151C95.8958 28.293 95.8209 28.4007 95.7312 28.5384C95.6473 28.6761 95.5635 28.8197 95.4797 28.9694C95.4019 29.113 95.3391 29.2357 95.2912 29.3375C95.2672 29.3974 95.2433 29.4602 95.2194 29.5261C95.1954 29.5919 95.1715 29.6577 95.1475 29.7236C95.1176 29.8194 95.0877 29.9181 95.0577 30.0199C95.0278 30.1217 94.9979 30.2234 94.9679 30.3252C94.962 30.3491 94.956 30.3701 94.95 30.388C94.944 30.406 94.938 30.4239 94.932 30.4419C94.9799 30.412 95.0338 30.391 95.0937 30.3791C95.1595 30.3671 95.2194 30.3401 95.2732 30.2982C95.375 30.2204 95.4588 30.1426 95.5246 30.0648C95.5905 29.987 95.6444 29.9002 95.6863 29.8044C95.7341 29.7086 95.7671 29.6009 95.785 29.4812C95.779 29.4692 95.776 29.4602 95.776 29.4542C95.776 29.4482 95.7731 29.4423 95.7671 29.4363C95.7132 29.4123 95.6503 29.3734 95.5785 29.3195C95.5067 29.2597 95.4558 29.1849 95.4259 29.0951C95.3959 29.0053 95.4109 28.8975 95.4708 28.7718C95.5366 28.706 95.6204 28.6581 95.7222 28.6282C95.8299 28.5982 95.9137 28.5833 95.9736 28.5833C95.9856 28.5893 95.9975 28.5982 96.0095 28.6102C96.0215 28.6162 96.0304 28.6222 96.0364 28.6282C96.1023 28.6701 96.1651 28.712 96.225 28.7539C96.2848 28.7958 96.3447 28.8437 96.4046 28.8975C96.4106 28.9813 96.4375 29.0711 96.4854 29.1669C96.5392 29.2567 96.5662 29.3824 96.5662 29.544C96.5662 29.9331 96.4554 30.2533 96.234 30.5048C96.0125 30.7562 95.7312 30.9507 95.39 31.0884C95.366 31.0944 95.3391 31.1063 95.3091 31.1243C95.2852 31.1423 95.2613 31.1602 95.2373 31.1782C95.2194 31.1782 95.1864 31.1812 95.1385 31.1871C95.0907 31.1931 95.0458 31.1991 95.0039 31.2051C94.962 31.2111 94.932 31.2201 94.9141 31.232Z" fill="black"/>
</svg>
