<svg width="222" height="73" viewBox="0 0 222 73" fill="none" xmlns="http://www.w3.org/2000/svg">
<g class="train-body">
  <path d="M34.7668 60.0115C33.5379 60.0115 32.3863 60.3504 31.4047 60.9408L30.5314 60.8201L18.5363 60.8022L17.4465 60.9613C16.4572 60.3606 15.2953 60.0115 14.051 60.0115C10.4519 60.0115 7.53302 62.9175 7.53302 66.5037C7.53302 70.0925 10.4519 72.9984 14.051 72.9984C16.045 72.9984 17.8278 72.1051 19.0258 70.7009L19.1443 70.8908H29.9595C31.1523 72.1846 32.8629 72.9984 34.7642 72.9984C38.3632 72.9984 41.2822 70.0925 41.2822 66.5037C41.2873 62.9175 38.3684 60.0115 34.7668 60.0115ZM20.0923 64.0547C20.0846 64.0393 20.0795 64.0213 20.0717 64.0059H20.0923V64.0547Z" fill="#1A1A1A"/>
  <path d="M203.786 60.0115C202.557 60.0115 201.405 60.3504 200.424 60.9408L199.55 60.8201L187.555 60.8022L186.465 60.9613C185.476 60.3606 184.314 60.0115 183.072 60.0115C179.473 60.0115 176.554 62.9175 176.554 66.5037C176.554 70.0925 179.473 72.9984 183.072 72.9984C185.066 72.9984 186.849 72.1051 188.045 70.7009L188.163 70.8908H198.978C200.171 72.1872 201.882 72.9984 203.783 72.9984C207.382 72.9984 210.301 70.0899 210.301 66.5037C210.304 62.9175 207.385 60.0115 203.786 60.0115ZM189.109 64.0572C189.101 64.0393 189.096 64.0213 189.088 64.0059H189.109V64.0572Z" fill="#1A1A1A"/>
  <path d="M220.034 57.1184L219.091 58.2197H212.102V57.8218H9.01952V58.2197H2.30319L1.36027 57.1184H0V62.2295H1.36027L2.30319 61.1308H9.01952V61.1718H101.51L102.994 63.4848H118.735L120.09 61.1718H212.102V61.1333H219.091L220.034 62.2295H221.394V57.1184H220.034Z" fill="#1A1A1A"/>
  <path d="M146.614 57.4422L181.298 57.4422V6.39048L146.614 6.39048V57.4422Z" fill="#A06287"/>
  <path d="M178.25 11.2061H149.663V52.626H178.25V11.2061Z" stroke="#4F3159" stroke-width="1.19673" stroke-miterlimit="10"/>
  <path d="M149.663 18.8047H178.25" stroke="#4F3159" stroke-width="1.19673" stroke-miterlimit="10"/>
  <path d="M149.663 27.5995H178.25" stroke="#4F3159" stroke-width="1.19673" stroke-miterlimit="10"/>
  <path d="M149.663 36.3918H178.25" stroke="#4F3159" stroke-width="1.19673" stroke-miterlimit="10"/>
  <path d="M149.663 45.1866H178.25" stroke="#4F3159" stroke-width="1.19673" stroke-miterlimit="10"/>
  <path d="M158.049 11.2061V52.626" stroke="white" stroke-width="1.19673" stroke-miterlimit="10"/>
  <path d="M169.861 11.2061V52.626" stroke="white" stroke-width="1.19673" stroke-miterlimit="10"/>
  <path d="M169.861 31.4501H158.049V33.7502H169.861V31.4501Z" fill="white"/>
  <path d="M159.497 38.3479H152.654V40.648H159.497V38.3479Z" fill="white"/>
  <path d="M175.258 38.3479H168.416V40.648H175.258V38.3479Z" fill="white"/>
  <path d="M146.613 6.3902H44.7653V57.4419H146.613V6.3902Z" fill="#C0759E"/>
  <path d="M142.486 11.2061H48.895V52.626H142.486V11.2061Z" stroke="#4F3159" stroke-width="1.19673" stroke-miterlimit="10"/>
  <path d="M53.4807 52.626V11.2061" stroke="#4F3159" stroke-width="1.19673" stroke-miterlimit="10"/>
  <path d="M58.4349 52.626V11.2061" stroke="#4F3159" stroke-width="1.19673" stroke-miterlimit="10"/>
  <path d="M63.3865 52.626V11.2061" stroke="#4F3159" stroke-width="1.19673" stroke-miterlimit="10"/>
  <path d="M68.3381 52.626V11.2061" stroke="#4F3159" stroke-width="1.19673" stroke-miterlimit="10"/>
  <path d="M73.2897 52.626V11.2061" stroke="#4F3159" stroke-width="1.19673" stroke-miterlimit="10"/>
  <path d="M78.2413 52.626V11.2061" stroke="#4F3159" stroke-width="1.19673" stroke-miterlimit="10"/>
  <path d="M83.1929 52.626V11.2061" stroke="#4F3159" stroke-width="1.19673" stroke-miterlimit="10"/>
  <path d="M88.1471 52.626V11.2061" stroke="#4F3159" stroke-width="1.19673" stroke-miterlimit="10"/>
  <path d="M93.0987 52.626V11.2061" stroke="#4F3159" stroke-width="1.19673" stroke-miterlimit="10"/>
  <path d="M98.0503 52.626V11.2061" stroke="#4F3159" stroke-width="1.19673" stroke-miterlimit="10"/>
  <path d="M103.002 52.626V11.2061" stroke="#4F3159" stroke-width="1.19673" stroke-miterlimit="10"/>
  <path d="M107.953 52.626V11.2061" stroke="#4F3159" stroke-width="1.19673" stroke-miterlimit="10"/>
  <path d="M112.908 52.626V11.2061" stroke="#4F3159" stroke-width="1.19673" stroke-miterlimit="10"/>
  <path d="M117.859 52.626V11.2061" stroke="#4F3159" stroke-width="1.19673" stroke-miterlimit="10"/>
  <path d="M122.811 52.626V11.2061" stroke="#4F3159" stroke-width="1.19673" stroke-miterlimit="10"/>
  <path d="M127.762 52.626V11.2061" stroke="#4F3159" stroke-width="1.19673" stroke-miterlimit="10"/>
  <path d="M132.714 52.626V11.2061" stroke="#4F3159" stroke-width="1.19673" stroke-miterlimit="10"/>
  <path d="M137.668 52.626V11.2061" stroke="#4F3159" stroke-width="1.19673" stroke-miterlimit="10"/>
</g>
<g class="snow-roof">
  <path d="M53.4962 1.3792C51.5099 1.82588 47.5579 2.88095 45.7185 3.74862C43.4926 4.796 40.0558 6.78292 41.8077 7.96122C42.4827 8.41559 45.7185 8.39762 46.5326 8.41816C48.0552 8.45667 50.786 8.30264 52.306 8.34115C52.8547 8.35655 53.4396 8.37965 53.893 8.69284C55.2481 9.62983 54.6942 12.5204 56.3353 12.6693C57.948 12.8156 58.0923 9.87113 59.6638 9.4835C61.256 9.09074 62.1448 13.2263 63.7395 13.6191C64.9143 13.9066 65.0482 9.2807 66.9547 9.24733C68.8585 9.21396 68.655 11.7759 69.8195 11.7554C70.984 11.7348 71.3781 9.4604 73.3696 9.47837C76.3426 9.50661 81.3174 10.1663 84.1796 10.9673C86.6322 11.6527 89.2987 12.8823 91.5787 11.7502C92.6246 11.2317 93.4027 10.2742 94.4486 9.75048C95.5667 9.19086 97.7823 10.7491 99.0318 10.7542C101.222 10.7645 102.499 9.20882 104.689 9.21909C105.676 9.22423 106.856 9.33461 107.325 10.2023C107.518 10.5617 108.023 12.3253 108.247 12.6667C108.997 13.8065 110.241 11.5911 111.46 10.9724C113.608 9.88397 116.149 10.0175 118.552 10.1766C120.173 10.2844 121.943 10.4564 123.094 11.5962C123.834 12.3278 124.663 13.5164 125.591 13.0441C126.193 12.736 126.333 11.8427 126.961 11.5911C127.804 11.2522 128.502 12.3022 128.803 13.1544C129.321 14.6177 129.839 16.0809 130.357 17.5442C130.586 18.1911 131.019 18.9689 131.699 18.879C132.338 18.7918 132.577 18.0114 132.675 17.3773C132.951 15.6086 132.088 12.0968 133.502 12.0711C134.917 12.0455 135.172 14.7537 136.669 14.6485C138.48 14.5201 136.952 9.57848 138.338 9.55538C139.724 9.53228 138.405 13.3521 140.136 13.3213C141.867 13.2905 142.39 9.97382 144.732 8.75188C145.199 8.50801 149.609 7.71478 149.903 7.28094C150.856 5.88188 147.118 3.75119 145.691 2.83474C143.156 1.20721 140.103 -0.443432 137.277 0.601374C135.697 1.1841 134.468 2.54723 132.835 2.96566C129.112 3.92319 125.454 -0.381821 121.78 0.750265C121 0.991571 120.307 1.46392 119.526 1.70265C116.731 2.55236 113.866 0.213743 110.957 0.49869C109.512 0.63988 108.214 1.41771 106.799 1.74886C103.417 2.53953 99.9799 0.70149 96.5045 0.668118C90.9217 0.614209 85.697 5.18876 80.274 3.85644C78.1666 3.33789 76.2602 1.94653 74.0909 1.96193C72.2953 1.97477 70.6619 2.95539 68.9075 3.34302C63.7987 4.46228 58.6462 0.457617 53.4962 1.3792Z" fill="white"/>
  <path d="M156.622 3.84869C153.932 4.92943 153.991 6.75977 154.777 7.40924C155.439 7.95603 156.395 7.91496 157.25 7.84565C158.582 7.73783 161.105 7.76607 162.362 7.92523C163.199 8.03048 163.786 8.90072 163.936 9.72733C164.083 10.5539 163.542 12.8617 164.801 13.0183C166.051 13.1749 165.956 10.7542 165.981 10.1175C166.007 9.48345 165.981 7.84565 166.767 7.84565C167.553 7.84565 167.543 9.79407 167.519 10.3101C167.476 11.2958 168.656 11.5294 168.748 10.2536C168.782 9.79407 168.261 8.23841 169.05 8.23841C169.835 8.23841 169.197 9.95323 169.671 10.192C170.464 10.5899 170.467 9.32172 170.701 8.94436C171.567 7.55043 174.117 8.97003 174.939 7.54787C175.408 6.73923 174.867 5.68929 174.133 5.10913C173.398 4.52897 172.476 4.20551 171.788 3.57144C170.918 2.77308 170.487 1.54858 169.516 0.873432C168.246 -0.00964701 165.332 -0.230417 163.859 0.244495C160.947 1.18405 159.059 2.87063 156.622 3.84869Z" fill="white"/>
</g>
</svg>
