<svg width="1920" height="1080" viewBox="0 0 1920 1080" fill="none" xmlns="http://www.w3.org/2000/svg">
<g clip-path="url(#clip0_628_34861)">
<rect width="1920" height="1080" fill="#4363B5"/>
<path d="M-47.7066 -33.4956C-12.3588 -145.639 104.359 -223.705 219.269 -211.304C315.107 -201.282 404.38 -136.318 499.913 -144.477C588.884 -151.98 659.161 -219.559 726.837 -278.827C794.054 -338.225 878.388 -395.294 965.981 -376.043C1017.3 -365.044 1059.9 -329.369 1106.49 -303.622C1199.33 -252.728 1312.2 -243.919 1410.15 -279.04C1498.87 -310.742 1582.37 -378.099 1676.46 -365.053C1737.8 -356.746 1790.58 -314.672 1849.06 -293.104C1910.62 -270.157 1979.98 -270.141 2040.9 -293.117C2092.02 -312.334 2136.71 -346.94 2189.73 -360.089C2240.8 -373.289 2296.74 -365.003 2342.51 -337.979" stroke="#4777BE" stroke-width="2" stroke-miterlimit="10"/>
<path d="M-58.1258 6.88477C-22.778 -105.259 93.9402 -183.325 208.85 -170.923C304.688 -160.901 393.961 -95.9373 489.494 -104.097C578.465 -111.599 648.742 -179.179 716.418 -238.447C783.635 -297.845 867.969 -354.913 955.562 -335.663C1006.88 -324.663 1049.48 -288.989 1096.07 -263.242C1188.91 -212.347 1301.78 -203.538 1399.73 -238.66C1488.45 -270.361 1571.95 -337.718 1666.04 -324.673C1727.38 -316.366 1780.16 -274.292 1838.64 -252.723C1900.2 -229.777 1969.56 -229.76 2030.48 -252.737C2081.6 -271.954 2126.29 -306.559 2179.31 -319.709C2230.38 -332.908 2286.32 -324.622 2332.09 -297.598" stroke="#4777BE" stroke-width="2" stroke-miterlimit="10"/>
<path d="M-68.6676 47.7401C-33.3197 -64.4036 83.3985 -142.47 198.309 -130.068C294.146 -120.046 383.419 -55.082 478.952 -63.2414C567.924 -70.7439 638.201 -138.324 705.876 -197.591C773.093 -256.989 857.427 -314.058 945.02 -294.807C996.338 -283.808 1038.93 -248.133 1085.53 -222.387C1178.37 -171.492 1291.24 -162.683 1389.19 -197.805C1477.91 -229.506 1561.41 -296.863 1655.5 -283.818C1716.84 -275.51 1769.62 -233.437 1828.1 -211.868C1889.66 -188.922 1959.02 -188.905 2019.94 -211.881C2071.06 -231.098 2115.75 -265.704 2168.77 -278.853C2219.83 -292.053 2275.78 -283.767 2321.55 -256.743" stroke="#4777BE" stroke-width="2" stroke-miterlimit="10"/>
<path d="M-79.0865 88.1206C-43.7387 -24.0231 72.9795 -102.089 187.89 -89.6877C283.727 -79.6656 373 -14.7015 468.533 -22.861C557.505 -30.3634 627.782 -97.9431 695.457 -157.211C762.674 -216.609 847.008 -273.677 934.601 -254.427C985.919 -243.428 1028.52 -207.753 1075.11 -182.006C1167.95 -131.111 1280.82 -122.303 1378.77 -157.424C1467.49 -189.125 1550.99 -256.482 1645.08 -243.437C1706.42 -235.13 1759.2 -193.056 1817.68 -171.488C1879.24 -148.541 1948.6 -148.524 2009.52 -171.501C2060.64 -190.718 2105.33 -225.324 2158.35 -238.473C2209.42 -251.672 2265.36 -243.386 2311.13 -216.362" stroke="#4777BE" stroke-width="2" stroke-miterlimit="10"/>
<path d="M-89.506 128.501C-54.1581 16.3572 62.5601 -61.709 177.47 -49.3073C273.308 -39.2852 362.58 25.6788 458.114 17.5194C547.085 10.0169 617.362 -57.5627 685.038 -116.831C752.255 -176.228 836.589 -233.297 924.182 -214.046C975.5 -203.047 1018.1 -167.373 1064.69 -141.626C1157.53 -90.731 1270.4 -81.9222 1368.35 -117.044C1457.07 -148.745 1540.57 -216.102 1634.66 -203.057C1696 -194.75 1748.78 -152.676 1807.26 -131.107C1868.82 -108.161 1938.18 -108.144 1999.1 -131.121C2050.22 -150.337 2094.91 -184.943 2147.93 -198.092C2199 -211.292 2254.94 -203.006 2300.71 -175.982" stroke="#4777BE" stroke-width="2" stroke-miterlimit="10"/>
<path d="M-99.9252 168.882C-64.5773 56.7381 52.1409 -21.3281 167.051 -8.92644C262.889 1.09564 352.161 66.0597 447.694 57.9002C536.666 50.3978 606.943 -17.1819 674.619 -76.4498C741.835 -135.848 826.17 -192.916 913.762 -173.666C965.081 -162.666 1007.68 -126.992 1054.27 -101.245C1147.11 -50.3501 1259.98 -41.5413 1357.93 -76.6631C1446.65 -108.364 1530.15 -175.721 1624.24 -162.676C1685.59 -154.369 1738.36 -112.295 1796.84 -90.7264C1858.41 -67.7801 1927.76 -67.7632 1988.68 -90.7397C2039.8 -109.957 2084.49 -144.562 2137.51 -157.712C2188.58 -170.911 2244.52 -162.625 2290.29 -135.601" stroke="#4777BE" stroke-width="2" stroke-miterlimit="10"/>
<path d="M-110.344 209.262C-74.9962 97.1185 41.7219 19.0522 156.632 31.4539C252.47 41.476 341.742 106.44 437.275 98.2806C526.247 90.7782 596.524 23.1985 664.2 -36.0694C731.417 -95.4672 815.751 -152.536 903.344 -133.285C954.662 -122.286 997.258 -86.6113 1043.85 -60.8645C1136.69 -9.96978 1249.56 -1.16094 1347.51 -36.2827C1436.23 -67.9839 1519.73 -135.341 1613.82 -122.296C1675.17 -113.988 1727.94 -71.9146 1786.42 -50.3461C1847.99 -27.3997 1917.34 -27.3828 1978.27 -50.3593C2029.38 -69.5762 2074.07 -104.182 2127.09 -117.331C2178.16 -130.531 2234.1 -122.245 2279.88 -95.2209" stroke="#4777BE" stroke-width="2" stroke-miterlimit="10"/>
<path d="M-120.886 250.118C-85.5382 137.974 31.18 59.9077 146.09 72.3094C241.928 82.3315 331.2 147.296 426.733 139.136C515.705 131.634 585.982 64.054 653.658 4.78607C720.875 -54.6117 805.209 -111.68 892.802 -92.4297C944.12 -81.4306 986.716 -45.7558 1033.31 -20.009C1126.15 30.8858 1239.02 39.6946 1336.97 4.57286C1425.69 -27.1284 1509.19 -94.4854 1603.28 -81.4401C1664.62 -73.1328 1717.4 -31.059 1775.88 -9.49051C1837.44 13.4559 1906.8 13.4727 1967.72 -9.5038C2018.84 -28.7206 2063.53 -63.3264 2116.55 -76.4757C2167.62 -89.6753 2223.56 -81.3892 2269.33 -54.3653" stroke="#4777BE" stroke-width="2" stroke-miterlimit="10"/>
<path d="M-131.305 290.498C-95.9572 178.354 20.761 100.288 135.671 112.69C231.509 122.712 320.781 187.676 416.314 179.516C505.286 172.014 575.563 104.434 643.239 45.1664C710.456 -14.2313 794.79 -71.2999 882.383 -52.0494C933.701 -41.0502 976.297 -5.37543 1022.89 20.3713C1115.73 71.2661 1228.6 80.0749 1326.55 44.9532C1415.27 13.252 1498.77 -54.105 1592.86 -41.0598C1654.21 -32.7524 1706.98 9.32129 1765.46 30.8898C1827.03 53.8362 1896.38 53.853 1957.3 30.8765C2008.42 11.6597 2053.11 -22.9461 2106.13 -36.0953C2157.2 -49.2949 2213.14 -41.0089 2258.91 -13.985" stroke="#4777BE" stroke-width="2" stroke-miterlimit="10"/>
<path d="M-141.724 330.878C-106.376 218.735 10.3418 140.668 125.252 153.07C221.09 163.092 310.362 228.056 405.895 219.897C494.867 212.394 565.144 144.815 632.82 85.5468C700.037 26.149 784.371 -30.9195 871.964 -11.669C923.282 -0.669813 965.878 35.005 1012.47 60.7517C1105.31 111.646 1218.18 120.455 1316.13 85.3336C1404.85 53.6324 1488.35 -13.7246 1582.44 -0.679366C1643.79 7.62796 1696.56 49.7017 1755.04 71.2702C1816.61 94.2166 1885.96 94.2334 1946.89 71.2569C1998 52.0401 2042.69 17.4343 2095.71 4.28508C2146.78 -8.91452 2202.72 -0.628467 2248.5 26.3954" stroke="#4777BE" stroke-width="2" stroke-miterlimit="10"/>
<path d="M-152.143 371.259C-116.796 259.115 -0.0773673 181.049 114.833 193.451C210.671 203.473 299.943 268.437 395.476 260.277C484.448 252.775 554.725 185.195 622.401 125.927C689.617 66.5294 773.952 9.46085 861.544 28.7114C912.863 39.7106 955.459 75.3853 1002.05 101.132C1094.89 152.027 1207.76 160.836 1305.71 125.714C1394.43 94.0127 1477.93 26.6557 1572.02 39.701C1633.37 48.0083 1686.15 90.0821 1744.62 111.651C1806.19 134.597 1875.54 134.614 1936.47 111.637C1987.58 92.4205 2032.27 57.8147 2085.29 44.6655C2136.36 31.4659 2192.3 39.7519 2238.08 66.7758" stroke="#4777BE" stroke-width="2" stroke-miterlimit="10"/>
<path d="M-162.685 412.114C-127.337 299.97 -10.6191 221.904 104.291 234.306C200.129 244.328 289.401 309.292 384.934 301.133C473.906 293.63 544.183 226.051 611.859 166.783C679.076 107.385 763.41 50.3164 851.003 69.5669C902.321 80.5661 944.917 116.241 991.509 141.988C1084.35 192.882 1197.22 201.691 1295.17 166.569C1383.89 134.868 1467.39 67.5113 1561.48 80.5565C1622.83 88.8638 1675.6 130.938 1734.08 152.506C1795.65 175.452 1865 175.469 1925.92 152.493C1977.04 133.276 2021.73 98.6702 2074.75 85.5209C2125.82 72.3213 2181.76 80.6074 2227.54 107.631" stroke="#4777BE" stroke-width="2" stroke-miterlimit="10"/>
<path d="M-173.105 452.495C-137.757 340.351 -21.0386 262.285 93.8716 274.686C189.709 284.708 278.982 349.673 374.515 341.513C463.486 334.011 533.764 266.431 601.439 207.163C668.656 147.765 752.99 90.6967 840.583 109.947C891.901 120.946 934.497 156.621 981.089 182.368C1073.93 233.263 1186.8 242.071 1284.75 206.95C1373.47 175.249 1456.97 107.892 1551.06 120.937C1612.41 129.244 1665.18 171.318 1723.66 192.886C1785.23 215.833 1854.58 215.85 1915.5 192.873C1966.62 173.656 2011.31 139.05 2064.33 125.901C2115.4 112.702 2171.34 120.988 2217.12 148.012" stroke="#4777BE" stroke-width="2" stroke-miterlimit="10"/>
<path d="M-183.524 492.875C-148.176 380.732 -31.4575 302.666 83.4526 315.067C179.29 325.089 268.563 390.053 364.096 381.894C453.067 374.391 523.345 306.812 591.02 247.544C658.237 188.146 742.571 131.078 830.164 150.328C881.482 161.327 924.079 197.002 970.67 222.749C1063.51 273.644 1176.38 282.452 1274.33 247.331C1363.05 215.629 1446.55 148.272 1540.64 161.318C1601.99 169.625 1654.77 211.699 1713.24 233.267C1774.81 256.214 1844.16 256.23 1905.09 233.254C1956.2 214.037 2000.89 179.431 2053.91 166.282C2104.98 153.082 2160.92 161.368 2206.7 188.392" stroke="#4777BE" stroke-width="2" stroke-miterlimit="10"/>
<path d="M-193.943 533.256C-158.595 421.112 -41.9957 343.515 73.0334 355.448C168.871 365.47 258.144 430.434 353.677 422.274C442.648 414.772 512.925 347.192 580.601 287.924C647.818 228.526 732.152 171.458 819.745 190.708C871.063 201.708 913.659 237.382 960.251 263.129C1053.09 314.024 1165.96 322.833 1263.91 287.711C1352.63 256.01 1436.13 188.653 1530.22 201.698C1591.57 210.005 1644.35 252.079 1702.82 273.648C1764.39 296.594 1833.74 296.611 1894.67 273.634C1945.78 254.418 1990.47 219.812 2043.49 206.662C2094.56 193.463 2150.5 201.749 2196.28 228.773" stroke="#4777BE" stroke-width="2" stroke-miterlimit="10"/>
<path d="M-204.484 574.111C-169.137 461.968 -52.4185 383.901 62.4917 396.303C158.329 406.325 247.602 471.289 343.135 463.13C432.107 455.627 502.384 388.048 570.059 328.78C637.276 269.382 721.61 212.313 809.203 231.564C860.521 242.563 903.118 278.238 949.709 303.985C1042.55 354.879 1155.42 363.688 1253.37 328.566C1342.09 296.865 1425.59 229.508 1519.68 242.553C1581.03 250.861 1633.8 292.934 1692.28 314.503C1753.85 337.449 1823.2 337.466 1884.12 314.49C1935.24 295.273 1979.93 260.667 2032.95 247.518C2084.02 234.318 2139.96 242.604 2185.74 269.628" stroke="#4777BE" stroke-width="2" stroke-miterlimit="10"/>
<path d="M-214.904 614.492C-179.556 502.348 -62.8376 424.282 52.0725 436.683C147.91 446.706 237.183 511.67 332.716 503.51C421.687 496.008 491.964 428.428 559.64 369.16C626.857 309.762 711.191 252.694 798.784 271.944C850.102 282.943 892.698 318.618 939.29 344.365C1032.13 395.26 1145 404.069 1242.95 368.947C1331.67 337.246 1415.17 269.889 1509.26 282.934C1570.61 291.241 1623.38 333.315 1681.86 354.883C1743.43 377.83 1812.78 377.847 1873.71 354.87C1924.82 335.653 1969.51 301.048 2022.53 287.898C2073.6 274.699 2129.54 282.985 2175.32 310.009" stroke="#4777BE" stroke-width="2" stroke-miterlimit="10"/>
<path d="M-225.323 654.872C-189.975 542.728 -73.2571 464.662 41.653 477.064C137.491 487.086 226.763 552.05 322.296 543.89C411.268 536.388 481.545 468.808 549.221 409.54C616.438 350.143 700.772 293.074 788.365 312.325C839.683 323.324 882.279 358.999 928.871 384.745C1021.71 435.64 1134.58 444.449 1232.53 409.327C1321.25 377.626 1404.75 310.269 1498.84 323.314C1560.19 331.622 1612.97 373.695 1671.44 395.264C1733.01 418.21 1802.36 418.227 1863.29 395.251C1914.4 376.034 1959.09 341.428 2012.11 328.279C2063.18 315.079 2119.12 323.365 2164.9 350.389" stroke="#4777BE" stroke-width="2" stroke-miterlimit="10"/>
<path d="M-235.742 695.253C-200.394 583.109 -83.6758 505.043 31.2344 517.444C127.072 527.467 216.345 592.431 311.878 584.271C400.849 576.769 471.126 509.189 538.802 449.921C606.019 390.523 690.353 333.455 777.946 352.705C829.264 363.704 871.86 399.379 918.452 425.126C1011.3 476.021 1124.17 484.83 1222.11 449.708C1310.83 418.007 1394.33 350.65 1488.42 363.695C1549.77 372.002 1602.55 414.076 1661.02 435.644C1722.59 458.591 1791.94 458.608 1852.87 435.631C1903.98 416.414 1948.68 381.809 2001.7 368.659C2052.76 355.46 2108.7 363.746 2154.48 390.77" stroke="#4777BE" stroke-width="2" stroke-miterlimit="10"/>
<path d="M-246.284 736.108C-210.936 623.964 -94.2178 545.898 20.6924 558.3C116.53 568.322 205.803 633.286 301.336 625.127C390.307 617.624 460.584 550.045 528.26 490.777C595.477 431.379 679.811 374.31 767.404 393.561C818.722 404.56 861.318 440.235 907.91 465.982C1000.75 516.876 1113.62 525.685 1211.57 490.563C1300.29 458.862 1383.79 391.505 1477.88 404.55C1539.23 412.858 1592.01 454.931 1650.48 476.5C1712.05 499.446 1781.4 499.463 1842.33 476.487C1893.44 457.27 1938.13 422.664 1991.15 409.515C2042.22 396.315 2098.16 404.601 2143.94 431.625" stroke="#4777BE" stroke-width="2" stroke-miterlimit="10"/>
<path d="M-256.703 776.489C-221.355 664.345 -104.637 586.279 10.2731 598.681C106.111 608.703 195.383 673.667 290.916 665.507C379.888 658.005 450.165 590.425 517.841 531.157C585.058 471.759 669.392 414.691 756.985 433.941C808.303 444.941 850.899 480.615 897.491 506.362C990.334 557.257 1103.2 566.066 1201.15 530.944C1289.87 499.243 1373.37 431.886 1467.46 444.931C1528.81 453.238 1581.59 495.312 1640.06 516.881C1701.63 539.827 1770.98 539.844 1831.91 516.867C1883.02 497.65 1927.71 463.045 1980.73 449.895C2031.8 436.696 2087.74 444.982 2133.52 472.006" stroke="#4777BE" stroke-width="2" stroke-miterlimit="10"/>
<path d="M-267.122 816.869C-231.774 704.725 -115.056 626.659 -0.146043 639.061C95.6917 649.083 184.964 714.047 280.497 705.888C369.469 698.385 439.746 630.805 507.422 571.538C574.638 512.14 658.973 455.071 746.565 474.322C797.884 485.321 840.48 520.996 887.071 546.742C979.915 597.637 1092.79 606.446 1190.73 571.324C1279.45 539.623 1362.95 472.266 1457.04 485.311C1518.39 493.619 1571.17 535.692 1629.64 557.261C1691.21 580.207 1760.56 580.224 1821.49 557.248C1872.6 538.031 1917.3 503.425 1970.32 490.276C2021.38 477.076 2077.32 485.362 2123.1 512.386" stroke="#4777BE" stroke-width="2" stroke-miterlimit="10"/>
<path d="M-277.541 857.25C-242.193 745.106 -125.475 667.04 -10.5652 679.441C85.2726 689.463 174.545 754.427 270.078 746.268C359.05 738.766 429.327 671.186 497.002 611.918C564.219 552.52 648.553 495.452 736.146 514.702C787.464 525.701 830.061 561.376 876.652 587.123C969.496 638.018 1082.37 646.826 1180.31 611.705C1269.03 580.003 1352.53 512.646 1446.62 525.692C1507.97 533.999 1560.75 576.073 1619.22 597.641C1680.79 620.588 1750.14 620.604 1811.07 597.628C1862.18 578.411 1906.88 543.805 1959.9 530.656C2010.96 517.457 2066.9 525.743 2112.68 552.766" stroke="#4777BE" stroke-width="2" stroke-miterlimit="10"/>
<path d="M-288.083 898.105C-252.735 785.961 -136.017 707.895 -21.1067 720.297C74.7311 730.319 164.004 795.283 259.537 787.124C348.508 779.621 418.785 712.042 486.461 652.774C553.678 593.376 638.012 536.307 725.605 555.558C776.923 566.557 819.519 602.232 866.111 627.979C958.954 678.873 1071.82 687.682 1169.77 652.56C1258.49 620.859 1341.99 553.502 1436.08 566.547C1497.43 574.855 1550.21 616.928 1608.68 638.497C1670.25 661.443 1739.6 661.46 1800.53 638.484C1851.64 619.267 1896.34 584.661 1949.35 571.512C2000.42 558.312 2056.36 566.598 2102.14 593.622" stroke="#4777BE" stroke-width="2" stroke-miterlimit="10"/>
<path d="M-298.502 938.486C-263.154 826.342 -146.436 748.276 -31.5261 760.677C64.3117 770.699 153.584 835.663 249.117 827.504C338.089 820.002 408.366 752.422 476.042 693.154C543.258 633.756 627.593 576.688 715.186 595.938C766.504 606.937 809.1 642.612 855.692 668.359C948.535 719.254 1061.41 728.062 1159.35 692.941C1248.07 661.24 1331.57 593.883 1425.66 606.928C1487.01 615.235 1539.79 657.309 1598.26 678.877C1659.83 701.824 1729.18 701.841 1790.11 678.864C1841.22 659.647 1885.92 625.041 1938.94 611.892C1990 598.693 2045.94 606.979 2091.72 634.003" stroke="#4777BE" stroke-width="2" stroke-miterlimit="10"/>
<path d="M-308.921 978.866C-273.573 866.722 -156.855 788.656 -41.9451 801.058C53.8927 811.08 143.165 876.044 238.698 867.884C327.67 860.382 397.947 792.802 465.623 733.534C532.839 674.136 617.174 617.068 704.767 636.318C756.085 647.317 798.681 682.992 845.273 708.739C938.116 759.634 1050.99 768.443 1148.94 733.321C1237.65 701.62 1321.16 634.263 1415.24 647.308C1476.59 655.615 1529.37 697.689 1587.84 719.258C1649.41 742.204 1718.76 742.221 1779.69 719.244C1830.8 700.027 1875.5 665.422 1928.52 652.272C1979.58 639.073 2035.52 647.359 2081.3 674.383" stroke="#4777BE" stroke-width="2" stroke-miterlimit="10"/>
<path d="M-319.341 1019.25C-283.993 907.103 -167.275 829.037 -52.3645 841.438C43.4732 851.46 132.746 916.425 228.279 908.265C317.25 900.763 387.527 833.183 455.203 773.915C522.42 714.517 606.754 657.449 694.347 676.699C745.665 687.698 788.261 723.373 834.853 749.12C927.696 800.015 1040.57 808.824 1138.52 773.702C1227.23 742.001 1310.74 674.644 1404.82 687.689C1466.17 695.996 1518.95 738.07 1577.42 759.638C1638.99 782.585 1708.34 782.602 1769.27 759.625C1820.39 740.408 1865.08 705.802 1918.1 692.653C1969.16 679.454 2025.1 687.74 2070.88 714.764" stroke="#4777BE" stroke-width="2" stroke-miterlimit="10"/>
<path d="M-329.882 1060.1C-294.534 947.958 -177.816 869.892 -62.906 882.294C32.9318 892.316 122.204 957.28 217.737 949.12C306.709 941.618 376.986 874.038 444.662 814.77C511.879 755.373 596.213 698.304 683.806 717.555C735.124 728.554 777.72 764.229 824.312 789.975C917.155 840.87 1030.03 849.679 1127.97 814.557C1216.69 782.856 1300.19 715.499 1394.28 728.544C1455.63 736.852 1508.41 778.925 1566.88 800.494C1628.45 823.44 1697.8 823.457 1758.73 800.481C1809.84 781.264 1854.54 746.658 1907.56 733.509C1958.62 720.309 2014.56 728.595 2060.34 755.619" stroke="#4777BE" stroke-width="2" stroke-miterlimit="10"/>
<path d="M-340.301 1100.48C-304.953 988.339 -188.235 910.272 -73.3252 922.674C22.5126 932.696 111.785 997.66 207.318 989.501C296.29 981.998 366.567 914.419 434.242 855.151C501.459 795.753 585.793 738.684 673.386 757.935C724.704 768.934 767.301 804.609 813.892 830.356C906.735 881.25 1019.61 890.059 1117.55 854.937C1206.27 823.236 1289.77 755.879 1383.86 768.925C1445.21 777.232 1497.99 819.306 1556.46 840.874C1618.03 863.82 1687.38 863.837 1748.31 840.861C1799.42 821.644 1844.12 787.038 1897.14 773.889C1948.2 760.689 2004.14 768.975 2049.92 795.999" stroke="#4777BE" stroke-width="2" stroke-miterlimit="10"/>
<path d="M-350.721 1140.86C-315.373 1028.72 -198.655 950.653 -83.7444 963.054C12.0934 973.077 101.366 1038.04 196.899 1029.88C285.87 1022.38 356.148 954.799 423.823 895.531C491.04 836.133 575.374 779.065 662.967 798.315C714.285 809.315 756.882 844.989 803.473 870.736C896.316 921.631 1009.19 930.44 1107.14 895.318C1195.85 863.617 1279.36 796.26 1373.44 809.305C1434.79 817.612 1487.57 859.686 1546.04 881.254C1607.61 904.201 1676.96 904.218 1737.89 881.241C1789.01 862.024 1833.7 827.419 1886.72 814.269C1937.78 801.07 1993.72 809.356 2039.5 836.38" stroke="#4777BE" stroke-width="2" stroke-miterlimit="10"/>
<path d="M-361.14 1181.24C-325.792 1069.1 -209.074 991.033 -94.1636 1003.43C1.67419 1013.46 90.9467 1078.42 186.48 1070.26C275.451 1062.76 345.728 995.179 413.404 935.911C480.621 876.514 564.955 819.445 652.548 838.696C703.866 849.695 746.462 885.37 793.054 911.116C885.897 962.011 998.768 970.82 1096.72 935.698C1185.43 903.997 1268.94 836.64 1363.02 849.685C1424.37 857.993 1477.15 900.066 1535.62 921.635C1597.19 944.581 1666.54 944.598 1727.47 921.622C1778.59 902.405 1823.28 867.799 1876.3 854.65C1927.36 841.45 1983.3 849.736 2029.08 876.76" stroke="#4777BE" stroke-width="2" stroke-miterlimit="10"/>
<path d="M-371.681 1222.1C-336.334 1109.95 -219.615 1031.89 -104.705 1044.29C-8.86754 1054.31 80.405 1119.28 175.938 1111.12C264.91 1103.61 335.187 1036.04 402.862 976.767C470.079 917.369 554.413 860.301 642.006 879.551C693.324 890.551 735.921 926.225 782.512 951.972C875.355 1002.87 988.226 1011.68 1086.17 976.554C1174.89 944.853 1258.39 877.496 1352.48 890.541C1413.83 898.848 1466.61 940.922 1525.08 962.49C1586.65 985.437 1656 985.454 1716.93 962.477C1768.04 943.26 1812.74 908.655 1865.76 895.505C1916.82 882.306 1972.76 890.592 2018.54 917.616" stroke="#4777BE" stroke-width="2" stroke-miterlimit="10"/>
<path d="M-382.101 1262.48C-346.753 1150.34 -230.035 1072.27 -115.125 1084.67C-19.287 1094.69 69.9856 1159.66 165.519 1151.5C254.49 1144 324.767 1076.42 392.443 1017.15C459.66 957.75 543.994 900.681 631.587 919.932C682.905 930.931 725.501 966.606 772.093 992.352C864.936 1043.25 977.807 1052.06 1075.76 1016.93C1164.47 985.233 1247.98 917.876 1342.06 930.921C1403.41 939.229 1456.19 981.302 1514.66 1002.87C1576.23 1025.82 1645.58 1025.83 1706.51 1002.86C1757.62 983.641 1802.32 949.035 1855.34 935.886C1906.4 922.686 1962.34 930.972 2008.12 957.996" stroke="#4777BE" stroke-width="2" stroke-miterlimit="10"/>
<path d="M-392.52 1302.86C-357.172 1190.72 -240.454 1112.65 -125.544 1125.05C-29.7059 1135.07 59.5666 1200.04 155.1 1191.88C244.071 1184.38 314.348 1116.8 382.024 1057.53C449.241 998.13 533.575 941.062 621.168 960.312C672.486 971.311 715.082 1006.99 761.674 1032.73C854.517 1083.63 967.388 1092.44 1065.34 1057.31C1154.05 1025.61 1237.56 958.256 1331.64 971.302C1392.99 979.609 1445.77 1021.68 1504.24 1043.25C1565.81 1066.2 1635.16 1066.21 1696.09 1043.24C1747.21 1024.02 1791.9 989.415 1844.92 976.266C1895.98 963.067 1951.92 971.353 1997.7 998.377" stroke="#4777BE" stroke-width="2" stroke-miterlimit="10"/>
<path d="M-402.939 1343.24C-367.591 1231.1 -250.873 1153.03 -135.963 1165.43C-40.1251 1175.45 49.1474 1240.42 144.68 1232.26C233.652 1224.76 303.929 1157.18 371.605 1097.91C438.822 1038.51 523.156 981.442 610.749 1000.69C662.067 1011.69 704.663 1047.37 751.255 1073.11C844.098 1124.01 956.968 1132.82 1054.92 1097.7C1143.64 1065.99 1227.14 998.637 1321.22 1011.68C1382.57 1019.99 1435.35 1062.06 1493.82 1083.63C1555.39 1106.58 1624.75 1106.6 1685.67 1083.62C1736.79 1064.4 1781.48 1029.8 1834.5 1016.65C1885.56 1003.45 1941.51 1011.73 1987.28 1038.76" stroke="#4777BE" stroke-width="2" stroke-miterlimit="10"/>
<path d="M-413.481 1384.09C-378.014 1271.48 -261.415 1193.88 -146.385 1205.82C-50.5473 1215.84 38.7254 1280.8 134.259 1272.64C223.23 1265.14 293.507 1197.56 361.183 1138.29C428.4 1078.89 512.734 1021.82 600.327 1041.08C651.646 1052.07 694.242 1087.75 740.834 1113.5C833.677 1164.39 946.548 1173.2 1044.5 1138.08C1133.21 1106.38 1216.72 1039.02 1310.8 1052.07C1372.15 1060.37 1424.93 1102.45 1483.4 1124.01C1544.97 1146.96 1614.33 1146.98 1675.25 1124C1726.37 1104.78 1771.06 1070.18 1824.08 1057.03C1875.14 1043.83 1931.09 1052.12 1976.86 1079.14" stroke="#4777BE" stroke-width="2" stroke-miterlimit="10"/>
<path d="M-423.9 1424.48C-388.552 1312.33 -271.834 1234.27 -156.924 1246.67C-61.0861 1256.69 28.1864 1321.65 123.719 1313.49C212.691 1305.99 282.968 1238.41 350.644 1179.14C417.861 1119.75 502.195 1062.68 589.788 1081.93C641.106 1092.93 683.702 1128.6 730.294 1154.35C823.137 1205.24 936.007 1214.05 1033.96 1178.93C1122.67 1147.23 1206.18 1079.87 1300.26 1092.92C1361.61 1101.23 1414.39 1143.3 1472.86 1164.87C1534.43 1187.81 1603.78 1187.83 1664.71 1164.85C1715.83 1145.64 1760.52 1111.03 1813.54 1097.88C1864.6 1084.68 1920.54 1092.97 1966.32 1119.99" stroke="#4777BE" stroke-width="2" stroke-miterlimit="10"/>
</g>
<defs>
<clipPath id="clip0_628_34861">
<rect width="1920" height="1080" fill="white"/>
</clipPath>
</defs>
</svg>
