<svg width="69" height="92" viewBox="0 0 69 92" fill="none" xmlns="http://www.w3.org/2000/svg">
<path d="M68.3797 73.0478L63.7979 60.1492L43.7132 3.61505C42.8133 1.08484 40.0419 -0.235274 37.5213 0.668071L3.67875 12.786C1.18133 13.6788 -0.165372 16.448 0.740863 18.9994L5.32262 31.898L25.4073 88.4321C26.3072 90.9645 29.0807 92.2803 31.5992 91.3791L65.4418 79.2633C67.9392 78.3684 69.2859 75.6013 68.3797 73.0478Z" fill="#19386D"/>
<path d="M14.2142 13.7106L29.8836 8.10219C30.1112 8.01968 30.2314 7.77004 30.1492 7.53945C30.067 7.31097 29.8183 7.19038 29.5886 7.27289L13.9191 12.8813C13.6915 12.9638 13.5714 13.2134 13.6536 13.444C13.7358 13.6725 13.9866 13.7909 14.2142 13.7106Z" fill="white"/>
<path d="M27.03 85.9758L65.5762 72.177L42.091 6.07091L3.54483 19.8697L27.03 85.9758Z" fill="white"/>
<path d="M13.1756 40.5393L28.0498 35.2146L21.2227 15.9975L6.34848 21.3222L13.1756 40.5393Z" fill="#8AABC4"/>
<path d="M24.4398 63.1384C25.1248 63.7202 26.2144 64.9345 27.0489 63.7011C27.422 63.1384 27.1058 62.398 26.7623 61.7929C25.9214 60.3628 24.9161 58.9665 23.7675 57.7226C23.5357 57.4285 23.0383 57.1577 22.8212 57.4624C22.7496 57.5385 22.7369 57.6443 22.7243 57.7501C22.6505 58.3805 22.7854 59.0363 23.0973 59.5525C22.13 59.0236 21.1331 58.554 20.1089 58.1457C19.582 57.9341 18.9792 57.7247 18.3997 57.7839C18.0435 57.8389 17.6599 58.0272 17.5651 58.389C17.4997 58.7655 17.7463 59.1019 18.0056 59.3368C18.6315 59.8889 19.4429 60.1978 20.1974 60.5532C21.7232 61.2302 23.2069 62.0764 24.4398 63.1384Z" fill="#F09F73"/>
<path d="M45.0241 33.7384C48.0589 37.0895 45.787 39.5266 50.2128 41.4983C54.6386 43.47 56.0886 48.5156 49.8377 51.6805C43.5868 54.8454 36.6467 55.4039 33.1018 55.8587C29.557 56.3136 28.7561 50.151 29.9722 46.6243C31.1903 43.0998 27.8246 40.2015 30.1513 36.8737C33.0049 33.512 45.0241 33.7384 45.0241 33.7384Z" fill="black"/>
<path d="M34.2379 35.6722C34.0735 35.6447 32.712 35.8055 32.5013 35.9853C32.2905 36.163 32.0039 37.0917 32.0461 37.4027C32.0882 37.7137 31.7236 37.6037 32.2315 38.213C32.7394 38.8223 32.2568 40.0599 33.2389 38.7102C34.221 37.3625 34.6615 37.4451 34.495 36.7321C34.3264 36.017 34.2379 35.6722 34.2379 35.6722Z" fill="#F4C2BC"/>
<path d="M44.6911 49.9753C44.6974 49.9563 44.7037 49.9373 44.7101 49.9182L43.2158 46.0764L39.2368 48.5621L39.9513 51.7038C39.9513 51.7038 43.7216 53.3941 44.6911 49.9753Z" fill="#F09F73"/>
<path d="M44.2611 48.7674L43.2158 46.0764L39.3506 49.0741L39.5951 50.1361C40.1852 50.1425 41.2157 50.5804 42.1178 50.3413C42.8954 50.1361 43.5361 49.3005 44.2611 48.7674Z" fill="#D78B6A"/>
<path d="M36.2251 60.1978L37.6308 57.0625C37.6308 57.0625 37.7004 54.325 37.6224 54.1049C37.5444 53.887 38.2589 51.7398 38.2589 51.7398L39.0133 50.8449C39.0133 50.8449 40.6888 51.031 42.2105 50.5297C43.4413 50.1235 44.0145 49.4063 44.5435 48.9874C44.8975 48.7081 45.5741 48.5918 45.1378 48.6849C44.9249 48.7314 50.8724 49.5988 50.8724 49.5988C50.8724 49.5988 61.1971 71.3235 60.6091 72.8488C60.6091 72.8488 53.7555 76.7817 43.966 79.0538C43.966 79.0538 43.0935 79.2844 41.6477 77.1709C40.1999 75.0575 36.2251 60.1978 36.2251 60.1978Z" fill="#D6D3CC"/>
<path d="M46.4087 50.7793L46.2422 48.3189C46.2422 48.3189 50.59 46.8211 54.8957 50.1595C57.0517 51.8308 60.4132 57.5322 62.5607 63.6081C62.7588 64.1687 63.9222 67.5875 64.1856 68.2644C65.663 72.0344 57.8968 73.1556 56.3857 69.3455C55.2771 66.5508 54.3857 64.266 54.3372 64.1285C54.2213 63.8006 50.8492 58.188 50.6638 57.1493C50.4804 56.1127 46.4087 50.7793 46.4087 50.7793Z" fill="#23498C"/>
<path d="M56.1308 57.4138C58.0276 62.6287 58.9001 65.7512 60.0993 68.8569C61.2963 71.9625 60.2911 72.4872 60.2047 72.9039C54.4785 65.6857 55.1108 60.3333 55.1108 60.3333L56.1308 57.4138Z" fill="#23498C"/>
<path d="M45.1359 48.6849C45.5721 48.5706 45.0832 48.6976 45.1359 48.6849C45.3593 48.6341 46.2486 48.3189 46.2486 48.3189C46.2486 48.3189 51.8694 46.6814 54.4532 50.2737C55.3194 53.849 55.7135 57.0773 58.6366 65.3047C58.6366 65.3047 60.0803 68.8145 60.8116 71.7995C61.2521 73.5914 53.6566 76.3099 53.1803 74.5646C51.3994 68.0613 47.9895 56.7346 45.1359 48.6849Z" fill="#23498C"/>
<path d="M35.7278 60.7013L37.1609 57.2403C37.1609 57.2403 37.1799 54.1917 37.0935 53.9463C37.007 53.7009 37.7236 51.3252 37.7236 51.3252L39.0134 50.847C39.0134 50.847 37.515 51.2405 39.0134 50.847C39.0134 50.847 42.455 61.793 49.3656 76.4051C49.884 77.5031 41.8607 79.5298 41.8607 79.5298C40.2779 77.1435 35.7278 60.7013 35.7278 60.7013Z" fill="#23498C"/>
<path d="M45.0684 42.884C44.9715 41.8368 44.6933 40.8066 44.3877 39.9349C44.3224 39.7488 44.2676 39.5584 44.2149 39.3659C44.0062 38.5958 43.6585 37.8342 43.1464 37.1234C41.4983 34.8343 38.6152 33.8548 36.1389 34.7497C32.8026 35.9556 31.3822 39.8969 32.9164 43.2754C32.4823 43.2268 32.0777 43.3537 31.8121 43.6689C31.3063 44.274 31.5086 45.3381 32.2652 46.0447C33.0218 46.7513 34.0482 46.8338 34.554 46.2266C34.6235 46.142 34.6804 46.0489 34.7226 45.9495C36.3011 48.6997 39.4982 49.9246 42.1052 48.6849C43.3803 48.0777 44.2886 46.9882 44.7523 45.6872C45.0874 44.9234 45.1633 43.743 45.0684 42.884Z" fill="#F09F73"/>
<path d="M39.1441 53.3349L37.7215 51.3251C37.7215 51.3251 33.4116 52.9266 32.1808 58.2472C31.5654 60.9107 32.2862 66.4366 33.654 70.7375C34.8384 74.4651 39.0619 76.2845 42.5435 74.5307C43.4371 74.0822 44.0103 73.5301 43.846 72.8721C43.1168 69.9696 41.534 69.0366 41.4181 68.7108C41.3022 68.385 40.3749 61.8966 39.8627 60.9742C39.3527 60.0497 39.1441 53.3349 39.1441 53.3349Z" fill="#23498C"/>
<path d="M41.0556 75.4807C36.9544 77.2493 25.1354 67.3696 23.6201 63.7922C23.6201 63.7922 24.8067 61.5328 26.5201 60.0074C26.5201 60.0074 28.2187 61.0991 30.164 62.324C32.6909 63.9149 38.9334 66.8746 41.3296 69.0959C43.7259 71.3172 43.9746 74.2219 41.0556 75.4807Z" fill="#23498C"/>
<path d="M30.1681 36.8674C30.1618 36.8696 30.1576 36.8717 30.1534 36.8738C28.9563 37.3159 28.9753 36.8378 28.9753 36.8378C28.931 36.0868 30.5517 35.4606 30.5517 35.4606C30.5517 35.4606 29.9658 35.3464 29.4263 35.046C28.8846 34.7477 29.2303 34.3415 29.2303 34.3415C29.8815 33.6645 30.7624 34.1532 31.2387 34.5107C31.616 33.0383 32.6845 30.5462 38.1725 30.5715C43.6668 30.5948 45.9703 34.3753 45.8776 36.1207C45.8101 37.3815 45.6141 38.7376 45.6963 40.2079C45.709 40.4343 46.1979 43.4849 46.1052 43.2776C45.2095 41.2763 44.2632 37.1277 39.1967 38.1664C33.7741 39.2792 32.5433 37.409 32.5433 37.409C32.5433 37.409 33.871 39.3596 33.6181 41.7882C33.517 42.7699 34.87 44.2529 35.2683 45.1562C36.4633 47.8536 35.9153 48.2428 36.0523 48.6405C36.1134 48.8182 33.8521 48.6723 33.7045 48.5559C32.2335 47.386 28.147 40.7389 30.1681 36.8674Z" fill="black"/>
<path d="M41.5403 39.605C40.7816 39.4231 39.9955 39.3765 39.1841 39.4696" stroke="#0C0C0C" stroke-width="0.643482" stroke-miterlimit="10"/>
<path d="M35.0156 41.7014C35.6395 41.1429 36.3539 40.6902 37.1189 40.4173" stroke="#0C0C0C" stroke-width="0.643482" stroke-miterlimit="10"/>
<path d="M38.2695 45.3826C38.2695 45.3826 38.946 45.9136 39.7279 45.6555C40.7796 45.3107 41.5235 44.3037 41.5235 44.3037" stroke="#0C0C0C" stroke-width="0.643482" stroke-miterlimit="10"/>
<path d="M40.9818 41.1154C40.8828 40.7494 40.5603 40.5188 40.2631 40.5992C39.9639 40.6796 39.8016 41.0435 39.9006 41.4095C39.9997 41.7755 40.3222 42.0061 40.6193 41.9257C40.9186 41.8453 41.0788 41.4814 40.9818 41.1154Z" fill="#0C0C0C"/>
<path d="M37.2811 43.0554C37.5276 42.8692 37.5424 42.4715 37.3148 42.1689C37.0872 41.8664 36.7015 41.7733 36.4549 41.9595C36.2083 42.1457 36.1936 42.5434 36.4212 42.8459C36.6488 43.1485 37.0345 43.2415 37.2811 43.0554Z" fill="#0C0C0C"/>
<path d="M42.4001 52.2477L44.8596 63.2169L48.5436 65.5884L48.1537 60.547L43.5066 52.0171" fill="#EA552A"/>
<path d="M42.6722 52.7955C43.4823 52.7955 44.139 52.1363 44.139 51.3231C44.139 50.5099 43.4823 49.8506 42.6722 49.8506C41.862 49.8506 41.2053 50.5099 41.2053 51.3231C41.2053 52.1363 41.862 52.7955 42.6722 52.7955Z" fill="#EA552A"/>
<path d="M39.4033 49.3915L39.0134 50.8449L41.9092 53.6247L42.0504 50.0008L39.4033 49.3915Z" fill="#E5E3DF"/>
<path d="M43.9178 47.8069L45.1359 48.6848L44.6449 52.6769L42.0505 50.0007L43.9178 47.8069Z" fill="#E5E3DF"/>
<path d="M37.3464 51.4014L35.8838 54.8054L38.2821 56.4068L36.7205 58.2707L46.5352 70.2045L39.0135 50.845L37.3464 51.4014Z" fill="#3364AA"/>
<path d="M46.7565 48.0334L50.0337 49.7407L49.1865 52.5036L51.5701 52.9542L51.4942 68.4296L45.1147 48.6597L46.7565 48.0334Z" fill="#3364AA"/>
<path d="M27.0302 85.9753L65.5764 72.1765L64.1875 68.2669L25.6413 82.0657L27.0302 85.9753Z" fill="#8AABC4"/>
<path d="M18.7181 31.3205L18.9942 30.2669L18.7287 29.6534C18.1322 30.0638 17.3693 30.1802 16.3303 30.0236C16.2903 30.0173 16.2481 30.0067 16.2039 29.994L16.6443 31.6822L18.6739 31.3437C18.6886 31.3353 18.7034 31.3289 18.7181 31.3205Z" fill="#D78B6A"/>
<path d="M18.7286 29.6533C18.9457 29.5031 19.1417 29.317 19.3209 29.0885C20.2714 27.8699 19.9658 26.04 18.6844 23.4822C18.6654 23.442 18.6422 23.4082 18.6233 23.3701C18.4062 23.569 18.1449 23.7044 17.8498 23.7128C17.7339 23.7255 17.5927 23.7086 17.4894 23.7678C17.4283 23.7996 17.3777 23.8652 17.3398 23.9244C17.0827 24.2608 16.7897 24.6585 16.3682 24.6796C15.7465 24.7156 14.4188 25.2678 14.7328 25.291C14.893 25.5238 14.8087 25.8707 14.6632 26.1119C14.5052 26.3509 14.2881 26.5413 14.1279 26.7783C14.4462 26.8925 14.7033 27.1591 14.7918 27.5145C14.8951 27.9291 14.7349 28.3459 14.4209 28.5934L14.5621 28.7923C14.855 29.2175 15.6664 29.8374 16.2059 29.9897C16.2502 30.0024 16.2924 30.013 16.3324 30.0193C17.3672 30.1801 18.1322 30.0638 18.7286 29.6533ZM18.4526 25.0097C18.6338 25.0012 18.7898 25.1726 18.8003 25.3947C18.8108 25.6168 18.6739 25.803 18.4926 25.8136C18.3114 25.822 18.1554 25.6507 18.1449 25.4286C18.1343 25.2064 18.2734 25.0181 18.4526 25.0097ZM16.2376 25.8369C16.4019 25.7607 16.6106 25.8622 16.7033 26.0632C16.7961 26.2642 16.7391 26.4906 16.5748 26.5667C16.4104 26.6429 16.2017 26.5413 16.109 26.3404C16.0163 26.1373 16.0732 25.913 16.2376 25.8369Z" fill="#F09F73"/>
<path d="M23.854 31.2655C25.0089 32.0694 26.2355 33.9396 27.1375 35.5411L28.0501 35.2131L27.5063 33.6815L23.854 31.2655Z" fill="#23498C"/>
<path d="M19.6094 32.8626L19.6136 32.8584C19.5715 32.8817 19.5251 32.8986 19.4788 32.9134L19.7022 33.3746L18.269 33.2032C18.5493 33.4021 18.8465 33.6369 19.1479 33.9119C19.1753 33.9373 19.2027 33.9627 19.228 33.9881C19.5483 34.2864 19.8687 34.6312 20.1679 35.0226C20.1848 35.0438 20.2016 35.0649 20.2164 35.0861C20.2248 35.0967 20.2333 35.1072 20.2417 35.1178C20.2459 35.1242 20.2501 35.1284 20.2543 35.1347C20.4862 35.433 20.7159 35.761 20.9393 36.1121C21.3228 36.6939 21.5779 37.1488 21.7401 37.4767L22.364 37.2546L19.6094 32.8626Z" fill="#D6D3CC"/>
<path d="M20.2398 31.5151L20.6275 32.6363L20.0669 32.2576C20.0585 32.2936 20.0522 32.3296 20.0396 32.3634L20.0417 32.3613L24.6002 36.4486L25.0449 36.2899C25.0007 36.2074 24.9585 36.127 24.9143 36.0487C24.4485 35.3104 22.8594 33.0256 20.2398 31.5151Z" fill="#D6D3CC"/>
<path d="M23.854 31.2654C23.521 31.0327 23.1943 30.8889 22.8824 30.8656C22.8824 30.8656 22.5241 30.8508 21.9446 31.092L22.0626 31.9911L23.089 31.7351L25.0574 36.2836L27.1354 35.5389C26.2355 33.9374 25.0089 32.0694 23.854 31.2654Z" fill="#23498C"/>
<path d="M25.0447 36.2899L25.0574 36.2857C25.0532 36.2793 25.0047 36.1947 24.9141 36.0487C24.9583 36.127 25.0005 36.2074 25.0447 36.2899Z" fill="#23498C"/>
<path d="M16.539 33.0403C16.4083 33.089 16.2966 33.1482 16.2102 33.2096L16.3514 33.7046L16.539 33.0403Z" fill="#23498C"/>
<path d="M17.6052 35.8308L18.3618 34.7963L16.6758 34.8534L17.6558 38.3039L17.2532 39.0782L21.1817 37.6735L17.6052 35.8308Z" fill="#23498C"/>
<path d="M20.2544 35.1305C20.5199 35.488 20.7455 35.8138 20.9393 36.1079C20.7138 35.7567 20.4841 35.4309 20.2544 35.1305Z" fill="#23498C"/>
<path d="M20.168 35.0206C20.185 35.0419 20.202 35.061 20.2169 35.0844C20.1999 35.0631 20.1828 35.0419 20.168 35.0206Z" fill="#23498C"/>
<path d="M19.1458 33.912C19.1735 33.9378 19.2013 33.9635 19.2269 33.9893C19.2013 33.9614 19.1735 33.9356 19.1458 33.912Z" fill="#23498C"/>
<path d="M16.6758 34.8534L16.014 34.8767L16.3491 33.7046L16.2079 33.2096C16.2079 33.2096 14.6399 34.0283 12.4502 38.5006L13.1752 40.54L17.2532 39.0803L17.6558 38.306L16.6758 34.8534Z" fill="#23498C"/>
<path d="M16.5747 26.5668C16.739 26.4906 16.7959 26.2642 16.7032 26.0633C16.6105 25.8623 16.4018 25.7607 16.2375 25.8369C16.0731 25.9131 16.0162 26.1373 16.1089 26.3404C16.2016 26.5414 16.4103 26.6429 16.5747 26.5668Z" fill="#0C0C0C"/>
<path d="M18.4946 25.8115C18.6758 25.8031 18.8128 25.6148 18.8022 25.3927C18.7917 25.1705 18.6358 24.9992 18.4545 25.0076C18.2733 25.0161 18.1363 25.2044 18.1468 25.4265C18.1573 25.6486 18.3133 25.8221 18.4946 25.8115Z" fill="#0C0C0C"/>
<path d="M18.7191 31.3204C18.7039 31.3291 18.6888 31.3378 18.6758 31.3465L18.7148 31.34L18.7191 31.3204Z" fill="#23498C"/>
<path d="M18.7117 31.3394L19.4767 32.9155C19.5231 32.9007 19.5694 32.8816 19.6116 32.8605L20.0394 32.3654C20.052 32.3316 20.0584 32.2956 20.0668 32.2597L18.7117 31.3394Z" fill="#23498C"/>
<path d="M20.0417 32.3613L20.0396 32.3634L19.6138 32.8585L19.6096 32.8627L22.3642 37.2483L24.6002 36.4486L20.0417 32.3613Z" fill="#23498C"/>
<path d="M23.089 31.7351L22.0626 31.991L21.9446 31.0919L21.8982 30.7408L19.8582 30.4128C19.8645 30.415 19.8645 30.415 19.8603 30.4192L20.2396 31.515C22.8593 33.0277 24.4462 35.3125 24.912 36.0487C25.0047 36.1947 25.0532 36.2793 25.0553 36.2856L23.089 31.7351Z" fill="#3364AA"/>
<path d="M18.718 31.3205L18.7117 31.3395L20.0668 32.2555L20.6274 32.6363L20.2396 31.5151L19.8603 30.4171L19.8582 30.4129L18.9941 30.2669L18.718 31.3205Z" fill="#E5E3DF"/>
<path d="M20.2545 35.1305C20.2503 35.1242 20.2461 35.12 20.2419 35.1136C20.2334 35.103 20.225 35.0924 20.2166 35.0819C20.1997 35.0607 20.1828 35.0396 20.1681 35.0184C19.8688 34.627 19.5485 34.2843 19.2281 33.9839C19.2007 33.9585 19.1733 33.9331 19.148 33.9077C18.8467 33.6327 18.5495 33.3979 18.2692 33.199L16.5516 32.9917L16.5389 33.0361L16.3493 33.7004L16.0142 34.8724L16.6759 34.8492L18.3619 34.792L17.6053 35.8266L21.1818 37.6671L21.7403 37.4661C21.5759 37.1382 21.323 36.6855 20.9394 36.1016C20.7455 35.816 20.5179 35.4902 20.2545 35.1305Z" fill="#3364AA"/>
<path d="M18.269 33.2032L19.7021 33.3767L19.4766 32.9155L18.7116 31.3394L18.6736 31.3458L16.6441 31.6842L16.5366 32.9959L16.5514 32.998L18.269 33.2032Z" fill="#E5E3DF"/>
<path d="M13.5209 26.7508C13.7295 26.7 13.9382 26.7148 14.1258 26.7825C14.2859 26.5456 14.503 26.3552 14.6611 26.1161C14.8065 25.8749 14.8908 25.5301 14.7306 25.2953C14.4187 25.2699 15.7464 24.7177 16.3661 24.6839C16.7876 24.6648 17.0805 24.2671 17.3376 23.9286C17.3734 23.8694 17.4261 23.8038 17.4873 23.772C17.5905 23.7128 17.7317 23.7276 17.8476 23.717C18.1427 23.7086 18.404 23.5732 18.6211 23.3743C18.8635 23.1522 19.0531 22.8497 19.1754 22.5493C19.3524 22.0944 19.4873 21.3963 19.1016 21.0134C18.7771 20.6664 18.0415 20.5077 17.6032 20.3956C16.4778 20.1121 15.2786 20.0846 14.1363 20.3533C13.7359 20.4527 13.3418 20.586 12.9898 20.8103C12.6969 21.0028 12.4397 21.2714 12.1995 21.5359C11.8665 21.9104 11.5398 22.3144 11.367 22.7862C10.9877 23.8038 11.2701 24.9462 11.6094 25.9722C11.8159 26.6048 12.1067 27.3008 12.7285 27.5399C12.7369 27.542 12.7453 27.5441 12.7538 27.5483C12.8381 27.1675 13.1226 26.8502 13.5209 26.7508Z" fill="black"/>
<path d="M14.7895 27.5188C14.701 27.1634 14.4439 26.8969 14.1257 26.7826C13.9381 26.7149 13.7294 26.7001 13.5208 26.7509C13.1225 26.8503 12.838 27.1677 12.7537 27.5442C12.7199 27.6987 12.7157 27.8616 12.7558 28.0245C12.8949 28.5872 13.4639 28.932 14.0245 28.7924C14.1741 28.7564 14.3048 28.6866 14.4186 28.5978C14.7326 28.3481 14.8928 27.9335 14.7895 27.5188Z" fill="#F09F73"/>
<path d="M16.7476 27.542C16.7476 27.542 18.461 27.9672 18.9942 26.7191" stroke="#0C0C0C" stroke-width="0.643482" stroke-miterlimit="10"/>
<path d="M15.5925 25.4116C15.5925 25.4116 15.681 25.2995 15.8433 25.2022C16.0056 25.1049 16.2416 25.0245 16.5388 25.0901" stroke="#0C0C0C" stroke-width="0.643482" stroke-miterlimit="10"/>
<path d="M17.6453 24.4067C17.6453 24.4067 17.7338 24.2946 17.8961 24.1973C18.0583 24.1 18.2944 24.0196 18.5915 24.0852" stroke="#0C0C0C" stroke-width="0.643482" stroke-miterlimit="10"/>
</svg>
