<svg width="117" height="30" viewBox="0 0 117 30" fill="none" xmlns="http://www.w3.org/2000/svg">
<path d="M15.9558 3.55514C15.9558 3.55514 14.4411 1.57464 13.9016 1.31414C12.6878 0.728444 9.01593 0.900098 7.93522 1.91968C6.63663 3.14627 5.47119 5.68832 5.47119 5.68832L15.9558 3.55514Z" fill="#626A6C"/>
<path d="M7.95497 3.64343C8.36766 2.98845 8.52165 2.34423 8.29891 2.20453C8.07617 2.06483 7.56106 2.48255 7.14837 3.13753C6.73567 3.79252 6.58169 4.43673 6.80443 4.57643C7.02716 4.71613 7.54228 4.29841 7.95497 3.64343Z" fill="#EF311F"/>
<path d="M100.968 3.55514C100.968 3.55514 102.483 1.57464 103.022 1.31414C104.236 0.728444 107.908 0.900098 108.989 1.91968C110.288 3.14627 111.454 5.68832 111.454 5.68832L100.968 3.55514Z" fill="#626A6C"/>
<path d="M110.119 4.57818C110.341 4.43849 110.187 3.79427 109.775 3.13929C109.362 2.4843 108.847 2.06658 108.624 2.20628C108.402 2.34598 108.555 2.9902 108.968 3.64518C109.381 4.30016 109.896 4.71788 110.119 4.57818Z" fill="#EF311F"/>
<path d="M113.393 25.8478L116.323 25.8478L116.323 22.2241L113.393 22.2241L113.393 25.8478Z" fill="#1A1A1A"/>
<path d="M115.501 23.1298L116.217 23.844V24.5487L115.823 24.9421H113.881L113.431 24.4918H112.574V23.7508H113.446L113.975 23.2238L115.501 23.1298Z" fill="#1A1A1A"/>
<path d="M112.573 22.0447H110.938V27.8732H112.573V22.0447Z" fill="#1A1A1A"/>
<path d="M6.56823 22.2612H4.2019V27.8732H6.56823V22.2612Z" fill="#1A1A1A"/>
<path d="M70.7808 27.0442L69.0715 23.5076L75.3068 22.3811L108.193 23.5076V27.0442H70.7808Z" fill="#1A1A1A"/>
<path d="M102.417 29.8261C104.248 29.8261 105.733 28.3451 105.733 26.5181C105.733 24.6911 104.248 23.2101 102.417 23.2101C100.586 23.2101 99.1016 24.6911 99.1016 26.5181C99.1016 28.3451 100.586 29.8261 102.417 29.8261Z" fill="#1A1A1A"/>
<path d="M102.417 29.0747C103.832 29.0747 104.98 27.93 104.98 26.518C104.98 25.106 103.832 23.9613 102.417 23.9613C101.002 23.9613 99.8545 25.106 99.8545 26.518C99.8545 27.93 101.002 29.0747 102.417 29.0747Z" fill="#1A1A1A"/>
<path d="M101.397 26.8173L102.067 27.4858C102.234 27.6523 102.505 27.6523 102.672 27.4858L103.342 26.8173C103.509 26.6509 103.509 26.38 103.342 26.2135L102.672 25.545C102.505 25.3785 102.234 25.3785 102.067 25.545L101.397 26.2135C101.23 26.38 101.23 26.6509 101.397 26.8173Z" fill="#1A1A1A"/>
<path d="M90.3486 29.8261C92.1798 29.8261 93.6642 28.3451 93.6642 26.5181C93.6642 24.6911 92.1798 23.2101 90.3486 23.2101C88.5174 23.2101 87.033 24.6911 87.033 26.5181C87.033 28.3451 88.5174 29.8261 90.3486 29.8261Z" fill="#1A1A1A"/>
<path d="M90.3485 29.0747C91.7637 29.0747 92.9111 27.93 92.9111 26.518C92.9111 25.106 91.7637 23.9613 90.3485 23.9613C88.9332 23.9613 87.7859 25.106 87.7859 26.518C87.7859 27.93 88.9332 29.0747 90.3485 29.0747Z" fill="#1A1A1A"/>
<path d="M89.3283 26.8173L89.9983 27.4858C90.1652 27.6523 90.4366 27.6523 90.6035 27.4858L91.2736 26.8173C91.4404 26.6509 91.4404 26.38 91.2736 26.2135L90.6035 25.545C90.4366 25.3785 90.1652 25.3785 89.9983 25.545L89.3283 26.2135C89.1614 26.38 89.1614 26.6509 89.3283 26.8173Z" fill="#1A1A1A"/>
<path d="M79.6799 29.8261C81.5111 29.8261 82.9955 28.3451 82.9955 26.5181C82.9955 24.6911 81.5111 23.2101 79.6799 23.2101C77.8487 23.2101 76.3643 24.6911 76.3643 26.5181C76.3643 28.3451 77.8487 29.8261 79.6799 29.8261Z" fill="#1A1A1A"/>
<path d="M79.6798 29.0747C81.095 29.0747 82.2424 27.93 82.2424 26.518C82.2424 25.106 81.095 23.9613 79.6798 23.9613C78.2645 23.9613 77.1172 25.106 77.1172 26.518C77.1172 27.93 78.2645 29.0747 79.6798 29.0747Z" fill="#1A1A1A"/>
<path d="M78.6596 26.8173L79.3296 27.4858C79.4965 27.6523 79.7679 27.6523 79.9348 27.4858L80.6049 26.8173C80.7717 26.6509 80.7717 26.38 80.6049 26.2135L79.9348 25.545C79.7679 25.3785 79.4965 25.3785 79.3296 25.545L78.6596 26.2135C78.4927 26.38 78.4927 26.6509 78.6596 26.8173Z" fill="#1A1A1A"/>
<path d="M74.6215 24.963L109.778 24.963L109.778 22.0526L74.6215 22.0526L74.6215 24.963Z" fill="#1A1A1A"/>
<path d="M111.889 22.0525V27.0443H107.921L99.52 22.0525H111.889Z" fill="#EF311F"/>
<path d="M75.3648 27.0808L78.8213 27.0808L78.8213 24.9373L75.3648 24.9373L75.3648 27.0808Z" fill="#1A1A1A"/>
<path d="M3.70224 22.3811H0.772217V26.0048H3.70224V22.3811Z" fill="#1A1A1A"/>
<path d="M1.48808 23.2867L0.772217 24.001V24.7057L1.16646 25.099H3.10828L3.55872 24.6488H4.41551V23.9078H3.54316L3.01405 23.3808L1.48808 23.2867Z" fill="#1A1A1A"/>
<path d="M46.2089 27.2021L70.7809 27.0442L71.795 25.4907L41.5826 22.3811L8.79639 23.6646V27.2021H46.2089Z" fill="#1A1A1A"/>
<path d="M14.5725 29.9831C16.4036 29.9831 17.8881 28.502 17.8881 26.6751C17.8881 24.8481 16.4036 23.3671 14.5725 23.3671C12.7413 23.3671 11.2568 24.8481 11.2568 26.6751C11.2568 28.502 12.7413 29.9831 14.5725 29.9831Z" fill="#1A1A1A"/>
<path d="M14.5726 29.2317C15.9879 29.2317 17.1352 28.087 17.1352 26.675C17.1352 25.263 15.9879 24.1183 14.5726 24.1183C13.1573 24.1183 12.01 25.263 12.01 26.675C12.01 28.087 13.1573 29.2317 14.5726 29.2317Z" fill="#1A1A1A"/>
<path d="M15.5926 26.9743L14.9226 27.6428C14.7557 27.8093 14.4843 27.8093 14.3174 27.6428L13.6474 26.9743C13.4805 26.8078 13.4805 26.537 13.6474 26.3705L14.3174 25.702C14.4843 25.5355 14.7557 25.5355 14.9226 25.702L15.5926 26.3705C15.7595 26.537 15.7595 26.8078 15.5926 26.9743Z" fill="#1A1A1A"/>
<path d="M26.6411 29.9831C28.4722 29.9831 29.9567 28.502 29.9567 26.6751C29.9567 24.8481 28.4722 23.3671 26.6411 23.3671C24.8099 23.3671 23.3254 24.8481 23.3254 26.6751C23.3254 28.502 24.8099 29.9831 26.6411 29.9831Z" fill="#1A1A1A"/>
<path d="M26.641 29.2317C28.0562 29.2317 29.2035 28.087 29.2035 26.675C29.2035 25.263 28.0562 24.1183 26.641 24.1183C25.2257 24.1183 24.0784 25.263 24.0784 26.675C24.0784 28.087 25.2257 29.2317 26.641 29.2317Z" fill="#1A1A1A"/>
<path d="M27.6613 26.9743L26.9912 27.6428C26.8243 27.8093 26.5529 27.8093 26.386 27.6428L25.716 26.9743C25.5491 26.8078 25.5491 26.537 25.716 26.3705L26.386 25.702C26.5529 25.5355 26.8243 25.5355 26.9912 25.702L27.6613 26.3705C27.8281 26.537 27.8281 26.8078 27.6613 26.9743Z" fill="#1A1A1A"/>
<path d="M37.3098 29.9831C39.1409 29.9831 40.6254 28.502 40.6254 26.6751C40.6254 24.8481 39.1409 23.3671 37.3098 23.3671C35.4786 23.3671 33.9941 24.8481 33.9941 26.6751C33.9941 28.502 35.4786 29.9831 37.3098 29.9831Z" fill="#1A1A1A"/>
<path d="M37.3099 29.2317C38.7252 29.2317 39.8725 28.087 39.8725 26.675C39.8725 25.263 38.7252 24.1183 37.3099 24.1183C35.8946 24.1183 34.7473 25.263 34.7473 26.675C34.7473 28.087 35.8946 29.2317 37.3099 29.2317Z" fill="#1A1A1A"/>
<path d="M38.33 26.9743L37.6599 27.6428C37.493 27.8093 37.2216 27.8093 37.0547 27.6428L36.3847 26.9743C36.2178 26.8078 36.2178 26.537 36.3847 26.3705L37.0547 25.702C37.2216 25.5355 37.493 25.5355 37.6599 25.702L38.33 26.3705C38.4968 26.537 38.4968 26.8078 38.33 26.9743Z" fill="#1A1A1A"/>
<path d="M42.3676 22.2095H7.21069V25.1198H42.3676V22.2095Z" fill="#1A1A1A"/>
<path d="M5.10107 22.2095V27.2013H9.06859L17.4696 22.2095H5.10107Z" fill="#EF311F"/>
<path d="M41.6248 25.0947H38.1682V27.2383H41.6248V25.0947Z" fill="#1A1A1A"/>
<path d="M113.804 14.2469C113.773 14.0779 113.733 13.9105 113.684 13.7449L112.675 7.78702L111.418 5.68921C111.332 5.57017 111.224 5.46666 111.095 5.38816L110.841 5.23376L104 3.55603H96.985H84.6804H68.4559H67.625H59.2828H58.5315H52.7933H49.2642H48.4333H32.2088H19.9051H12.89L6.04864 5.2329L5.79445 5.3873C5.66563 5.4658 5.5567 5.56931 5.4711 5.68834L4.32296 7.78702L3.20507 13.7449C3.15579 13.9105 3.11602 14.0779 3.08489 14.2469C3.03302 14.529 3.00708 14.8154 3.00708 15.1026V15.6228C3.00708 16.0247 3.05809 16.425 3.15838 16.814C3.17308 16.8692 3.18778 16.9253 3.2042 16.9796L3.30881 17.3307L3.95811 19.513L4.03246 19.7632L4.21143 20.3653H57.7733H59.1151H112.677L113.58 17.3307L113.684 16.9796C113.701 16.9244 113.716 16.8692 113.73 16.814C113.787 16.5914 113.829 16.3663 113.854 16.1377C113.873 15.9669 113.881 15.7953 113.881 15.6228V15.1026C113.881 14.8154 113.855 14.529 113.804 14.2469Z" fill="#BEC1C4"/>
<path d="M41.5825 22.3811L45.5682 23.4007V25.6986L46.1085 26.0092H59.0944V22.0525H41.5825V22.3811Z" fill="#626A6C"/>
<path d="M113.684 13.129L112.675 7.78613H59.1151H57.7733H4.32298L3.20509 13.129C3.07367 13.5698 3.0071 14.0269 3.0071 14.4867C3.0071 14.4867 2.93534 15.979 3.06676 16.4198L3.20509 16.9787L18.2728 16.7139C18.5988 16.7139 18.9048 16.5595 19.0993 16.2981L22.632 9.19646C22.8256 8.9351 23.1326 8.78069 23.4576 8.78069H57.7733H59.1151H93.4316C93.7576 8.78069 94.0636 8.9351 94.2573 9.19646L97.7899 16.2981C97.9836 16.5595 98.2905 16.7139 98.6156 16.7139H113.777C113.777 16.7139 113.986 15.7538 113.959 14.7645C113.942 14.0916 113.815 13.5698 113.684 13.129Z" fill="#EF311F"/>
<path d="M92.7044 19.3629C92.3863 19.3629 92.0863 19.2163 91.8918 18.9653L90.3511 16.9779C90.1566 16.7268 89.8566 16.5802 89.5384 16.5802H59.115H57.7732H27.3508C27.0326 16.5802 26.7326 16.7268 26.5381 16.9779L24.9974 18.9653C24.8029 19.2163 24.5029 19.3629 24.1847 19.3629L3.90967 19.3491L4.2114 20.3644L57.7732 20.2151H59.115L112.677 20.3644L112.982 19.3388L92.7044 19.3629Z" fill="#626A6C"/>
<path d="M112.675 20.2151H4.2019V22.381H112.675V20.2151Z" fill="#626A6C"/>
<path d="M11.7878 15.7995H5.84045C4.94475 15.7995 4.32486 14.9076 4.63783 14.0709L5.46782 9.54748C5.65543 9.04718 6.1344 8.71509 6.67043 8.71509H12.6178C13.5135 8.71509 14.1334 9.607 13.8204 10.4437L12.9904 14.9671C12.802 15.4674 12.323 15.7995 11.7878 15.7995Z" fill="#1A1A1A"/>
<path d="M105.083 15.7995H111.03C111.926 15.7995 112.546 14.9076 112.233 14.0709L111.403 9.54748C111.215 9.04718 110.736 8.71509 110.2 8.71509H104.253C103.357 8.71509 102.737 9.607 103.05 10.4437L103.88 14.9671C104.068 15.4674 104.547 15.7995 105.083 15.7995Z" fill="#1A1A1A"/>
<path d="M75.3068 22.3811L71.3203 23.4007V25.6986L70.7808 26.0092H57.7949V22.0525H75.3068V22.3811Z" fill="#626A6C"/>
<path d="M27.6274 14.3918C28.9548 14.3918 30.0309 13.3182 30.0309 11.9938C30.0309 10.6694 28.9548 9.59583 27.6274 9.59583C26.3 9.59583 25.2239 10.6694 25.2239 11.9938C25.2239 13.3182 26.3 14.3918 27.6274 14.3918Z" fill="#1A1A1A"/>
<path d="M34.4196 14.3918C35.747 14.3918 36.8231 13.3182 36.8231 11.9938C36.8231 10.6694 35.747 9.59583 34.4196 9.59583C33.0922 9.59583 32.0161 10.6694 32.0161 11.9938C32.0161 13.3182 33.0922 14.3918 34.4196 14.3918Z" fill="#1A1A1A"/>
<path d="M41.2126 14.3918C42.54 14.3918 43.6161 13.3182 43.6161 11.9938C43.6161 10.6694 42.54 9.59583 41.2126 9.59583C39.8852 9.59583 38.8091 10.6694 38.8091 11.9938C38.8091 13.3182 39.8852 14.3918 41.2126 14.3918Z" fill="#1A1A1A"/>
<path d="M75.4807 14.3918C76.8081 14.3918 77.8842 13.3182 77.8842 11.9938C77.8842 10.6694 76.8081 9.59583 75.4807 9.59583C74.1532 9.59583 73.0771 10.6694 73.0771 11.9938C73.0771 13.3182 74.1532 14.3918 75.4807 14.3918Z" fill="#1A1A1A"/>
<path d="M82.2726 14.3918C83.6001 14.3918 84.6761 13.3182 84.6761 11.9938C84.6761 10.6694 83.6001 9.59583 82.2726 9.59583C80.9452 9.59583 79.8691 10.6694 79.8691 11.9938C79.8691 13.3182 80.9452 14.3918 82.2726 14.3918Z" fill="#1A1A1A"/>
<path d="M89.0656 14.3918C90.393 14.3918 91.4691 13.3182 91.4691 11.9938C91.4691 10.6694 90.393 9.59583 89.0656 9.59583C87.7382 9.59583 86.6621 10.6694 86.6621 11.9938C86.6621 13.3182 87.7382 14.3918 89.0656 14.3918Z" fill="#1A1A1A"/>
<path d="M57.9774 3.55518H55.7244V26.1662H57.9774V3.55518Z" fill="#4A4E4F"/>
<path d="M57.4146 3.55518H56.2881V26.1662H57.4146V3.55518Z" fill="#1A1A1A"/>
<path d="M53.2117 15.1837H22.0198V16.0463H53.2117V15.1837Z" fill="white"/>
<path d="M53.2117 17.6506H22.0198V18.5132H53.2117V17.6506Z" fill="white"/>
<path d="M53.2117 20.1168H22.0198V20.9794H53.2117V20.1168Z" fill="white"/>
<path d="M95.4659 15.1837H64.2739V16.0463H95.4659V15.1837Z" fill="white"/>
<path d="M95.4659 17.6506H64.2739V18.5132H95.4659V17.6506Z" fill="white"/>
<path d="M95.4659 20.1168H64.2739V20.9794H95.4659V20.1168Z" fill="white"/>
</svg>
