<svg width="61" height="45" viewBox="0 0 61 45" fill="none" xmlns="http://www.w3.org/2000/svg">
<path d="M1.00569 41.0331C-0.9248 37.646 0.712745 32.465 5.59166 26.4928C10.1544 20.9056 17.046 15.1746 24.9366 10.3743C32.7239 5.6376 40.5744 2.36271 47.0677 1.11241C53.8729 -0.197123 58.5474 0.896622 60.2903 4.17151C62.0269 7.43582 60.5537 12.3164 56.1195 17.9544C51.9045 23.3131 45.4196 28.9172 37.803 33.7576C30.0832 38.6615 22.0893 42.2178 15.3094 43.7325C8.03217 45.3615 2.92986 44.4095 1.00569 41.0331ZM57.7465 4.2646C56.5326 1.99037 52.5915 1.3155 46.8907 2.42617C40.6524 3.64051 33.0695 6.82654 25.5162 11.43C17.8638 16.0948 11.2061 21.6249 6.82456 26.9857C2.74861 31.9721 1.16375 36.1969 2.49782 38.5452C3.82977 40.8871 8.11437 41.4477 14.2072 40.1001C20.7342 38.6552 28.4794 35.2258 35.9948 30.4806C43.4133 25.7968 49.7127 20.3936 53.7844 15.2486C57.5189 10.5267 58.9562 6.5346 57.7465 4.2646Z" fill="#486EB5"/>
</svg>
