<svg width="61" height="44" viewBox="0 0 61 44" fill="none" xmlns="http://www.w3.org/2000/svg">
<path d="M60.2903 39.4062C58.5474 42.7234 53.8729 43.9271 47.0677 42.7805C40.5744 41.6846 32.7239 38.5959 24.9366 34.0453C17.0439 29.4334 10.1544 23.8673 5.59165 18.388C0.714847 12.5301 -0.922699 7.38924 1.00568 3.95568C2.92985 0.532699 8.03216 -0.537776 15.3073 0.915615C22.0872 2.26958 30.0832 5.63544 37.803 10.3553C45.4196 15.0137 51.9066 20.4634 56.1195 25.7227C60.5537 31.2528 62.0269 36.0995 60.2903 39.4062ZM2.49781 6.41185C1.16375 8.79185 2.74861 12.9786 6.82455 17.8676C11.2061 23.1248 17.8638 28.4962 25.5162 32.9791C33.0695 37.4027 40.6524 40.4068 46.8907 41.4731C52.5915 42.4483 56.5347 41.6783 57.7465 39.3744C58.9562 37.0748 57.5189 33.1166 53.7844 28.4877C49.7126 23.44 43.4132 18.1871 35.9948 13.6788C28.4793 9.1113 20.7342 5.86815 14.2072 4.57765C8.11436 3.3739 3.82766 4.03819 2.49781 6.41185Z" fill="#19386D"/>
</svg>
