<svg width="195" height="62" viewBox="0 0 195 62" fill="none" xmlns="http://www.w3.org/2000/svg">
<path d="M189.718 45.7062H4.77051V0.978975C4.77051 0.438105 5.20861 0 5.74948 0H188.877C189.342 0 189.718 0.375905 189.718 0.841053V45.7062Z" fill="#BEC1C4"/>
<path d="M189.021 0H5.97925C5.43823 0 5 0.421144 5 0.941074V3H190V0.941074C190 0.421144 189.562 0 189.021 0Z" fill="#1A1A1A"/>
<path d="M184.929 45.7062H163.716V10.3117C163.716 9.1569 164.652 8.22119 165.806 8.22119H182.836C183.99 8.22119 184.926 9.1569 184.926 10.3117V45.7062H184.929Z" fill="#1A1A1A"/>
<path d="M30.2105 45.7062H8.99756V10.3117C8.99756 9.1569 9.93326 8.22119 11.088 8.22119H28.1173C29.2721 8.22119 30.2078 9.1569 30.2078 10.3117V45.7062H30.2105Z" fill="#1A1A1A"/>
<path d="M46.3552 45.7064H5.45459V48.3647H46.3552V45.7064Z" fill="#1A1A1A"/>
<path d="M0.749105 43.6617H0V50.4091H0.749105V43.6617Z" fill="#1A1A1A"/>
<path d="M5.45475 45.7064H0.375977V48.3647H5.45475V45.7064Z" fill="#1A1A1A"/>
<path d="M167.364 48.366L189.407 48.366L189.407 45.7076L167.364 45.7076L167.364 48.366Z" fill="#1A1A1A"/>
<path d="M193.884 50.4105L194.633 50.4105L194.633 43.6631L193.884 43.6631L193.884 50.4105Z" fill="#1A1A1A"/>
<path d="M189.179 48.366L194.258 48.366L194.258 45.7076L189.179 45.7076L189.179 48.366Z" fill="#1A1A1A"/>
<path d="M153.402 45.7064H41.0332V48.3647H153.402V45.7064Z" fill="#1A1A1A"/>
<path d="M67.7547 48.3918V47.0369H65.3938V45.7064H32.4602V47.0369H29.5124V48.3918C26.6323 49.2382 24.5283 51.8993 24.5283 55.0553C24.5283 58.8901 27.6383 62.0001 31.4731 62.0001C34.9049 62.0001 37.7526 59.5094 38.3151 56.2398H58.9547C59.5172 59.5094 62.3649 62.0001 65.7967 62.0001C69.6315 62.0001 72.7415 58.8901 72.7415 55.0553C72.7388 51.8993 70.6348 49.2382 67.7547 48.3918Z" fill="#1A1A1A"/>
<path d="M167.756 48.3918V47.0369H164.808V45.7064H131.875V47.0369H129.514V48.3918C126.634 49.2382 124.53 51.8993 124.53 55.0553C124.53 58.8901 127.64 62.0001 131.475 62.0001C134.906 62.0001 137.754 59.5094 138.317 56.2398H158.956C159.519 59.5094 162.366 62.0001 165.798 62.0001C169.633 62.0001 172.743 58.8901 172.743 55.0553C172.74 51.8993 170.636 49.2382 167.756 48.3918Z" fill="#1A1A1A"/>
<path d="M59.2172 35.2784H51.545C48.7406 35.2784 46.4473 32.9851 46.4473 30.1807C46.4473 27.3763 48.7406 25.083 51.545 25.083H59.2172C62.0216 25.083 64.3149 27.3763 64.3149 30.1807C64.3149 32.9851 62.0216 35.2784 59.2172 35.2784Z" fill="#004768"/>
<path d="M59.2876 34.6159H51.4747C49.0245 34.6159 47.0396 32.6309 47.0396 30.1808C47.0396 27.7307 49.0245 25.7457 51.4747 25.7457H59.2876C61.7377 25.7457 63.7227 27.7307 63.7227 30.1808C63.72 32.6309 61.735 34.6159 59.2876 34.6159Z" fill="white"/>
<path d="M41.0386 37.823L61.0075 37.9907C62.1001 37.9907 63.6713 37.4958 64.3555 36.6439L72.1089 26.957C73.3772 25.0342 76.4575 26.0916 76.4575 26.627L73.3826 39.6999L40.6519 39.5322L41.0386 37.823Z" fill="#C6443B"/>
<path d="M67.2251 30.478C67.244 30.6376 67.1818 30.7944 67.1223 30.9431C66.7464 31.8734 66.3705 32.8037 65.9946 33.734C65.589 34.7374 63.8149 38.1854 67.509 39.3239C67.5956 39.351 72.8664 39.708 72.9556 39.6998C73.1016 39.6836 73.153 39.497 73.1476 39.3888C73.0827 38.1935 73.2179 36.9901 73.6939 35.8921C74.1699 34.7914 75.5085 32.7875 75.3057 32.682C75.0704 32.6253 74.8243 32.6685 74.5863 32.6442C74.3402 32.6226 74.1023 32.5414 73.8697 32.4603C72.8474 32.1087 71.8198 31.7545 70.8489 31.2839C70.0755 30.908 69.3372 30.4591 68.5448 30.1237C68.2392 29.9939 67.6984 29.7019 67.3603 29.7505C66.9574 29.8073 67.1953 30.2238 67.2251 30.478Z" fill="#F4DECA"/>
<path d="M52.4833 37.0876C52.4833 37.0876 59.9825 36.8117 61.121 37.0876C62.2596 37.3634 62.2271 37.5176 62.7193 37.3337C63.2115 37.1498 64.6313 37.2417 64.6123 38.41C64.5934 39.5783 66.0078 39.27 66.0078 39.27L51.6152 39.1456L52.4833 37.0876Z" fill="#F4DECA"/>
<path d="M36.1438 38.8832H64.0824C65.175 38.8832 66.2053 38.3883 66.8895 37.5364L75.7301 26.4919C75.9707 26.189 76.4602 26.3594 76.4602 26.7488V40.5951H35.7598L36.1438 38.8832Z" fill="#EF311F"/>
<path d="M41.0388 16.3017L61.0077 16.4694C62.1003 16.4694 63.6715 15.9745 64.3557 15.1226L72.1091 5.43566C73.3774 3.51286 76.4577 4.57026 76.4577 5.10573L73.3828 18.1786L40.6548 18.0109L41.0388 16.3017Z" fill="#C6443B"/>
<path d="M67.2251 8.95682C67.244 9.11638 67.1818 9.27323 67.1223 9.42197C66.7464 10.3523 66.3705 11.2826 65.9946 12.2129C65.589 13.2162 63.8149 16.6642 67.509 17.8028C67.5956 17.8298 72.8664 18.1868 72.9556 18.1787C73.1016 18.1624 73.153 17.9758 73.1476 17.8677C73.0827 16.6723 73.2179 15.4689 73.6939 14.3709C74.1699 13.2703 75.5085 11.2663 75.3057 11.1609C75.0704 11.1041 74.8243 11.1473 74.5863 11.123C74.3402 11.1014 74.1023 11.0202 73.8697 10.9391C72.8474 10.5875 71.8198 10.2333 70.8489 9.76272C70.0755 9.38681 69.3372 8.93789 68.5448 8.60255C68.2392 8.47274 67.6984 8.18067 67.3603 8.22935C66.9574 8.28614 67.1953 8.70261 67.2251 8.95682Z" fill="#F4DECA"/>
<path d="M52.4833 15.5663C52.4833 15.5663 59.9825 15.2904 61.121 15.5663C62.2596 15.8421 62.2271 15.9963 62.7193 15.8124C63.2115 15.6285 64.6313 15.7204 64.6123 16.8887C64.5934 18.057 66.0078 17.7487 66.0078 17.7487L51.6152 17.6243L52.4833 15.5663Z" fill="#F4DECA"/>
<path d="M36.1438 17.3618H64.0824C65.175 17.3618 66.2053 16.8669 66.8895 16.0151L75.7301 4.97051C75.9707 4.66763 76.4602 4.838 76.4602 5.22743V19.0737H35.7598L36.1438 17.3618Z" fill="#EF311F"/>
<path fill-rule="evenodd" clip-rule="evenodd" d="M36.0064 20H57V42.9533C57 43.3475 56.485 44 55.8476 44C54.6985 44 55.0365 43.2034 54.2897 43.2034C53.5429 43.2034 53.9195 44 52.7318 44C51.544 44 51.9206 43.2034 51.1738 43.2034C50.427 43.2034 50.765 44 49.6159 44C48.4667 44 48.8047 43.2034 48.0579 43.2034C47.3112 43.2034 47.6298 44 46.5 44C45.3702 44 45.6888 43.2034 44.9421 43.2034C44.1953 43.2034 44.5526 44 43.3841 44C42.2157 44 42.573 43.2034 41.8262 43.2034C41.0794 43.2034 41.3788 44 40.2682 44C39.1577 44 39.4571 43.2034 38.7103 43.2034C37.9635 43.2034 38.221 44 37.1524 44C36.515 44 36 43.3475 36 42.9533V20H36.0064Z" fill="#8AABC4"/>
<path fill-rule="evenodd" clip-rule="evenodd" d="M38.5098 20.6827L37.7915 43.5859C38.0988 43.0288 38.9073 42.9449 39.2247 43.5426L38.5098 20.6827Z" fill="#7799AD"/>
<path fill-rule="evenodd" clip-rule="evenodd" d="M41.75 20.6829L41.0317 43.5968C41.3558 43.0019 42.1509 42.9559 42.4682 43.5806L41.75 20.6829Z" fill="#7799AD"/>
<path fill-rule="evenodd" clip-rule="evenodd" d="M44.9907 20.6829L44.2725 43.6157C44.6132 43.0019 45.3415 42.9343 45.7089 43.5698L44.9907 20.6829Z" fill="#7799AD"/>
<path fill-rule="evenodd" clip-rule="evenodd" d="M48.2309 20.6829L47.5127 43.5887C47.8367 42.9802 48.6318 42.9748 48.9492 43.5887L48.2309 20.6829Z" fill="#7799AD"/>
<path fill-rule="evenodd" clip-rule="evenodd" d="M51.4717 20.6829L50.7534 43.5887C51.1209 42.9451 51.8425 42.9802 52.1899 43.6157L51.4717 20.6829Z" fill="#7799AD"/>
<path fill-rule="evenodd" clip-rule="evenodd" d="M54.7119 20.6829L53.9937 43.5995C54.3478 42.9505 55.0693 42.9748 55.4301 43.6049L54.7119 20.6829Z" fill="#7799AD"/>
<path fill-rule="evenodd" clip-rule="evenodd" d="M36.0064 3H57V19.9124C57 20.2038 56.485 20.6829 55.8476 20.6829C54.6985 20.6829 55.0365 20.0976 54.2897 20.0976C53.5429 20.0976 53.9195 20.6829 52.7318 20.6829C51.544 20.6829 51.9206 20.0976 51.1738 20.0976C50.427 20.0976 50.765 20.6829 49.6159 20.6829C48.4667 20.6829 48.8047 20.0976 48.0579 20.0976C47.3112 20.0976 47.6298 20.6829 46.5 20.6829C45.3702 20.6829 45.6888 20.0976 44.9421 20.0976C44.1953 20.0976 44.5526 20.6829 43.3841 20.6829C42.2157 20.6829 42.573 20.0976 41.8262 20.0976C41.0794 20.0976 41.3788 20.6829 40.2682 20.6829C39.1577 20.6829 39.4571 20.0976 38.7103 20.0976C37.9635 20.0976 38.221 20.6829 37.1524 20.6829C36.515 20.6829 36 20.2038 36 19.9124V3H36.0064Z" fill="#8AABC4"/>
<path fill-rule="evenodd" clip-rule="evenodd" d="M38.6916 3.47925L37.9995 20.4434C38.1959 20.2828 38.2989 20.0977 38.7173 20.0977C39.1068 20.0977 39.213 20.2583 39.3804 20.4107L38.6916 3.47925Z" fill="#7799AD"/>
<path fill-rule="evenodd" clip-rule="evenodd" d="M41.8141 3.47925L41.1221 20.4516C41.3216 20.2882 41.4086 20.0977 41.8334 20.0977C42.2487 20.0977 42.3227 20.2773 42.5062 20.4407L41.8141 3.47925Z" fill="#7799AD"/>
<path fill-rule="evenodd" clip-rule="evenodd" d="M44.9362 3.47925L44.2441 20.4652C44.4534 20.2991 44.5113 20.0977 44.9491 20.0977C45.3579 20.0977 45.448 20.2719 45.6283 20.4325L44.9362 3.47925Z" fill="#7799AD"/>
<path fill-rule="evenodd" clip-rule="evenodd" d="M48.0578 3.47925L47.3657 20.4461C47.5589 20.2828 47.6425 20.0977 48.061 20.0977C48.4795 20.0977 48.5567 20.2828 48.7498 20.4461L48.0578 3.47925Z" fill="#7799AD"/>
<path fill-rule="evenodd" clip-rule="evenodd" d="M51.1808 3.47925L50.4888 20.4461C50.6819 20.2828 50.7592 20.0977 51.1776 20.0977C51.6154 20.0977 51.6669 20.2991 51.8729 20.4652L51.1808 3.47925Z" fill="#7799AD"/>
<path fill-rule="evenodd" clip-rule="evenodd" d="M54.3029 3.47925L53.6108 20.4543C53.8072 20.291 53.8651 20.0977 54.2932 20.0977C54.7246 20.0977 54.7922 20.2937 54.995 20.457L54.3029 3.47925Z" fill="#7799AD"/>
<path d="M99.915 35.2784H92.2427C89.4383 35.2784 87.145 32.9851 87.145 30.1807C87.145 27.3763 89.4383 25.083 92.2427 25.083H99.915C102.719 25.083 105.013 27.3763 105.013 30.1807C105.013 32.9851 102.719 35.2784 99.915 35.2784Z" fill="#004768"/>
<path d="M99.9853 34.6159H92.1724C89.7223 34.6159 87.7373 32.6309 87.7373 30.1807C87.7373 27.7306 89.7223 25.7456 92.1724 25.7456H99.9853C102.435 25.7456 104.42 27.7306 104.42 30.1807C104.42 32.6309 102.435 34.6159 99.9853 34.6159Z" fill="white"/>
<path d="M81.7363 37.823L101.705 37.9906C102.798 37.9906 104.369 37.4958 105.053 36.6439L112.807 26.9569C114.075 25.0341 117.155 26.0915 117.155 26.627L114.08 39.6998L81.3496 39.5321L81.7363 37.823Z" fill="#C6443B"/>
<path d="M107.925 30.4779C107.944 30.6375 107.882 30.7943 107.823 30.9431C107.447 31.8734 107.071 32.8037 106.695 33.734C106.289 34.7373 104.515 38.1853 108.209 39.3239C108.296 39.3509 113.567 39.7079 113.656 39.6998C113.802 39.6836 113.853 39.4969 113.848 39.3888C113.783 38.1935 113.918 36.99 114.394 35.8921C114.87 34.7914 116.209 32.7875 116.006 32.682C115.771 32.6252 115.525 32.6685 115.287 32.6441C115.04 32.6225 114.802 32.5414 114.57 32.4602C113.548 32.1087 112.52 31.7544 111.549 31.2838C110.776 30.9079 110.037 30.459 109.245 30.1237C108.939 29.9939 108.399 29.7018 108.06 29.7505C107.655 29.8073 107.893 30.2237 107.925 30.4779Z" fill="#F4DECA"/>
<path d="M93.184 37.0875C93.184 37.0875 100.683 36.8117 101.822 37.0875C102.96 37.3633 102.928 37.5175 103.42 37.3336C103.912 37.1497 105.332 37.2416 105.313 38.4099C105.294 39.5782 106.708 39.2699 106.708 39.2699L92.3159 39.1455L93.184 37.0875Z" fill="#F4DECA"/>
<path d="M76.8415 38.8832H104.78C105.873 38.8832 106.903 38.3883 107.587 37.5364L116.428 26.4919C116.669 26.189 117.158 26.3594 117.158 26.7488V40.5951H76.4575L76.8415 38.8832Z" fill="#EF311F"/>
<path d="M81.7366 16.3017L101.705 16.4694C102.798 16.4694 104.369 15.9745 105.053 15.1226L112.807 5.43566C114.075 3.51286 117.155 4.57026 117.155 5.10573L114.081 18.1786L81.3525 18.0109L81.7366 16.3017Z" fill="#C6443B"/>
<path d="M107.925 8.95682C107.944 9.11638 107.882 9.27323 107.823 9.42197C107.447 10.3523 107.071 11.2826 106.695 12.2129C106.289 13.2162 104.515 16.6642 108.209 17.8028C108.296 17.8298 113.567 18.1868 113.656 18.1787C113.802 18.1624 113.853 17.9758 113.848 17.8677C113.783 16.6723 113.918 15.4689 114.394 14.3709C114.87 13.2703 116.209 11.2663 116.006 11.1609C115.771 11.1041 115.525 11.1473 115.287 11.123C115.04 11.1014 114.802 11.0202 114.57 10.9391C113.548 10.5875 112.52 10.2333 111.549 9.76272C110.776 9.38681 110.037 8.93789 109.245 8.60255C108.939 8.47274 108.399 8.18067 108.06 8.22935C107.655 8.28614 107.893 8.70261 107.925 8.95682Z" fill="#F4DECA"/>
<path d="M93.184 15.5663C93.184 15.5663 100.683 15.2904 101.822 15.5663C102.96 15.8421 102.928 15.9963 103.42 15.8124C103.912 15.6285 105.332 15.7204 105.313 16.8887C105.294 18.057 106.708 17.7487 106.708 17.7487L92.3159 17.6243L93.184 15.5663Z" fill="#F4DECA"/>
<path d="M76.8415 17.3618H104.78C105.873 17.3618 106.903 16.8669 107.587 16.015L116.428 4.97045C116.669 4.66756 117.158 4.83794 117.158 5.22737V19.0736H76.4575L76.8415 17.3618Z" fill="#EF311F"/>
<path fill-rule="evenodd" clip-rule="evenodd" d="M76.0064 20.0393H97V42.8721C97 43.2643 96.485 43.9133 95.8476 43.9133C94.6985 43.9133 95.0365 43.1209 94.2897 43.1209C93.5429 43.1209 93.9195 43.9133 92.7318 43.9133C91.544 43.9133 91.9206 43.1209 91.1738 43.1209C90.427 43.1209 90.765 43.9133 89.6159 43.9133C88.4667 43.9133 88.8047 43.1209 88.0579 43.1209C87.3112 43.1209 87.6298 43.9133 86.5 43.9133C85.3702 43.9133 85.6888 43.1209 84.9421 43.1209C84.1953 43.1209 84.5526 43.9133 83.3841 43.9133C82.2157 43.9133 82.573 43.1209 81.8262 43.1209C81.0794 43.1209 81.3788 43.9133 80.2682 43.9133C79.1577 43.9133 79.4571 43.1209 78.7103 43.1209C77.9635 43.1209 78.221 43.9133 77.1524 43.9133C76.515 43.9133 76 43.2643 76 42.8721V20.0393H76.0064Z" fill="#8AABC4"/>
<path fill-rule="evenodd" clip-rule="evenodd" d="M78.6911 20.6827L77.999 43.5859C78.2952 43.0288 79.0741 42.9449 79.3799 43.5426L78.6911 20.6827Z" fill="#7799AD"/>
<path fill-rule="evenodd" clip-rule="evenodd" d="M81.8132 20.6828L81.1211 43.5968C81.4333 43.0018 82.1994 42.9558 82.5052 43.5805L81.8132 20.6828Z" fill="#7799AD"/>
<path fill-rule="evenodd" clip-rule="evenodd" d="M84.9357 20.6828L84.2437 43.6157C84.572 43.0018 85.2737 42.9342 85.6278 43.5697L84.9357 20.6828Z" fill="#7799AD"/>
<path fill-rule="evenodd" clip-rule="evenodd" d="M88.0549 20.6828L87.3628 43.5886C87.675 42.9802 88.4411 42.9748 88.7469 43.5886L88.0549 20.6828Z" fill="#7799AD"/>
<path fill-rule="evenodd" clip-rule="evenodd" d="M91.1774 20.6828L90.4854 43.5886C90.8394 42.945 91.5347 42.9802 91.8695 43.6157L91.1774 20.6828Z" fill="#7799AD"/>
<path fill-rule="evenodd" clip-rule="evenodd" d="M94.299 20.6828L93.6069 43.5995C93.9481 42.9504 94.6434 42.9748 94.991 43.6049L94.299 20.6828Z" fill="#7799AD"/>
<path fill-rule="evenodd" clip-rule="evenodd" d="M76.0064 3H97V20.2157C97 20.5122 96.485 21 95.8476 21C94.6985 21 95.0365 20.4042 94.2897 20.4042C93.5429 20.4042 93.9195 21 92.7318 21C91.544 21 91.9206 20.4042 91.1738 20.4042C90.427 20.4042 90.765 21 89.6159 21C88.4667 21 88.8047 20.4042 88.0579 20.4042C87.3112 20.4042 87.6298 21 86.5 21C85.3702 21 85.6888 20.4042 84.9421 20.4042C84.1953 20.4042 84.5526 21 83.3841 21C82.2157 21 82.573 20.4042 81.8262 20.4042C81.0794 20.4042 81.3788 21 80.2682 21C79.1577 21 79.4571 20.4042 78.7103 20.4042C77.9635 20.4042 78.221 21 77.1524 21C76.515 21 76 20.5122 76 20.2157V3H76.0064Z" fill="#8AABC4"/>
<path fill-rule="evenodd" clip-rule="evenodd" d="M79.122 3.59418L78.4463 20.445C78.638 20.2854 78.7386 20.1015 79.1472 20.1015C79.5275 20.1015 79.6312 20.2611 79.7947 20.4125L79.122 3.59418Z" fill="#7799AD"/>
<path fill-rule="evenodd" clip-rule="evenodd" d="M82.1704 3.59418L81.4946 20.4531C81.6895 20.2908 81.7744 20.1015 82.1893 20.1015C82.5947 20.1015 82.667 20.28 82.8462 20.4423L82.1704 3.59418Z" fill="#7799AD"/>
<path fill-rule="evenodd" clip-rule="evenodd" d="M85.2197 3.59418L84.5439 20.4666C84.7482 20.3017 84.8048 20.1015 85.2323 20.1015C85.6314 20.1015 85.7194 20.2746 85.8955 20.4342L85.2197 3.59418Z" fill="#7799AD"/>
<path fill-rule="evenodd" clip-rule="evenodd" d="M88.2656 3.59418L87.5898 20.4477C87.7784 20.2854 87.8601 20.1015 88.2687 20.1015C88.6773 20.1015 88.7528 20.2854 88.9414 20.4477L88.2656 3.59418Z" fill="#7799AD"/>
<path fill-rule="evenodd" clip-rule="evenodd" d="M91.314 3.59418L90.6382 20.4477C90.8268 20.2854 90.9022 20.1015 91.3108 20.1015C91.7383 20.1015 91.7886 20.3017 91.9897 20.4666L91.314 3.59418Z" fill="#7799AD"/>
<path fill-rule="evenodd" clip-rule="evenodd" d="M94.3623 3.59418L93.6865 20.4558C93.8783 20.2935 93.9348 20.1015 94.3529 20.1015C94.774 20.1015 94.84 20.2962 95.038 20.4585L94.3623 3.59418Z" fill="#7799AD"/>
<path d="M140.613 35.2784H132.94C130.136 35.2784 127.843 32.9851 127.843 30.1807C127.843 27.3763 130.136 25.083 132.94 25.083H140.613C143.417 25.083 145.71 27.3763 145.71 30.1807C145.71 32.9851 143.417 35.2784 140.613 35.2784Z" fill="#004768"/>
<path d="M140.683 34.6159H132.87C130.42 34.6159 128.435 32.6309 128.435 30.1808C128.435 27.7307 130.42 25.7457 132.87 25.7457H140.683C143.133 25.7457 145.118 27.7307 145.118 30.1808C145.118 32.6309 143.133 34.6159 140.683 34.6159Z" fill="white"/>
<path d="M122.434 37.823L142.403 37.9907C143.496 37.9907 145.067 37.4958 145.751 36.6439L153.504 26.957C154.773 25.0342 157.853 26.0916 157.853 26.627L154.778 39.6999L122.047 39.5322L122.434 37.823Z" fill="#C6443B"/>
<path d="M148.623 30.478C148.642 30.6376 148.58 30.7944 148.52 30.9431C148.144 31.8734 147.768 32.8037 147.393 33.734C146.987 34.7374 145.213 38.1854 148.907 39.3239C148.994 39.351 154.264 39.708 154.354 39.6998C154.5 39.6836 154.551 39.497 154.546 39.3888C154.481 38.1935 154.616 36.9901 155.092 35.8921C155.568 34.7914 156.906 32.7875 156.704 32.682C156.468 32.6253 156.222 32.6685 155.984 32.6442C155.738 32.6226 155.5 32.5414 155.268 32.4603C154.245 32.1087 153.218 31.7545 152.247 31.2839C151.473 30.908 150.735 30.4591 149.943 30.1237C149.637 29.9939 149.096 29.7019 148.758 29.7505C148.355 29.8073 148.593 30.2238 148.623 30.478Z" fill="#F4DECA"/>
<path d="M133.881 37.0876C133.881 37.0876 141.38 36.8117 142.519 37.0876C143.658 37.3634 143.625 37.5176 144.117 37.3337C144.609 37.1498 146.029 37.2417 146.01 38.41C145.991 39.5783 147.406 39.27 147.406 39.27L133.013 39.1456L133.881 37.0876Z" fill="#F4DECA"/>
<path d="M117.539 38.8832H145.478C146.57 38.8832 147.601 38.3883 148.285 37.5364L157.125 26.4919C157.366 26.189 157.855 26.3594 157.855 26.7488V40.5951H117.158L117.539 38.8832Z" fill="#EF311F"/>
<path d="M122.434 16.3017L142.403 16.4694C143.496 16.4694 145.067 15.9745 145.751 15.1226L153.504 5.43566C154.773 3.51286 157.853 4.57026 157.853 5.10573L154.778 18.1786L122.053 18.0109L122.434 16.3017Z" fill="#C6443B"/>
<path d="M148.623 8.95682C148.642 9.11638 148.58 9.27323 148.52 9.42197C148.144 10.3523 147.768 11.2826 147.393 12.2129C146.987 13.2162 145.213 16.6642 148.907 17.8028C148.994 17.8298 154.264 18.1868 154.354 18.1787C154.5 18.1624 154.551 17.9758 154.546 17.8677C154.481 16.6723 154.616 15.4689 155.092 14.3709C155.568 13.2703 156.906 11.2663 156.704 11.1609C156.468 11.1041 156.222 11.1473 155.984 11.123C155.738 11.1014 155.5 11.0202 155.268 10.9391C154.245 10.5875 153.218 10.2333 152.247 9.76272C151.473 9.38681 150.735 8.93789 149.943 8.60255C149.637 8.47274 149.096 8.18067 148.758 8.22935C148.355 8.28614 148.593 8.70261 148.623 8.95682Z" fill="#F4DECA"/>
<path d="M133.881 15.5663C133.881 15.5663 141.38 15.2904 142.519 15.5663C143.658 15.8421 143.625 15.9963 144.117 15.8124C144.609 15.6285 146.029 15.7204 146.01 16.8887C145.991 18.057 147.406 17.7487 147.406 17.7487L133.013 17.6243L133.881 15.5663Z" fill="#F4DECA"/>
<path d="M117.539 17.3618H145.478C146.57 17.3618 147.601 16.8669 148.285 16.0151L157.125 4.97051C157.366 4.66763 157.855 4.838 157.855 5.22743V19.0737H117.158L117.539 17.3618Z" fill="#EF311F"/>
<path fill-rule="evenodd" clip-rule="evenodd" d="M117.175 20.0394H138.168V42.8722C138.168 43.2643 137.653 43.9134 137.016 43.9134C135.867 43.9134 136.205 43.121 135.458 43.121C134.711 43.121 135.088 43.9134 133.9 43.9134C132.712 43.9134 133.089 43.121 132.342 43.121C131.595 43.121 131.933 43.9134 130.784 43.9134C129.635 43.9134 129.973 43.121 129.226 43.121C128.48 43.121 128.798 43.9134 127.668 43.9134C126.539 43.9134 126.857 43.121 126.111 43.121C125.364 43.121 125.721 43.9134 124.553 43.9134C123.384 43.9134 123.741 43.121 122.995 43.121C122.248 43.121 122.547 43.9134 121.437 43.9134C120.326 43.9134 120.626 43.121 119.879 43.121C119.132 43.121 119.389 43.9134 118.321 43.9134C117.683 43.9134 117.168 43.2643 117.168 42.8722V20.0394H117.175Z" fill="#8AABC4"/>
<path fill-rule="evenodd" clip-rule="evenodd" d="M119.86 20.6827L119.167 43.5859C119.464 43.0288 120.243 42.9449 120.548 43.5426L119.86 20.6827Z" fill="#7799AD"/>
<path fill-rule="evenodd" clip-rule="evenodd" d="M122.982 20.6828L122.29 43.5968C122.602 43.0018 123.368 42.9558 123.674 43.5805L122.982 20.6828Z" fill="#7799AD"/>
<path fill-rule="evenodd" clip-rule="evenodd" d="M126.104 20.6828L125.412 43.6157C125.74 43.0018 126.442 42.9342 126.796 43.5697L126.104 20.6828Z" fill="#7799AD"/>
<path fill-rule="evenodd" clip-rule="evenodd" d="M129.226 20.6828L128.534 43.5886C128.846 42.9802 129.613 42.9748 129.918 43.5886L129.226 20.6828Z" fill="#7799AD"/>
<path fill-rule="evenodd" clip-rule="evenodd" d="M132.349 20.6828L131.657 43.5886C132.011 42.945 132.706 42.9802 133.041 43.6157L132.349 20.6828Z" fill="#7799AD"/>
<path fill-rule="evenodd" clip-rule="evenodd" d="M135.471 20.6828L134.779 43.5995C135.12 42.9504 135.816 42.9748 136.163 43.6049L135.471 20.6828Z" fill="#7799AD"/>
<path fill-rule="evenodd" clip-rule="evenodd" d="M117.175 3H138.168V19.7994C138.168 20.0888 137.653 20.5648 137.016 20.5648C135.867 20.5648 136.205 19.9833 135.458 19.9833C134.711 19.9833 135.088 20.5648 133.9 20.5648C132.712 20.5648 133.089 19.9833 132.342 19.9833C131.595 19.9833 131.933 20.5648 130.784 20.5648C129.635 20.5648 129.973 19.9833 129.226 19.9833C128.48 19.9833 128.798 20.5648 127.668 20.5648C126.539 20.5648 126.857 19.9833 126.111 19.9833C125.364 19.9833 125.721 20.5648 124.553 20.5648C123.384 20.5648 123.741 19.9833 122.995 19.9833C122.248 19.9833 122.547 20.5648 121.437 20.5648C120.326 20.5648 120.626 19.9833 119.879 19.9833C119.132 19.9833 119.389 20.5648 118.321 20.5648C117.683 20.5648 117.168 20.0888 117.168 19.7994V3H117.175Z" fill="#8AABC4"/>
<path fill-rule="evenodd" clip-rule="evenodd" d="M119.86 3.47607L119.167 20.3269C119.364 20.1673 119.467 19.9834 119.885 19.9834C120.275 19.9834 120.381 20.143 120.548 20.2944L119.86 3.47607Z" fill="#7799AD"/>
<path fill-rule="evenodd" clip-rule="evenodd" d="M122.982 3.47607L122.29 20.335C122.489 20.1727 122.576 19.9834 123.001 19.9834C123.416 19.9834 123.49 20.1619 123.674 20.3242L122.982 3.47607Z" fill="#7799AD"/>
<path fill-rule="evenodd" clip-rule="evenodd" d="M126.104 3.47607L125.412 20.3485C125.621 20.1836 125.679 19.9834 126.117 19.9834C126.526 19.9834 126.616 20.1565 126.796 20.3161L126.104 3.47607Z" fill="#7799AD"/>
<path fill-rule="evenodd" clip-rule="evenodd" d="M129.226 3.47607L128.534 20.3296C128.727 20.1673 128.811 19.9834 129.229 19.9834C129.648 19.9834 129.725 20.1673 129.918 20.3296L129.226 3.47607Z" fill="#7799AD"/>
<path fill-rule="evenodd" clip-rule="evenodd" d="M132.349 3.47607L131.657 20.3296C131.85 20.1673 131.927 19.9834 132.346 19.9834C132.783 19.9834 132.835 20.1836 133.041 20.3485L132.349 3.47607Z" fill="#7799AD"/>
<path fill-rule="evenodd" clip-rule="evenodd" d="M135.471 3.47607L134.779 20.3377C134.976 20.1754 135.034 19.9834 135.462 19.9834C135.893 19.9834 135.961 20.1781 136.163 20.3404L135.471 3.47607Z" fill="#7799AD"/>
<path d="M24.4607 30.1426H14.7467C12.9916 30.1426 11.5664 28.7201 11.5664 26.9623V14.6818C11.5664 12.9267 12.9889 11.5015 14.7467 11.5015H24.4607C26.2159 11.5015 27.6411 12.924 27.6411 14.6818V26.9623C27.6411 28.7174 26.2186 30.1426 24.4607 30.1426Z" fill="white"/>
<path d="M179.179 30.1426H169.465C167.71 30.1426 166.285 28.7201 166.285 26.9623V14.6818C166.285 12.9267 167.708 11.5015 169.465 11.5015H179.179C180.935 11.5015 182.36 12.924 182.36 14.6818V26.9623C182.36 28.7174 180.935 30.1426 179.179 30.1426Z" fill="white"/>
<rect x="35" y="18" width="1" height="1" fill="#BEC1C4"/>
<rect x="35" y="39" width="1" height="2" fill="#BEC1C4"/>
</svg>
