<svg width="21" height="18" viewBox="0 0 21 18" fill="none" xmlns="http://www.w3.org/2000/svg">
<path fill-rule="evenodd" clip-rule="evenodd" d="M0.00643423 0H21V16.9124C21 17.2038 20.485 17.6829 19.8476 17.6829C18.6985 17.6829 19.0365 17.0976 18.2897 17.0976C17.5429 17.0976 17.9195 17.6829 16.7318 17.6829C15.544 17.6829 15.9206 17.0976 15.1738 17.0976C14.427 17.0976 14.765 17.6829 13.6159 17.6829C12.4667 17.6829 12.8047 17.0976 12.0579 17.0976C11.3112 17.0976 11.6298 17.6829 10.5 17.6829C9.37017 17.6829 9.68884 17.0976 8.94206 17.0976C8.19528 17.0976 8.55258 17.6829 7.38412 17.6829C6.21567 17.6829 6.57296 17.0976 5.82618 17.0976C5.0794 17.0976 5.37875 17.6829 4.26824 17.6829C3.15772 17.6829 3.45708 17.0976 2.7103 17.0976C1.96352 17.0976 2.22103 17.6829 1.15236 17.6829C0.515022 17.6829 0 17.2038 0 16.9124V0H0.00643423Z" fill="#8AABC4"/>
<path fill-rule="evenodd" clip-rule="evenodd" d="M2.69157 0.479248L1.99951 17.4434C2.19586 17.2828 2.29887 17.0977 2.71733 17.0977C3.10681 17.0977 3.21303 17.2583 3.38042 17.4107L2.69157 0.479248Z" fill="#7799AD"/>
<path fill-rule="evenodd" clip-rule="evenodd" d="M5.81413 0.479248L5.12207 17.4516C5.32164 17.2882 5.40855 17.0977 5.83345 17.0977C6.24868 17.0977 6.32272 17.2773 6.50619 17.4407L5.81413 0.479248Z" fill="#7799AD"/>
<path fill-rule="evenodd" clip-rule="evenodd" d="M8.9362 0.479248L8.24414 17.4652C8.45337 17.2991 8.51131 17.0977 8.94908 17.0977C9.35788 17.0977 9.448 17.2719 9.62826 17.4325L8.9362 0.479248Z" fill="#7799AD"/>
<path fill-rule="evenodd" clip-rule="evenodd" d="M12.0578 0.479248L11.3657 17.4461C11.5589 17.2828 11.6425 17.0977 12.061 17.0977C12.4795 17.0977 12.5567 17.2828 12.7498 17.4461L12.0578 0.479248Z" fill="#7799AD"/>
<path fill-rule="evenodd" clip-rule="evenodd" d="M15.1808 0.479248L14.4888 17.4461C14.6819 17.2828 14.7592 17.0977 15.1776 17.0977C15.6154 17.0977 15.6669 17.2991 15.8729 17.4652L15.1808 0.479248Z" fill="#7799AD"/>
<path fill-rule="evenodd" clip-rule="evenodd" d="M18.3029 0.479248L17.6108 17.4543C17.8072 17.291 17.8651 17.0977 18.2932 17.0977C18.7246 17.0977 18.7922 17.2937 18.995 17.457L18.3029 0.479248Z" fill="#7799AD"/>
</svg>
