<svg width="21" height="24" viewBox="0 0 21 24" fill="none" xmlns="http://www.w3.org/2000/svg">
<path fill-rule="evenodd" clip-rule="evenodd" d="M0.00643423 0H21V22.9533C21 23.3475 20.485 24 19.8476 24C18.6985 24 19.0365 23.2034 18.2897 23.2034C17.5429 23.2034 17.9195 24 16.7318 24C15.544 24 15.9206 23.2034 15.1738 23.2034C14.427 23.2034 14.765 24 13.6159 24C12.4667 24 12.8047 23.2034 12.0579 23.2034C11.3112 23.2034 11.6298 24 10.5 24C9.37017 24 9.68884 23.2034 8.94206 23.2034C8.19528 23.2034 8.55258 24 7.38412 24C6.21567 24 6.57296 23.2034 5.82618 23.2034C5.0794 23.2034 5.37875 24 4.26824 24C3.15772 24 3.45708 23.2034 2.7103 23.2034C1.96352 23.2034 2.22103 24 1.15236 24C0.515022 24 0 23.3475 0 22.9533V0H0.00643423Z" fill="#8AABC4"/>
<path fill-rule="evenodd" clip-rule="evenodd" d="M2.50975 0.682739L1.7915 23.5859C2.09885 23.0288 2.90729 22.9449 3.22465 23.5426L2.50975 0.682739Z" fill="#7799AD"/>
<path fill-rule="evenodd" clip-rule="evenodd" d="M5.74999 0.682861L5.03174 23.5968C5.35578 23.0019 6.15086 22.9559 6.46823 23.5806L5.74999 0.682861Z" fill="#7799AD"/>
<path fill-rule="evenodd" clip-rule="evenodd" d="M8.9907 0.682861L8.27246 23.6157C8.61321 23.0019 9.34147 22.9343 9.70894 23.5698L8.9907 0.682861Z" fill="#7799AD"/>
<path fill-rule="evenodd" clip-rule="evenodd" d="M12.2309 0.682861L11.5127 23.5887C11.8367 22.9802 12.6318 22.9748 12.9492 23.5887L12.2309 0.682861Z" fill="#7799AD"/>
<path fill-rule="evenodd" clip-rule="evenodd" d="M15.4717 0.682861L14.7534 23.5887C15.1209 22.9451 15.8425 22.9802 16.1899 23.6157L15.4717 0.682861Z" fill="#7799AD"/>
<path fill-rule="evenodd" clip-rule="evenodd" d="M18.7119 0.682861L17.9937 23.5995C18.3478 22.9505 19.0693 22.9748 19.4301 23.6049L18.7119 0.682861Z" fill="#7799AD"/>
</svg>
