<svg width="123" height="30" viewBox="0 0 123 30" fill="none" xmlns="http://www.w3.org/2000/svg">
<path d="M41.4575 3.06836H0.759766V4.82078H41.4575V3.06836Z" fill="#004768"/>
<path d="M41.459 0.886167V0.166809L0.769333 0.166809V0.886167L41.459 0.886167Z" fill="#004768"/>
<path d="M82.1553 3.06836H41.4575V4.82078H82.1553V3.06836Z" fill="#004768"/>
<path d="M82.1577 0.888304V0.168945L41.4681 0.168945V0.888304L82.1577 0.888304Z" fill="#004768"/>
<path d="M44.3834 0.30188H43.6641V29.7063H44.3834V0.30188Z" fill="#004768"/>
<path d="M50.1401 21.2942V20.5749H43.8336V21.2942H50.1401Z" fill="#004768"/>
<path d="M50.1401 17.2162V16.4968H43.8336V17.2162H50.1401Z" fill="#004768"/>
<path d="M50.1406 13.1382V12.4188L43.8341 12.4188V13.1382L50.1406 13.1382Z" fill="#004768"/>
<path d="M50.1406 9.06024V8.34088L43.8341 8.34088V9.06024L50.1406 9.06024Z" fill="#004768"/>
<path d="M50.2062 0.30188H49.4868V29.7063H50.2062V0.30188Z" fill="#004768"/>
<path d="M82.1553 24.5895H41.4575V26.3419H82.1553V24.5895Z" fill="#004768"/>
<path d="M9.44141 21.2923V20.573H3.13486V21.2923H9.44141Z" fill="#004768"/>
<path d="M9.44189 17.2144V16.4951H3.13535V17.2144H9.44189Z" fill="#004768"/>
<path d="M9.44189 13.1364V12.417L3.13535 12.417V13.1364L9.44189 13.1364Z" fill="#004768"/>
<path d="M9.44189 9.05844V8.33908L3.13535 8.33908V9.05844L9.44189 9.05844Z" fill="#004768"/>
<path d="M9.50842 0.30188H8.78906V29.7063H9.50842V0.30188Z" fill="#004768"/>
<path d="M41.4575 24.5895H0.759766V26.342H41.4575V24.5895Z" fill="#004768"/>
<path d="M3.68322 0.30188H2.96387V29.7063H3.68322V0.30188Z" fill="#004768"/>
<path d="M85.0812 0.30188H84.3618V29.7063H85.0812V0.30188Z" fill="#004768"/>
<path d="M90.8384 21.2935V20.5741H84.5318V21.2935H90.8384Z" fill="#004768"/>
<path d="M90.8384 17.2156V16.4962H84.5318V17.2156H90.8384Z" fill="#004768"/>
<path d="M90.8389 13.1374V12.418L84.5323 12.418V13.1374L90.8389 13.1374Z" fill="#004768"/>
<path d="M90.8389 9.05935V8.34L84.5323 8.34V9.05935L90.8389 9.05935Z" fill="#004768"/>
<path d="M90.9034 0.30188H90.1841V29.7063H90.9034V0.30188Z" fill="#004768"/>
<path d="M122.855 3.06836H82.1577V4.82078H122.855V3.06836Z" fill="#004768"/>
<path d="M122.855 24.5895H82.1577V26.342H122.855V24.5895Z" fill="#004768"/>
<path d="M122.856 0.887388V0.16803L82.1663 0.16803V0.887388L122.856 0.887388Z" fill="#004768"/>
</svg>
